<?xml version="1.0" standalone="no"?>
<!DOCTYPE svg PUBLIC "-//W3C//DTD SVG 1.1//EN" "http://www.w3.org/Graphics/SVG/1.1/DTD/svg11.dtd" >
<svg xmlns="http://www.w3.org/2000/svg" xmlns:xlink="http://www.w3.org/1999/xlink" version="1.1">
<metadata>
Created by FontForge 20161003 at Mon May  8 05:05:58 2017
 By www-data
(c) 2011 Sergiy S. Tkachenko / 4th february
(c) 2011 SportsBettingSpot.com
http://creativecommons.org/licenses/by-nd/3.0
http://creativecommons.org/licenses/by-nd/3.0/deed.ru
</metadata>
<defs>
<font id="SportsWorldRegular" horiz-adv-x="826" >
  <font-face 
    font-family="SportsWorldRegular"
    font-weight="400"
    font-stretch="squinchy"
    units-per-em="1000"
    panose-1="2 0 5 3 2 0 0 2 0 4"
    ascent="800"
    descent="-200"
    x-height="700"
    cap-height="700"
    bbox="-63 -255 1520 1168"
    underline-thickness="50"
    underline-position="-150"
    unicode-range="U+0020-25FF"
  />
<missing-glyph horiz-adv-x="384" 
 />
    <glyph glyph-name=".notdef" horiz-adv-x="384" 
 />
    <glyph glyph-name=".null" horiz-adv-x="0" 
 />
    <glyph glyph-name="nonmarkingreturn" horiz-adv-x="384" 
 />
    <glyph glyph-name="space" unicode=" " horiz-adv-x="384" 
 />
    <glyph glyph-name="space" unicode="&#xa0;" horiz-adv-x="384" 
 />
    <glyph glyph-name="exclam" unicode="!" horiz-adv-x="374" 
d="M269 225l32 475h-228l31 -475h165zM272 0v151h-170v-151h170z" />
    <glyph glyph-name="quotedbl" unicode="&#x22;" horiz-adv-x="442" 
d="M373 439l25 291h-148l26 -291h97zM166 439l24 291h-146l25 -291h97z" />
    <glyph glyph-name="numbersign" unicode="#" horiz-adv-x="579" 
d="M488 505l25 195h-138l-25 -195h-82l25 195h-137l-25 -195h-77v-97h64l-13 -103h-77v-97h65l-27 -208h137l27 208h81l-26 -208h138l25 208h76v97h-63l13 103h76v97h-62zM256 408h82l-14 -103h-82z" />
    <glyph glyph-name="dollar" unicode="$" horiz-adv-x="667" 
d="M377 -95v95h106l143 118v200l-117 91l-132 22v96h34l20 -73h187v132l-136 114h-105v95h-87v-95h-114l-136 -114v-191l119 -98l131 -22v-103h-43l-20 73h-187v-127l142 -118h108v-95h87zM399 257l19 -17v-47l-25 -21h-16v88zM246 466v41l26 20h18v-82l-22 4z" />
    <glyph glyph-name="percent" unicode="%" horiz-adv-x="874" 
d="M301 0l385 700h-116l-386 -700h117zM374 409v231l-73 60h-184l-73 -60v-230l74 -62h183zM176 600h65l17 -14v-126l-18 -14h-63l-17 14v126zM830 60v231l-72 60h-186l-72 -60v-230l73 -61h184zM632 251h65l15 -13v-126l-16 -14h-64l-17 14v126z" />
    <glyph glyph-name="ampersand" unicode="&#x26;" horiz-adv-x="772" 
d="M245 227l40 33l77 -84l-30 -34h-64l-23 19v66zM339 558l18 -15v-51l-54 -47l-48 48v50l17 15h67zM363 0l100 87l84 -87h181l-163 177l114 99l-95 102l-114 -99l-63 72l114 99v159l-109 91h-229l-109 -91v-140l96 -102l-126 -96v-163l131 -108h188z" />
    <glyph glyph-name="quotesingle" unicode="'" horiz-adv-x="236" 
d="M166 439l26 291h-148l25 -291h97z" />
    <glyph glyph-name="parenleft" unicode="(" horiz-adv-x="310" 
d="M151 614l115 186h-112l-110 -179v-544l110 -177h106l-109 176v538z" />
    <glyph glyph-name="parenright" unicode=")" horiz-adv-x="310" 
d="M266 621l-110 179h-112l115 -186v-538l-109 -176h106l110 177v544z" />
    <glyph glyph-name="asterisk" unicode="*" horiz-adv-x="530" 
d="M458 425l-116 116l136 79l-52 88l-110 -64v143h-102v-143l-110 64l-52 -88l136 -79l-116 -115l72 -72l121 120l121 -121z" />
    <glyph glyph-name="plus" unicode="+" horiz-adv-x="530" 
d="M316 124v171h170v102h-170v170h-102v-170h-170v-102h170v-171h102z" />
    <glyph glyph-name="comma" unicode="," horiz-adv-x="291" 
d="M268 33v139h-191v-112l-53 -172l67 -24z" />
    <glyph glyph-name="hyphen" unicode="-" horiz-adv-x="430" 
d="M386 285v122h-342v-122h342z" />
    <glyph glyph-name="period" unicode="." horiz-adv-x="279" 
d="M235 0v172h-191v-172h191z" />
    <glyph glyph-name="slash" unicode="/" horiz-adv-x="336" 
d="M85 -82l259 806h-113l-259 -806h113z" />
    <glyph glyph-name="zero" unicode="0" horiz-adv-x="677" 
d="M633 125v453l-146 122h-297l-146 -122v-453l151 -125h286q38 31 76 62.5t76 62.5zM400 527l27 -21v-311l-28 -23h-121l-28 23v311l27 21h123z" />
    <glyph glyph-name="one" unicode="1" horiz-adv-x="526" 
d="M469 0v152l-96 20v528h-103l-226 -63l42 -144l80 23v-344l-96 -20v-152h399z" />
    <glyph glyph-name="two" unicode="2" horiz-adv-x="667" 
d="M48 454h187l20 73h139l26 -20v-41l-22 -17l-241 -40l-117 -91v-318h586v244h-186l-20 -72h-172v68l19 17l240 40l119 98v191l-136 114h-306l-136 -114v-132z" />
    <glyph glyph-name="three" unicode="3" horiz-adv-x="674" 
d="M290 293h108l24 -20v-80l-25 -21h-146l-20 73h-187v-127l142 -118h301l143 118v189l-94 77l87 158v158h-559v-246h187l20 73h145l-48 -102h-78v-132z" />
    <glyph glyph-name="four" unicode="4" horiz-adv-x="699" 
d="M578 356v344h-205l-329 -357v-126h328v-53l-76 -20v-144h358v144l-76 20v53h77v139h-77zM232 356l140 134v-134h-140z" />
    <glyph glyph-name="five" unicode="5" horiz-adv-x="674" 
d="M621 528v172h-575v-398h357l19 -17v-92l-25 -21h-146l-20 73h-187v-127l142 -118h301l143 118v255l-117 91h-260v64h368z" />
    <glyph glyph-name="six" unicode="6" horiz-adv-x="674" 
d="M622 586l-136 114h-306l-136 -114v-468l142 -118h301l143 118v205l-117 91h-263v93l26 20h139l20 -73h187v132zM250 285h153l19 -17v-75l-25 -21h-121l-26 21v92z" />
    <glyph glyph-name="seven" unicode="7" horiz-adv-x="615" 
d="M583 522v178h-559v-246h187l20 73h145l-249 -527h223z" />
    <glyph glyph-name="eight" unicode="8" horiz-adv-x="674" 
d="M625 586l-137 114h-304l-136 -114v-167l66 -54l-70 -58v-189l142 -118h301l143 118v189l-70 58l65 54v167zM276 300h122l24 -20v-87l-25 -21h-121l-26 21v87zM276 527h121l24 -20v-65l-24 -20h-121l-24 20v65z" />
    <glyph glyph-name="nine" unicode="9" horiz-adv-x="674" 
d="M628 117v468l-138 115h-309l-137 -115v-192l119 -98h259v-103l-24 -20h-146l-20 73h-187v-128l141 -117h302zM276 527h121l25 -21v-82h-150l-22 17v65z" />
    <glyph glyph-name="colon" unicode=":" horiz-adv-x="279" 
d="M235 0v172h-191v-172h191zM235 300v172h-191v-172h191z" />
    <glyph glyph-name="semicolon" unicode=";" horiz-adv-x="279" 
d="M235 300v172h-191v-172h191zM235 33v139h-191v-112l-53 -172l67 -24z" />
    <glyph glyph-name="less" unicode="&#x3c;" horiz-adv-x="551" 
d="M505 500v112l-461 -199v-111l461 -201v111l-341 145z" />
    <glyph glyph-name="equal" unicode="=" horiz-adv-x="533" 
d="M487 242v81h-443v-81h443zM487 388v82h-443v-82h443z" />
    <glyph glyph-name="greater" unicode="&#x3e;" horiz-adv-x="551" 
d="M505 302v111l-461 199v-112l341 -143l-341 -145v-111z" />
    <glyph glyph-name="question" unicode="?" horiz-adv-x="626" 
d="M591 586l-135 114h-282l-137 -114v-111h185v41l24 20h115l24 -20v-54l-164 -137v-115h166v59l204 172v145zM389 0v151h-170v-151h170z" />
    <glyph glyph-name="at" unicode="@" horiz-adv-x="740" 
d="M536 556h-251l-79 -65v-276l88 -72h158l48 41l49 -41h59l88 72v381q-32 26 -63 52l-62 52h-402l-62 -52t-63 -52v-487l131 -109h521v59h-494l-86 72v442l80 67h346l82 -67v-337l-42 -32h-5l-41 32v320zM465 236l-41 -32h-104l-42 32v232l36 28h151v-260z" />
    <glyph glyph-name="A" unicode="A" horiz-adv-x="775" 
d="M671 172l-135 528h-404v-153l65 -20l-102 -355l-77 -20v-152h300v152l-49 20l17 62h151l18 -62l-53 -20v-152h355v152zM359 511l45 -157h-89z" />
    <glyph glyph-name="B" unicode="B" horiz-adv-x="744" 
d="M694 418v168l-136 114h-514v-153l76 -20v-355l-76 -20v-152h512l142 118v188l-70 58zM327 299h141l24 -20v-86l-26 -21h-139v127zM327 527h139l24 -20v-66l-24 -20h-139v106z" />
    <glyph glyph-name="C" unicode="C" horiz-adv-x="670" 
d="M624 586l-136 114h-289l-155 -129v-437l161 -134h277q35 29 71 58.5t71 59.5v127h-187l-20 -73h-137l-30 24v308l29 23h138l20 -73h187v132z" />
    <glyph glyph-name="D" unicode="D" horiz-adv-x="749" 
d="M705 150v405l-175 145h-486v-153l76 -20v-355l-76 -20v-152h481zM327 527h129l42 -35v-284l-44 -36h-127v355z" />
    <glyph glyph-name="E" unicode="E" horiz-adv-x="705" 
d="M661 454v246h-617v-153l76 -20v-355l-76 -20v-152h618v245h-148l-20 -73h-168v122h168v120h-168v113h168l20 -73h147z" />
    <glyph glyph-name="F" unicode="F" horiz-adv-x="686" 
d="M661 454v246h-617v-153l76 -20v-355l-76 -20v-152h378v152l-96 20v122h168v120h-168v113h168l20 -73h147z" />
    <glyph glyph-name="G" unicode="G" horiz-adv-x="674" 
d="M633 454v132l-137 114h-297l-155 -129v-437l161 -134h185l66 55l20 -55h157v414h-300v-120h94v-96l-31 -26h-116l-30 24v308l29 23h148l20 -73h186z" />
    <glyph glyph-name="H" unicode="H" 
d="M780 547v153h-329v-153l45 -20v-113h-169v113l46 20v153h-329v-153l76 -20v-355l-76 -20v-152h329v152l-46 20v122h169v-122l-45 -20v-152h329v152l-76 20v355z" />
    <glyph glyph-name="I" unicode="I" horiz-adv-x="496" 
d="M426 547v153h-358v-153l76 -20v-355l-76 -20v-152h358v152l-76 20v355z" />
    <glyph glyph-name="J" unicode="J" horiz-adv-x="706" 
d="M694 547v153h-387v-153l105 -20v-331l-30 -24h-132l-20 73h-186v-127l142 -118h272l161 134v393z" />
    <glyph glyph-name="K" unicode="K" horiz-adv-x="803" 
d="M775 547v153h-334v-153l49 -20l-156 -136v136l48 20v153h-338v-153l76 -20v-355l-76 -20v-152h340v152l-50 20v73l80 67l78 -140l-50 -20v-152h333v152l-71 20l-139 261l113 94z" />
    <glyph glyph-name="L" unicode="L" horiz-adv-x="678" 
d="M412 547v153h-368v-153l76 -20v-355l-76 -20v-152h617v267h-148l-20 -95h-166v355z" />
    <glyph glyph-name="M" unicode="M" horiz-adv-x="962" 
d="M916 547v153h-306l-120 -215l-118 215h-328v-153l76 -20v-355l-76 -20v-152h367v152l-96 20v239l126 -215h78l126 215v-239l-96 -20v-152h367v152l-74 20v355z" />
    <glyph glyph-name="N" unicode="N" horiz-adv-x="821" 
d="M476 700v-153l76 -20v-201l-208 374h-300v-153l76 -20v-355l-76 -20v-152h327v152l-76 20v218l231 -390h202v527l76 20v153h-328z" />
    <glyph glyph-name="O" unicode="O" horiz-adv-x="677" 
d="M633 125v453l-146 122h-297l-146 -122v-453l151 -125h286q38 31 76 62.5t76 62.5zM400 527l27 -21v-311l-28 -23h-121l-28 23v311l27 21h123z" />
    <glyph glyph-name="P" unicode="P" horiz-adv-x="731" 
d="M703 578l-145 122h-514v-153l76 -20v-355l-76 -20v-152h359v151l-76 20v70h231l145 121v216zM470 527l26 -21v-70l-26 -22h-143v113h143z" />
    <glyph glyph-name="Q" unicode="Q" horiz-adv-x="677" 
d="M633 125v453l-146 122h-297l-146 -122v-453l151 -125h191l101 -172h190v162l-53 10l-49 77zM400 527l27 -21v-311l-28 -23h-121l-28 23v311l27 21h123z" />
    <glyph glyph-name="R" unicode="R" horiz-adv-x="743" 
d="M327 527h142l24 -20v-74l-24 -20h-142v114zM403 0v152l-76 20v101h52l160 -273h190v162l-53 10l-76 121l99 84v209l-135 114h-520v-153l76 -20v-355l-76 -20v-152h359z" />
    <glyph glyph-name="S" unicode="S" horiz-adv-x="667" 
d="M618 586l-136 114h-306l-136 -114v-191l119 -98l240 -40l19 -17v-47l-25 -21h-146l-20 73h-187v-127l142 -118h301l143 118v200l-117 91l-241 40l-22 17v41l26 20h139l20 -73h187v132z" />
    <glyph glyph-name="T" unicode="T" horiz-adv-x="729" 
d="M713 411v289h-696v-289h148l20 127h77v-366l-85 -20v-152h378v152l-86 20v366h77l20 -127h147z" />
    <glyph glyph-name="U" unicode="U" horiz-adv-x="767" 
d="M748 547v153h-323v-153l45 -20v-332l-26 -23h-116l-27 23v332l46 20v153h-329v-153l76 -20v-418l132 -109h315l131 109v418z" />
    <glyph glyph-name="V" unicode="V" horiz-adv-x="775" 
d="M757 547v153h-301v-153l47 -20l-88 -305l-92 305l49 20v153h-354v-153l66 -20l160 -527h276l169 527z" />
    <glyph glyph-name="W" unicode="W" horiz-adv-x="1146" 
d="M1128 547v153h-269v-153l42 -20l-77 -305l-86 305l49 20v153h-361v-153l47 -20l-83 -305l-82 305l46 20v153h-336v-153l61 -20l135 -527h277l87 309l83 -309h261l144 527z" />
    <glyph glyph-name="X" unicode="X" horiz-adv-x="738" 
d="M715 547v153h-254v-153l43 -20l-79 -106l-88 106l54 20v153h-369v-153l82 -20l134 -161l-167 -194l-53 -20v-152h257v152l-48 20l83 112l90 -112l-57 -20v-152h377v152l-76 20l-145 168l161 187z" />
    <glyph glyph-name="Y" unicode="Y" horiz-adv-x="708" 
d="M690 547v153h-277v-153l42 -20l-78 -117l-77 117l41 20v153h-323v-153l61 -20l171 -228v-127l-86 -20v-152h378v152l-85 20v128l169 227z" />
    <glyph glyph-name="Z" unicode="Z" horiz-adv-x="647" 
d="M618 558v142h-595v-267h148l20 95h141l-310 -388v-140h600v267h-148l-20 -95h-146z" />
    <glyph glyph-name="bracketleft" unicode="[" horiz-adv-x="358" 
d="M314 745v85h-270v-960h270v85h-113v790h113z" />
    <glyph glyph-name="backslash" unicode="\" horiz-adv-x="336" 
d="M365 -82l-259 806h-113l259 -806h113z" />
    <glyph glyph-name="bracketright" unicode="]" horiz-adv-x="358" 
d="M157 745v-790h-113v-85h270v960h-270v-85h113z" />
    <glyph glyph-name="asciicircum" unicode="^" horiz-adv-x="449" 
d="M403 495l-135 205h-90l-134 -205h115l64 112l65 -112h115z" />
    <glyph glyph-name="underscore" unicode="_" horiz-adv-x="584" 
d="M584 -80v48h-584v-48h584z" />
    <glyph glyph-name="grave" unicode="`" horiz-adv-x="394" 
d="M318 775l20 67l-294 112l-30 -107z" />
    <glyph glyph-name="a" unicode="a" horiz-adv-x="726" 
d="M706 153l-76 20v413l-136 114h-306l-136 -114v-132h187l20 73h139l26 -20v-67l-263 -41l-117 -91v-190l143 -118h200l66 55l20 -55h233v153zM271 247l153 35v-89l-26 -21h-121l-25 21v37z" />
    <glyph glyph-name="b" unicode="b" horiz-adv-x="744" 
d="M694 418v168l-136 114h-514v-153l76 -20v-355l-76 -20v-152h512l142 118v188l-70 58zM327 299h141l24 -20v-86l-26 -21h-139v127zM327 527h139l24 -20v-66l-24 -20h-139v106z" />
    <glyph glyph-name="c" unicode="c" horiz-adv-x="670" 
d="M624 586l-136 114h-289l-155 -129v-437l161 -134h277q35 29 71 58.5t71 59.5v127h-187l-20 -73h-137l-30 24v308l29 23h138l20 -73h187v132z" />
    <glyph glyph-name="d" unicode="d" horiz-adv-x="749" 
d="M705 150v405l-175 145h-486v-153l76 -20v-355l-76 -20v-152h481zM327 527h129l42 -35v-284l-44 -36h-127v355z" />
    <glyph glyph-name="e" unicode="e" horiz-adv-x="667" 
d="M624 245h-187l-20 -73h-145l-26 21v65l263 43l117 91v190l-143 118h-301l-142 -118v-468l136 -114h306l142 118v127zM399 453l-153 -25v79l26 21h121l25 -21v-37z" />
    <glyph glyph-name="f" unicode="f" horiz-adv-x="686" 
d="M661 454v246h-617v-153l76 -20v-355l-76 -20v-152h378v152l-96 20v122h168v120h-168v113h168l20 -73h147z" />
    <glyph glyph-name="g" unicode="g" horiz-adv-x="674" 
d="M633 454v132l-137 114h-297l-155 -129v-437l161 -134h185l66 55l20 -55h157v414h-300v-120h94v-96l-31 -26h-116l-30 24v308l29 23h148l20 -73h186z" />
    <glyph glyph-name="h" unicode="h" 
d="M780 547v153h-329v-153l45 -20v-113h-169v113l46 20v153h-329v-153l76 -20v-355l-76 -20v-152h329v152l-46 20v122h169v-122l-45 -20v-152h329v152l-76 20v355z" />
    <glyph glyph-name="i" unicode="i" horiz-adv-x="496" 
d="M426 547v153h-358v-153l76 -20v-355l-76 -20v-152h358v152l-76 20v355z" />
    <glyph glyph-name="j" unicode="j" horiz-adv-x="706" 
d="M694 547v153h-387v-153l105 -20v-331l-30 -24h-132l-20 73h-186v-127l142 -118h272l161 134v393z" />
    <glyph glyph-name="k" unicode="k" horiz-adv-x="803" 
d="M775 547v153h-334v-153l49 -20l-156 -136v136l48 20v153h-338v-153l76 -20v-355l-76 -20v-152h340v152l-50 20v73l80 67l78 -140l-50 -20v-152h333v152l-71 20l-139 261l113 94z" />
    <glyph glyph-name="l" unicode="l" horiz-adv-x="678" 
d="M412 547v153h-368v-153l76 -20v-355l-76 -20v-152h617v267h-148l-20 -95h-166v355z" />
    <glyph glyph-name="m" unicode="m" horiz-adv-x="1206" 
d="M563 700h-211l-66 -55l-20 55h-222v-153l76 -20v-354l-76 -20v-153h328v153l-46 20v334l26 21h121l25 -21v-334l-46 -20v-153h300v153l-46 20v334l26 21h121l25 -21v-334l-46 -20v-153h330v153l-76 20v409l-143 118h-211l-84 -70z" />
    <glyph glyph-name="n" unicode="n" 
d="M44 547l76 -20v-354l-76 -20v-153h328v153l-46 20v334l26 21h121l25 -21v-334l-46 -20v-153h330v153l-76 20v409l-143 118h-211l-66 -55l-20 55h-222v-153z" />
    <glyph glyph-name="o" unicode="o" horiz-adv-x="677" 
d="M633 125v453l-146 122h-297l-146 -122v-453l151 -125h286q38 31 76 62.5t76 62.5zM400 527l27 -21v-311l-28 -23h-121l-28 23v311l27 21h123z" />
    <glyph glyph-name="p" unicode="p" horiz-adv-x="731" 
d="M703 578l-145 122h-514v-153l76 -20v-355l-76 -20v-152h359v151l-76 20v70h231l145 121v216zM470 527l26 -21v-70l-26 -22h-143v113h143z" />
    <glyph glyph-name="q" unicode="q" horiz-adv-x="678" 
d="M633 125v453l-146 122h-297l-146 -122v-453l151 -125h191l101 -172h190v162l-53 10l-49 77zM400 527l27 -21v-311l-28 -23h-121l-28 23v311l27 21h123z" />
    <glyph glyph-name="r" unicode="r" horiz-adv-x="743" 
d="M327 527h142l24 -20v-74l-24 -20h-142v114zM403 0v152l-76 20v101h52l160 -273h190v162l-53 10l-76 121l99 84v209l-135 114h-520v-153l76 -20v-355l-76 -20v-152h359z" />
    <glyph glyph-name="s" unicode="s" horiz-adv-x="667" 
d="M618 586l-136 114h-306l-136 -114v-191l119 -98l240 -40l19 -17v-47l-25 -21h-146l-20 73h-187v-127l142 -118h301l143 118v200l-117 91l-241 40l-22 17v41l26 20h139l20 -73h187v132z" />
    <glyph glyph-name="t" unicode="t" horiz-adv-x="729" 
d="M713 411v289h-696v-289h148l20 127h77v-366l-85 -20v-152h378v152l-86 20v366h77l20 -127h147z" />
    <glyph glyph-name="u" unicode="u" 
d="M782 153l-76 20v354l76 20v153h-328v-153l46 -20v-334l-26 -21h-121l-25 21v334l46 20v153h-330v-153l76 -20v-409l143 -118h211l66 55l20 -55h222v153z" />
    <glyph glyph-name="v" unicode="v" horiz-adv-x="775" 
d="M757 547v153h-301v-153l47 -20l-88 -305l-92 305l49 20v153h-354v-153l66 -20l160 -527h276l169 527z" />
    <glyph glyph-name="w" unicode="w" horiz-adv-x="1146" 
d="M1128 547v153h-269v-153l42 -20l-77 -305l-86 305l49 20v153h-361v-153l47 -20l-83 -305l-82 305l46 20v153h-336v-153l61 -20l135 -527h277l87 309l83 -309h261l144 527z" />
    <glyph glyph-name="x" unicode="x" horiz-adv-x="738" 
d="M715 547v153h-254v-153l43 -20l-79 -106l-88 106l54 20v153h-369v-153l82 -20l134 -161l-167 -194l-53 -20v-152h257v152l-48 20l83 112l90 -112l-57 -20v-152h377v152l-76 20l-145 168l161 187z" />
    <glyph glyph-name="y" unicode="y" 
d="M120 408l143 -118h236v-94l-30 -24h-132l-20 73h-186v-127l142 -118h272l161 134v393l76 20v153h-328v-153l46 -20v-85h-147l-25 21v64l46 20v153h-330v-153l76 -20v-119z" />
    <glyph glyph-name="z" unicode="z" horiz-adv-x="647" 
d="M618 558v142h-595v-267h148l20 95h141l-310 -388v-140h600v267h-148l-20 -95h-146z" />
    <glyph glyph-name="braceleft" unicode="{" horiz-adv-x="421" 
d="M375 745v55h-125l-116 -97v-288l-23 -30h-67v-69h67l23 -31v-289l116 -96h125v55h-93l-41 33v308l-59 54l59 55v306l41 34h93z" />
    <glyph glyph-name="bar" unicode="|" horiz-adv-x="197" 
d="M151 -95v819h-107v-819h107z" />
    <glyph glyph-name="braceright" unicode="}" horiz-adv-x="421" 
d="M285 415v288l-116 97h-125v-55h95l39 -34v-306l60 -55l-60 -54v-308l-39 -33h-95v-55h125l116 96v289l23 31h67v69h-67z" />
    <glyph glyph-name="asciitilde" unicode="~" horiz-adv-x="509" 
d="M337 365q-22 0 -40.5 7.5t-37 16.5t-39 16.5t-45.5 7.5q-42 0 -75.5 -21t-55.5 -55l40 -57q23 26 42.5 39.5t45.5 13.5q20 0 38.5 -7.5t37.5 -16.5t40 -16.5t47 -7.5q40 0 73.5 20.5t56.5 55.5l-40 57q-24 -27 -43 -40t-45 -13z" />
    <glyph glyph-name="exclamdown" unicode="&#xa1;" horiz-adv-x="334" 
d="M281 0l-32 475h-165l-31 -475h228zM251 549v151h-169v-151h169z" />
    <glyph glyph-name="cent" unicode="&#xa2;" horiz-adv-x="670" 
d="M377 -95v95h105q35 29 71 58.5t71 59.5v127h-187l-20 -73h-40v355h40l20 -73h187v132l-136 114h-111v95h-87v-95h-91l-155 -129v-437l161 -134h85v-95h87zM250 196v308l29 23h11v-355h-10z" />
    <glyph glyph-name="yen" unicode="&#xa5;" horiz-adv-x="708" 
d="M79 322v-58h171v-92l-86 -20v-152h378v152l-85 20v92h169v58h-153l43 58h110v57h-67l67 90l64 20v153h-277v-153l42 -20l-78 -117l-77 117l41 20v153h-323v-153l61 -20l67 -90h-67v-57h110l43 -58h-153z" />
    <glyph glyph-name="brokenbar" unicode="&#xa6;" horiz-adv-x="215" 
d="M171 305h-127v-400h127v400zM171 410v385h-127v-385h127z" />
    <glyph glyph-name="dieresis" unicode="&#xa8;" horiz-adv-x="494" 
d="M448 767v138h-159v-138h159zM204 767v138h-160v-138h160z" />
    <glyph glyph-name="copyright" unicode="&#xa9;" horiz-adv-x="740" 
d="M696 109v487q-32 26 -63 52l-62 52h-402l-62 -52t-63 -52v-487l131 -109h389zM542 640l82 -67v-442l-87 -72h-335l-86 72v442l80 67h346zM536 491l-84 65h-167l-79 -65v-276l88 -72h158l84 72v76h-71l-13 -87h-132l-42 32v232l36 28h138l13 -79h71v74z" />
    <glyph glyph-name="ordfeminine" unicode="&#xaa;" horiz-adv-x="384" 
d="M340 390v256l-64 54h-159l-65 -54v-55h70v33l22 18h104l23 -18v-77h-172l-55 -46v-111l72 -60h154zM126 488h145v-78l-28 -24h-102l-27 24v68z" />
    <glyph glyph-name="guillemotleft" unicode="&#xab;" horiz-adv-x="416" 
d="M118 373l92 122h-103l-89 -122l89 -122h103zM306 373l92 122h-103l-90 -122l90 -122h103z" />
    <glyph glyph-name="registered" unicode="&#xae;" horiz-adv-x="664" 
d="M618 596l-122 104h-330l-122 -104v-338l130 -108h315l129 108v338zM194 640h275l79 -66v-295l-85 -70h-263l-86 70v295zM466 444v101l-60 48h-219v-49l38 -10v-207l-38 -10v-48h145v48l-36 10v68h18l69 -126h99v48l-49 10l-45 70h17zM380 534l16 -12v-55l-16 -13h-84v80
h84z" />
    <glyph glyph-name="macron" unicode="&#xaf;" horiz-adv-x="426" 
d="M382 801v94h-338v-94h338z" />
    <glyph glyph-name="degree" unicode="&#xb0;" horiz-adv-x="356" 
d="M310 662l-44 38h-178l-44 -38v-124l46 -38h175l45 38v124zM126 645h103l15 -14v-62l-16 -14h-101l-17 14v62z" />
    <glyph glyph-name="plusminus" unicode="&#xb1;" horiz-adv-x="536" 
d="M487 379v82h-173v143h-98v-143h-172v-82h172v-144h98v144h173zM474 86v82h-444v-82h444z" />
    <glyph glyph-name="twosuperior" unicode="&#xb2;" horiz-adv-x="333" 
d="M24 664h93l10 36h70l13 -10v-20l-11 -9l-121 -20l-58 -45v-159h293v122h-93l-10 -36h-86v34l9 8l120 20l60 49v96l-68 57h-153l-68 -57v-66z" />
    <glyph glyph-name="threesuperior" unicode="&#xb3;" horiz-adv-x="337" 
d="M145 583h54l12 -10v-40l-13 -10h-73l-10 36h-93v-63l71 -59h150l72 59v94l-48 39l44 79v79h-279v-123h93l10 36h73l-24 -51h-39v-66z" />
    <glyph glyph-name="acute" unicode="&#xb4;" horiz-adv-x="394" 
d="M378 847l-30 107l-294 -112l20 -67z" />
    <glyph glyph-name="periodcentered" unicode="&#xb7;" horiz-adv-x="309" 
d="M241 279v151h-170v-151h170z" />
    <glyph glyph-name="cedilla" unicode="&#xb8;" horiz-adv-x="334" 
d="M84 43v-158h92l42 -32v-12l-42 -32h-132v-61h158l88 72v54l-88 72h-57v71z" />
    <glyph glyph-name="onesuperior" unicode="&#xb9;" horiz-adv-x="263" 
d="M234 437v76l-48 10v264h-51l-113 -32l21 -72l40 12v-172l-48 -10v-76h199z" />
    <glyph glyph-name="ordmasculine" unicode="&#xba;" horiz-adv-x="369" 
d="M325 389v257l-65 54h-152l-64 -54v-257l71 -59h138zM234 642l22 -18v-214l-28 -24h-87l-29 24v214l24 18h98z" />
    <glyph glyph-name="guillemotright" unicode="&#xbb;" horiz-adv-x="416" 
d="M210 373l-89 122h-103l92 -122l-92 -122h103zM398 373l-90 122h-103l94 -122l-94 -122h103z" />
    <glyph glyph-name="onequarter" unicode="&#xbc;" horiz-adv-x="718" 
d="M256 437v76l-48 10v264h-51l-113 -32l21 -72l40 12v-172l-48 -10v-76h199zM260 -82l259 806h-113l-259 -806h113zM636 78v172h-103l-164 -179v-63h164v-26l-38 -10v-72h179v72l-38 10v26h38v70h-38zM463 78l70 67v-67h-70z" />
    <glyph glyph-name="onehalf" unicode="&#xbd;" horiz-adv-x="755" 
d="M256 437v76l-48 10v264h-51l-113 -32l21 -72l40 12v-172l-48 -10v-76h199zM260 -82l259 806h-113l-259 -806h113zM422 127h93l10 36h70l13 -10v-20l-11 -9l-121 -20l-58 -45v-159h293v122h-93l-10 -36h-86v34l9 8l120 20l60 49v96l-68 57h-153l-68 -57v-66z" />
    <glyph glyph-name="threequarters" unicode="&#xbe;" horiz-adv-x="793" 
d="M325 -82l259 806h-113l-259 -806h113zM167 583h54l12 -10v-40l-13 -10h-73l-10 36h-93v-63l71 -59h150l72 59v94l-48 39l44 79v79h-279v-123h93l10 36h73l-24 -51h-39v-66zM711 78v172h-103l-164 -179v-63h164v-26l-38 -10v-72h179v72l-38 10v26h38v70h-38zM538 78l70 67
v-67h-70z" />
    <glyph glyph-name="questiondown" unicode="&#xbf;" horiz-adv-x="639" 
d="M414 374v116h-167v-60l-204 -172v-145l136 -113h282l136 113v112h-184v-42l-24 -20h-116l-24 20v54zM415 549v151h-170v-151h170z" />
    <glyph glyph-name="Agrave" unicode="&#xc0;" horiz-adv-x="775" 
d="M671 172l-135 528h-404v-153l65 -20l-102 -355l-77 -20v-152h300v152l-49 20l17 62h151l18 -62l-53 -20v-152h355v152zM359 511l45 -157h-89zM524 775l20 67l-294 112l-30 -107z" />
    <glyph glyph-name="Aacute" unicode="&#xc1;" horiz-adv-x="775" 
d="M671 172l-135 528h-404v-153l65 -20l-102 -355l-77 -20v-152h300v152l-49 20l17 62h151l18 -62l-53 -20v-152h355v152zM359 511l45 -157h-89zM554 847l-30 107l-294 -112l20 -67z" />
    <glyph glyph-name="Acircumflex" unicode="&#xc2;" horiz-adv-x="775" 
d="M671 172l-135 528h-404v-153l65 -20l-102 -355l-77 -20v-152h300v152l-49 20l17 62h151l18 -62l-53 -20v-152h355v152zM359 511l45 -157h-89zM548 770l-142 150h-91l-145 -150h128l63 91l59 -91h128z" />
    <glyph glyph-name="Atilde" unicode="&#xc3;" horiz-adv-x="775" 
d="M671 172l-135 528h-404v-153l65 -20l-102 -355l-77 -20v-152h300v152l-49 20l17 62h151l18 -62l-53 -20v-152h355v152zM359 511l45 -157h-89zM531 865q-23 0 -42 7.5t-37.5 16.5t-38.5 16.5t-46 7.5q-42 0 -75.5 -21t-55.5 -55l40 -57q23 26 42.5 39.5t45.5 13.5
q20 0 38.5 -7.5t37.5 -16.5t40 -16.5t47 -7.5q40 0 73.5 20.5t56.5 55.5l-40 57q-22 -25 -42 -39t-44 -14z" />
    <glyph glyph-name="Adieresis" unicode="&#xc4;" horiz-adv-x="775" 
d="M671 172l-135 528h-404v-153l65 -20l-102 -355l-77 -20v-152h300v152l-49 20l17 62h151l18 -62l-53 -20v-152h355v152zM359 511l45 -157h-89zM561 767v138h-159v-138h159zM317 767v138h-160v-138h160z" />
    <glyph glyph-name="Aring" unicode="&#xc5;" horiz-adv-x="775" 
d="M671 172l-135 528h-404v-153l65 -20l-102 -355l-77 -20v-152h300v152l-49 20l17 62h151l18 -62l-53 -20v-152h355v152zM359 511l45 -157h-89zM259 848q0 -38 29 -64t71 -26t71 26t29 64q0 18 -8 34.5t-21.5 29t-31.5 19.5t-39 7t-39 -7t-31.5 -19.5t-21.5 -29t-8 -34.5z
M319 848q0 12 11.5 21t28.5 9t28.5 -9t11.5 -21q0 -13 -11.5 -21.5t-28.5 -8.5t-28.5 8.5t-11.5 21.5z" />
    <glyph glyph-name="AE" unicode="&#xc6;" horiz-adv-x="1042" 
d="M994 474v226h-864v-153l65 -20l-102 -355l-77 -20v-152h300v152l-49 20l17 62h169v-62l-53 -20v-152h595v225h-148l-20 -53h-168v122h107l10 -49h110v209h-110l-10 -40h-107v113h168l20 -53h147zM357 511h96v-157h-140z" />
    <glyph glyph-name="Ccedilla" unicode="&#xc7;" horiz-adv-x="670" 
d="M498 -126l-88 72h-57v54h129q35 29 71 58.5t71 59.5v127h-187l-20 -73h-137l-30 24v308l29 23h138l20 -73h187v132l-136 114h-289l-155 -129v-437l161 -134h87v-115h92l42 -32v-12l-42 -32h-132v-61h158l88 72v54z" />
    <glyph glyph-name="Egrave" unicode="&#xc8;" horiz-adv-x="705" 
d="M661 454v246h-617v-153l76 -20v-355l-76 -20v-152h618v245h-148l-20 -73h-168v122h168v120h-168v113h168l20 -73h147zM489 775l20 67l-294 112l-30 -107z" />
    <glyph glyph-name="Eacute" unicode="&#xc9;" horiz-adv-x="705" 
d="M661 454v246h-617v-153l76 -20v-355l-76 -20v-152h618v245h-148l-20 -73h-168v122h168v120h-168v113h168l20 -73h147zM519 847l-30 107l-294 -112l20 -67z" />
    <glyph glyph-name="Ecircumflex" unicode="&#xca;" horiz-adv-x="705" 
d="M661 454v246h-617v-153l76 -20v-355l-76 -20v-152h618v245h-148l-20 -73h-168v122h168v120h-168v113h168l20 -73h147zM541 770l-142 150h-91l-145 -150h128l63 91l59 -91h128z" />
    <glyph glyph-name="Edieresis" unicode="&#xcb;" horiz-adv-x="705" 
d="M661 454v246h-617v-153l76 -20v-355l-76 -20v-152h618v245h-148l-20 -73h-168v122h168v120h-168v113h168l20 -73h147zM554 767v138h-159v-138h159zM310 767v138h-160v-138h160z" />
    <glyph glyph-name="Igrave" unicode="&#xcc;" horiz-adv-x="496" 
d="M426 547v153h-358v-153l76 -20v-355l-76 -20v-152h358v152l-76 20v355zM385 775l20 67l-294 112l-30 -107z" />
    <glyph glyph-name="Iacute" unicode="&#xcd;" horiz-adv-x="496" 
d="M426 547v153h-358v-153l76 -20v-355l-76 -20v-152h358v152l-76 20v355zM415 847l-30 107l-294 -112l20 -67z" />
    <glyph glyph-name="Icircumflex" unicode="&#xce;" horiz-adv-x="496" 
d="M426 547v153h-358v-153l76 -20v-355l-76 -20v-152h358v152l-76 20v355zM437 770l-142 150h-91l-145 -150h128l63 91l59 -91h128z" />
    <glyph glyph-name="Idieresis" unicode="&#xcf;" horiz-adv-x="496" 
d="M426 547v153h-358v-153l76 -20v-355l-76 -20v-152h358v152l-76 20v355zM450 767v138h-159v-138h159zM206 767v138h-160v-138h160z" />
    <glyph glyph-name="Eth" unicode="&#xd0;" horiz-adv-x="749" 
d="M705 150v405l-175 145h-486v-153l76 -20v-120h-76v-122h76v-113l-76 -20v-152h481zM386 285v122h-59v120h129l42 -35v-284l-44 -36h-127v113h59z" />
    <glyph glyph-name="Ntilde" unicode="&#xd1;" horiz-adv-x="821" 
d="M476 700v-153l76 -20v-201l-208 374h-300v-153l76 -20v-355l-76 -20v-152h327v152l-76 20v218l231 -390h202v527l76 20v153h-328zM554 865q-23 0 -42 7.5t-37.5 16.5t-38.5 16.5t-46 7.5q-42 0 -75.5 -21t-55.5 -55l40 -57q23 26 42.5 39.5t45.5 13.5q20 0 38.5 -7.5
t37.5 -16.5t40 -16.5t47 -7.5q40 0 73.5 20.5t56.5 55.5l-40 57q-22 -25 -42 -39t-44 -14z" />
    <glyph glyph-name="Ograve" unicode="&#xd2;" horiz-adv-x="677" 
d="M633 125v453l-146 122h-297l-146 -122v-453l151 -125h286q38 31 76 62.5t76 62.5zM400 527l27 -21v-311l-28 -23h-121l-28 23v311l27 21h123zM475 775l20 67l-294 112l-30 -107z" />
    <glyph glyph-name="Oacute" unicode="&#xd3;" horiz-adv-x="677" 
d="M633 125v453l-146 122h-297l-146 -122v-453l151 -125h286q38 31 76 62.5t76 62.5zM400 527l27 -21v-311l-28 -23h-121l-28 23v311l27 21h123zM505 847l-30 107l-294 -112l20 -67z" />
    <glyph glyph-name="Ocircumflex" unicode="&#xd4;" horiz-adv-x="677" 
d="M633 125v453l-146 122h-297l-146 -122v-453l151 -125h286q38 31 76 62.5t76 62.5zM400 527l27 -21v-311l-28 -23h-121l-28 23v311l27 21h123zM527 770l-142 150h-91l-145 -150h128l63 91l59 -91h128z" />
    <glyph glyph-name="Otilde" unicode="&#xd5;" horiz-adv-x="677" 
d="M633 125v453l-146 122h-297l-146 -122v-453l151 -125h286q38 31 76 62.5t76 62.5zM400 527l27 -21v-311l-28 -23h-121l-28 23v311l27 21h123zM482 865q-23 0 -42 7.5t-37.5 16.5t-38.5 16.5t-46 7.5q-42 0 -75.5 -21t-55.5 -55l40 -57q23 26 42.5 39.5t45.5 13.5
q20 0 38.5 -7.5t37.5 -16.5t40 -16.5t47 -7.5q40 0 73.5 20.5t56.5 55.5l-40 57q-22 -25 -42 -39t-44 -14z" />
    <glyph glyph-name="Odieresis" unicode="&#xd6;" horiz-adv-x="677" 
d="M633 125v453l-146 122h-297l-146 -122v-453l151 -125h286q38 31 76 62.5t76 62.5zM400 527l27 -21v-311l-28 -23h-121l-28 23v311l27 21h123zM540 767v138h-159v-138h159zM296 767v138h-160v-138h160z" />
    <glyph glyph-name="multiply" unicode="&#xd7;" horiz-adv-x="474" 
d="M430 225l-121 121l120 120l-72 72l-120 -120l-121 120l-72 -72l121 -120l-121 -120l72 -72l121 120l121 -121z" />
    <glyph glyph-name="Oslash" unicode="&#xd8;" horiz-adv-x="677" 
d="M81 -19l56 67l58 -48h286q38 31 76 62.5t76 62.5v453l-30 25l50 60l-67 56l-50 -60l-49 41h-297l-146 -122v-453l26 -22l-56 -66zM399 172h-121l-22 18l171 203v-198zM400 527l15 -12l-165 -197v188l27 21h123z" />
    <glyph glyph-name="Ugrave" unicode="&#xd9;" horiz-adv-x="767" 
d="M748 547v153h-323v-153l45 -20v-332l-26 -23h-116l-27 23v332l46 20v153h-329v-153l76 -20v-418l132 -109h315l131 109v418zM520 775l20 67l-294 112l-30 -107z" />
    <glyph glyph-name="Uacute" unicode="&#xda;" horiz-adv-x="767" 
d="M748 547v153h-323v-153l45 -20v-332l-26 -23h-116l-27 23v332l46 20v153h-329v-153l76 -20v-418l132 -109h315l131 109v418zM550 847l-30 107l-294 -112l20 -67z" />
    <glyph glyph-name="Ucircumflex" unicode="&#xdb;" horiz-adv-x="767" 
d="M748 547v153h-323v-153l45 -20v-332l-26 -23h-116l-27 23v332l46 20v153h-329v-153l76 -20v-418l132 -109h315l131 109v418zM572 770l-142 150h-91l-145 -150h128l63 91l59 -91h128z" />
    <glyph glyph-name="Udieresis" unicode="&#xdc;" horiz-adv-x="767" 
d="M748 547v153h-323v-153l45 -20v-332l-26 -23h-116l-27 23v332l46 20v153h-329v-153l76 -20v-418l132 -109h315l131 109v418zM585 767v138h-159v-138h159zM341 767v138h-160v-138h160z" />
    <glyph glyph-name="Yacute" unicode="&#xdd;" horiz-adv-x="708" 
d="M690 547v153h-277v-153l42 -20l-78 -117l-77 117l41 20v153h-323v-153l61 -20l171 -228v-127l-86 -20v-152h378v152l-85 20v128l169 227zM521 847l-30 107l-294 -112l20 -67z" />
    <glyph glyph-name="Thorn" unicode="&#xde;" horiz-adv-x="731" 
d="M120 529v-357l-76 -20v-152h283v151h231l145 121v196l-145 122h-231v111h-283v-152zM470 417l26 -21v-70l-26 -22h-143v113h143z" />
    <glyph glyph-name="germandbls" unicode="&#xdf;" horiz-adv-x="744" 
d="M185 0l142 118v409h139l24 -20v-66l-24 -20h-89v-122h91l24 -20v-86l-26 -21h-89v-172h179l142 118v188l-70 58l66 54v168l-136 114h-297l-136 -114v-59h-81v-153l76 -20v-182l-76 -20v-152h141z" />
    <glyph glyph-name="agrave" unicode="&#xe0;" horiz-adv-x="726" 
d="M706 153l-76 20v413l-136 114h-306l-136 -114v-132h187l20 73h139l26 -20v-67l-263 -41l-117 -91v-190l143 -118h200l66 55l20 -55h233v153zM271 247l153 35v-89l-26 -21h-121l-25 21v37zM512 775l20 67l-294 112l-30 -107z" />
    <glyph glyph-name="aacute" unicode="&#xe1;" horiz-adv-x="726" 
d="M706 153l-76 20v413l-136 114h-306l-136 -114v-132h187l20 73h139l26 -20v-67l-263 -41l-117 -91v-190l143 -118h200l66 55l20 -55h233v153zM271 247l153 35v-89l-26 -21h-121l-25 21v37zM542 847l-30 107l-294 -112l20 -67z" />
    <glyph glyph-name="acircumflex" unicode="&#xe2;" horiz-adv-x="726" 
d="M706 153l-76 20v413l-136 114h-306l-136 -114v-132h187l20 73h139l26 -20v-67l-263 -41l-117 -91v-190l143 -118h200l66 55l20 -55h233v153zM271 247l153 35v-89l-26 -21h-121l-25 21v37zM564 770l-142 150h-91l-145 -150h128l63 91l59 -91h128z" />
    <glyph glyph-name="atilde" unicode="&#xe3;" horiz-adv-x="726" 
d="M706 153l-76 20v413l-136 114h-306l-136 -114v-132h187l20 73h139l26 -20v-67l-263 -41l-117 -91v-190l143 -118h200l66 55l20 -55h233v153zM271 247l153 35v-89l-26 -21h-121l-25 21v37zM519 865q-23 0 -42 7.5t-37.5 16.5t-38.5 16.5t-46 7.5q-42 0 -75.5 -21
t-55.5 -55l40 -57q23 26 42.5 39.5t45.5 13.5q20 0 38.5 -7.5t37.5 -16.5t40 -16.5t47 -7.5q40 0 73.5 20.5t56.5 55.5l-40 57q-22 -25 -42 -39t-44 -14z" />
    <glyph glyph-name="adieresis" unicode="&#xe4;" horiz-adv-x="726" 
d="M706 153l-76 20v413l-136 114h-306l-136 -114v-132h187l20 73h139l26 -20v-67l-263 -41l-117 -91v-190l143 -118h200l66 55l20 -55h233v153zM271 247l153 35v-89l-26 -21h-121l-25 21v37zM538 767v138h-159v-138h159zM294 767v138h-160v-138h160z" />
    <glyph glyph-name="aring" unicode="&#xe5;" horiz-adv-x="726" 
d="M706 153l-76 20v413l-136 114h-306l-136 -114v-132h187l20 73h139l26 -20v-67l-263 -41l-117 -91v-190l143 -118h200l66 55l20 -55h233v153zM271 247l153 35v-89l-26 -21h-121l-25 21v37zM275 848q0 -38 29 -64t71 -26t71 26t29 64q0 18 -8 34.5t-21.5 29t-31.5 19.5
t-39 7t-39 -7t-31.5 -19.5t-21.5 -29t-8 -34.5zM335 848q0 12 11.5 21t28.5 9t28.5 -9t11.5 -21q0 -13 -11.5 -21.5t-28.5 -8.5t-28.5 8.5t-11.5 21.5z" />
    <glyph glyph-name="ae" unicode="&#xe6;" horiz-adv-x="1054" 
d="M1002 236h-207v-43l-24 -20h-115l-26 20v41l22 17l241 40l117 91v200l-143 118h-301l-36 -30l-36 30h-306l-136 -114v-122h207v43l24 20h115l26 -20v-41l-22 -17l-241 -40l-117 -91v-200l143 -118h200l66 55l20 -55h393l136 114v122zM271 257l153 25v-89l-26 -21h-121
l-25 21v47zM783 443l-153 -25v89l26 21h121l25 -21v-47z" />
    <glyph glyph-name="ccedilla" unicode="&#xe7;" horiz-adv-x="670" 
d="M498 -126l-88 72h-57v54h129q35 29 71 58.5t71 59.5v127h-187l-20 -73h-137l-30 24v308l29 23h138l20 -73h187v132l-136 114h-289l-155 -129v-437l161 -134h87v-115h92l42 -32v-12l-42 -32h-132v-61h158l88 72v54z" />
    <glyph glyph-name="egrave" unicode="&#xe8;" horiz-adv-x="667" 
d="M624 245h-187l-20 -73h-145l-26 21v65l263 43l117 91v190l-143 118h-301l-142 -118v-468l136 -114h306l142 118v127zM399 453l-153 -25v79l26 21h121l25 -21v-37zM470 775l20 67l-294 112l-30 -107z" />
    <glyph glyph-name="eacute" unicode="&#xe9;" horiz-adv-x="667" 
d="M624 245h-187l-20 -73h-145l-26 21v65l263 43l117 91v190l-143 118h-301l-142 -118v-468l136 -114h306l142 118v127zM399 453l-153 -25v79l26 21h121l25 -21v-37zM500 847l-30 107l-294 -112l20 -67z" />
    <glyph glyph-name="ecircumflex" unicode="&#xea;" horiz-adv-x="667" 
d="M624 245h-187l-20 -73h-145l-26 21v65l263 43l117 91v190l-143 118h-301l-142 -118v-468l136 -114h306l142 118v127zM399 453l-153 -25v79l26 21h121l25 -21v-37zM522 770l-142 150h-91l-145 -150h128l63 91l59 -91h128z" />
    <glyph glyph-name="edieresis" unicode="&#xeb;" horiz-adv-x="667" 
d="M624 245h-187l-20 -73h-145l-26 21v65l263 43l117 91v190l-143 118h-301l-142 -118v-468l136 -114h306l142 118v127zM399 453l-153 -25v79l26 21h121l25 -21v-37zM535 767v138h-159v-138h159zM291 767v138h-160v-138h160z" />
    <glyph glyph-name="igrave" unicode="&#xec;" horiz-adv-x="496" 
d="M426 547v153h-358v-153l76 -20v-355l-76 -20v-152h358v152l-76 20v355zM385 775l20 67l-294 112l-30 -107z" />
    <glyph glyph-name="iacute" unicode="&#xed;" horiz-adv-x="496" 
d="M426 547v153h-358v-153l76 -20v-355l-76 -20v-152h358v152l-76 20v355zM415 847l-30 107l-294 -112l20 -67z" />
    <glyph glyph-name="icircumflex" unicode="&#xee;" horiz-adv-x="496" 
d="M426 547v153h-358v-153l76 -20v-355l-76 -20v-152h358v152l-76 20v355zM437 770l-142 150h-91l-145 -150h128l63 91l59 -91h128z" />
    <glyph glyph-name="idieresis" unicode="&#xef;" horiz-adv-x="496" 
d="M426 547v153h-358v-153l76 -20v-355l-76 -20v-152h358v152l-76 20v355zM450 767v138h-159v-138h159zM206 767v138h-160v-138h160z" />
    <glyph glyph-name="eth" unicode="&#xf0;" horiz-adv-x="749" 
d="M705 150v405l-175 145h-486v-153l76 -20v-120h-76v-122h76v-113l-76 -20v-152h481zM386 285v122h-59v120h129l42 -35v-284l-44 -36h-127v113h59z" />
    <glyph glyph-name="ntilde" unicode="&#xf1;" 
d="M44 547l76 -20v-354l-76 -20v-153h328v153l-46 20v334l26 21h121l25 -21v-334l-46 -20v-153h330v153l-76 20v409l-143 118h-211l-66 -55l-20 55h-222v-153zM557 865q-23 0 -42 7.5t-37.5 16.5t-38.5 16.5t-46 7.5q-42 0 -75.5 -21t-55.5 -55l40 -57q23 26 42.5 39.5
t45.5 13.5q20 0 38.5 -7.5t37.5 -16.5t40 -16.5t47 -7.5q40 0 73.5 20.5t56.5 55.5l-40 57q-22 -25 -42 -39t-44 -14z" />
    <glyph glyph-name="ograve" unicode="&#xf2;" horiz-adv-x="677" 
d="M633 125v453l-146 122h-297l-146 -122v-453l151 -125h286q38 31 76 62.5t76 62.5zM400 527l27 -21v-311l-28 -23h-121l-28 23v311l27 21h123zM475 775l20 67l-294 112l-30 -107z" />
    <glyph glyph-name="oacute" unicode="&#xf3;" horiz-adv-x="677" 
d="M633 125v453l-146 122h-297l-146 -122v-453l151 -125h286q38 31 76 62.5t76 62.5zM400 527l27 -21v-311l-28 -23h-121l-28 23v311l27 21h123zM505 847l-30 107l-294 -112l20 -67z" />
    <glyph glyph-name="ocircumflex" unicode="&#xf4;" horiz-adv-x="677" 
d="M633 125v453l-146 122h-297l-146 -122v-453l151 -125h286q38 31 76 62.5t76 62.5zM400 527l27 -21v-311l-28 -23h-121l-28 23v311l27 21h123zM527 770l-142 150h-91l-145 -150h128l63 91l59 -91h128z" />
    <glyph glyph-name="otilde" unicode="&#xf5;" horiz-adv-x="677" 
d="M633 125v453l-146 122h-297l-146 -122v-453l151 -125h286q38 31 76 62.5t76 62.5zM400 527l27 -21v-311l-28 -23h-121l-28 23v311l27 21h123zM482 865q-23 0 -42 7.5t-37.5 16.5t-38.5 16.5t-46 7.5q-42 0 -75.5 -21t-55.5 -55l40 -57q23 26 42.5 39.5t45.5 13.5
q20 0 38.5 -7.5t37.5 -16.5t40 -16.5t47 -7.5q40 0 73.5 20.5t56.5 55.5l-40 57q-22 -25 -42 -39t-44 -14z" />
    <glyph glyph-name="odieresis" unicode="&#xf6;" horiz-adv-x="677" 
d="M633 125v453l-146 122h-297l-146 -122v-453l151 -125h286q38 31 76 62.5t76 62.5zM400 527l27 -21v-311l-28 -23h-121l-28 23v311l27 21h123zM540 767v138h-159v-138h159zM296 767v138h-160v-138h160z" />
    <glyph glyph-name="oslash" unicode="&#xf8;" horiz-adv-x="677" 
d="M81 -19l56 67l58 -48h286q38 31 76 62.5t76 62.5v453l-30 25l50 60l-67 56l-50 -60l-49 41h-297l-146 -122v-453l26 -22l-56 -66zM399 172h-121l-22 18l171 203v-198zM400 527l15 -12l-165 -197v188l27 21h123z" />
    <glyph glyph-name="ugrave" unicode="&#xf9;" 
d="M782 153l-76 20v354l76 20v153h-328v-153l46 -20v-334l-26 -21h-121l-25 21v334l46 20v153h-330v-153l76 -20v-409l143 -118h211l66 55l20 -55h222v153zM550 775l20 67l-294 112l-30 -107z" />
    <glyph glyph-name="uacute" unicode="&#xfa;" 
d="M782 153l-76 20v354l76 20v153h-328v-153l46 -20v-334l-26 -21h-121l-25 21v334l46 20v153h-330v-153l76 -20v-409l143 -118h211l66 55l20 -55h222v153zM580 847l-30 107l-294 -112l20 -67z" />
    <glyph glyph-name="ucircumflex" unicode="&#xfb;" 
d="M782 153l-76 20v354l76 20v153h-328v-153l46 -20v-334l-26 -21h-121l-25 21v334l46 20v153h-330v-153l76 -20v-409l143 -118h211l66 55l20 -55h222v153zM602 770l-142 150h-91l-145 -150h128l63 91l59 -91h128z" />
    <glyph glyph-name="udieresis" unicode="&#xfc;" 
d="M782 153l-76 20v354l76 20v153h-328v-153l46 -20v-334l-26 -21h-121l-25 21v334l46 20v153h-330v-153l76 -20v-409l143 -118h211l66 55l20 -55h222v153zM615 767v138h-159v-138h159zM371 767v138h-160v-138h160z" />
    <glyph glyph-name="yacute" unicode="&#xfd;" 
d="M120 408l143 -118h236v-94l-30 -24h-132l-20 73h-186v-127l142 -118h272l161 134v393l76 20v153h-328v-153l46 -20v-85h-147l-25 21v64l46 20v153h-330v-153l76 -20v-119zM580 847l-30 107l-294 -112l20 -67z" />
    <glyph glyph-name="thorn" unicode="&#xfe;" horiz-adv-x="731" 
d="M120 529v-357l-76 -20v-152h283v151h231l145 121v196l-145 122h-231v111h-283v-152zM470 417l26 -21v-70l-26 -22h-143v113h143z" />
    <glyph glyph-name="ydieresis" unicode="&#xff;" 
d="M120 408l143 -118h236v-94l-30 -24h-132l-20 73h-186v-127l142 -118h272l161 134v393l76 20v153h-328v-153l46 -20v-85h-147l-25 21v64l46 20v153h-330v-153l76 -20v-119zM615 767v138h-159v-138h159zM371 767v138h-160v-138h160z" />
    <glyph glyph-name="Amacron" unicode="&#x100;" horiz-adv-x="775" 
d="M671 172l-135 528h-404v-153l65 -20l-102 -355l-77 -20v-152h300v152l-49 20l17 62h151l18 -62l-53 -20v-152h355v152zM359 511l45 -157h-89zM538 887h-302v-87h302v87z" />
    <glyph glyph-name="amacron" unicode="&#x101;" horiz-adv-x="726" 
d="M706 153l-76 20v413l-136 114h-306l-136 -114v-132h187l20 73h139l26 -20v-67l-263 -41l-117 -91v-190l143 -118h200l66 55l20 -55h233v153zM271 247l153 35v-89l-26 -21h-121l-25 21v37zM514 887h-302v-87h302v87z" />
    <glyph glyph-name="Abreve" unicode="&#x102;" horiz-adv-x="775" 
d="M671 172l-135 528h-404v-153l65 -20l-102 -355l-77 -20v-152h300v152l-49 20l17 62h151l18 -62l-53 -20v-152h355v152zM359 511l45 -157h-89zM564 920h-84q0 -33 -23.5 -60t-70.5 -27q-46 0 -71 27t-25 60h-80q0 -26 12 -52.5t34.5 -47.5t55 -34t74.5 -13t75 13t56 34
t35 47.5t12 52.5z" />
    <glyph glyph-name="abreve" unicode="&#x103;" horiz-adv-x="726" 
d="M706 153l-76 20v413l-136 114h-306l-136 -114v-132h187l20 73h139l26 -20v-67l-263 -41l-117 -91v-190l143 -118h200l66 55l20 -55h233v153zM271 247l153 35v-89l-26 -21h-121l-25 21v37zM552 920h-84q0 -33 -23.5 -60t-70.5 -27q-46 0 -71 27t-25 60h-80q0 -26 12 -52.5
t34.5 -47.5t55 -34t74.5 -13t75 13t56 34t35 47.5t12 52.5z" />
    <glyph glyph-name="Aogonek" unicode="&#x104;" horiz-adv-x="775" 
d="M680 -65l77 65v152l-86 20l-135 528h-404v-153l65 -20l-102 -355l-77 -20v-152h300v152l-49 20l17 62h151l18 -62l-53 -20v-152h246l-64 -54v-114l62 -57h138v85h-86l-18 15v60zM359 511l45 -157h-89z" />
    <glyph glyph-name="aogonek" unicode="&#x105;" horiz-adv-x="754" 
d="M630 -65l77 65h-1v153l-76 20v413l-136 114h-306l-136 -114v-132h187l20 73h139l26 -20v-67l-263 -41l-117 -91v-190l143 -118h200l66 55l20 -55h125l-64 -54v-114l62 -57h138v85h-86l-18 15v60zM271 247l153 35v-89l-26 -21h-121l-25 21v37z" />
    <glyph glyph-name="Cacute" unicode="&#x106;" horiz-adv-x="670" 
d="M624 586l-136 114h-289l-155 -129v-437l161 -134h277q35 29 71 58.5t71 59.5v127h-187l-20 -73h-137l-30 24v308l29 23h138l20 -73h187v132zM497 847l-30 107l-294 -112l20 -67z" />
    <glyph glyph-name="cacute" unicode="&#x107;" horiz-adv-x="670" 
d="M624 586l-136 114h-289l-155 -129v-437l161 -134h277q35 29 71 58.5t71 59.5v127h-187l-20 -73h-137l-30 24v308l29 23h138l20 -73h187v132zM497 847l-30 107l-294 -112l20 -67z" />
    <glyph glyph-name="Ccircumflex" unicode="&#x108;" horiz-adv-x="670" 
d="M624 586l-136 114h-289l-155 -129v-437l161 -134h277q35 29 71 58.5t71 59.5v127h-187l-20 -73h-137l-30 24v308l29 23h138l20 -73h187v132zM524 770l-142 150h-91l-145 -150h128l63 91l59 -91h128z" />
    <glyph glyph-name="ccircumflex" unicode="&#x109;" horiz-adv-x="670" 
d="M624 586l-136 114h-289l-155 -129v-437l161 -134h277q35 29 71 58.5t71 59.5v127h-187l-20 -73h-137l-30 24v308l29 23h138l20 -73h187v132zM524 770l-142 150h-91l-145 -150h128l63 91l59 -91h128z" />
    <glyph glyph-name="Cdotaccent" unicode="&#x10a;" horiz-adv-x="670" 
d="M624 586l-136 114h-289l-155 -129v-437l161 -134h277q35 29 71 58.5t71 59.5v127h-187l-20 -73h-137l-30 24v308l29 23h138l20 -73h187v132zM405 787v118h-140v-118h140z" />
    <glyph glyph-name="cdotaccent" unicode="&#x10b;" horiz-adv-x="670" 
d="M624 586l-136 114h-289l-155 -129v-437l161 -134h277q35 29 71 58.5t71 59.5v127h-187l-20 -73h-137l-30 24v308l29 23h138l20 -73h187v132zM405 787v118h-140v-118h140z" />
    <glyph glyph-name="Ccaron" unicode="&#x10c;" horiz-adv-x="670" 
d="M624 586l-136 114h-289l-155 -129v-437l161 -134h277q35 29 71 58.5t71 59.5v127h-187l-20 -73h-137l-30 24v308l29 23h138l20 -73h187v132zM380 770l144 150h-128l-62 -92l-60 92h-128l143 -150h91z" />
    <glyph glyph-name="ccaron" unicode="&#x10d;" horiz-adv-x="670" 
d="M624 586l-136 114h-289l-155 -129v-437l161 -134h277q35 29 71 58.5t71 59.5v127h-187l-20 -73h-137l-30 24v308l29 23h138l20 -73h187v132zM380 770l144 150h-128l-62 -92l-60 92h-128l143 -150h91z" />
    <glyph glyph-name="Dcaron" unicode="&#x10e;" horiz-adv-x="749" 
d="M705 150v405l-175 145h-486v-153l76 -20v-355l-76 -20v-152h481zM327 527h129l42 -35v-284l-44 -36h-127v355zM419 770l144 150h-128l-62 -92l-60 92h-128l143 -150h91z" />
    <glyph glyph-name="dcaron" unicode="&#x10f;" horiz-adv-x="749" 
d="M705 150v405l-175 145h-486v-153l76 -20v-355l-76 -20v-152h481zM327 527h129l42 -35v-284l-44 -36h-127v355zM419 770l144 150h-128l-62 -92l-60 92h-128l143 -150h91z" />
    <glyph glyph-name="Dcroat" unicode="&#x110;" horiz-adv-x="749" 
d="M705 150v405l-175 145h-486v-153l76 -20v-120h-76v-122h76v-113l-76 -20v-152h481zM386 285v122h-59v120h129l42 -35v-284l-44 -36h-127v113h59z" />
    <glyph glyph-name="dcroat" unicode="&#x111;" horiz-adv-x="749" 
d="M705 150v405l-175 145h-486v-153l76 -20v-120h-76v-122h76v-113l-76 -20v-152h481zM386 285v122h-59v120h129l42 -35v-284l-44 -36h-127v113h59z" />
    <glyph glyph-name="Emacron" unicode="&#x112;" horiz-adv-x="705" 
d="M661 454v246h-617v-153l76 -20v-355l-76 -20v-152h618v245h-148l-20 -73h-168v122h168v120h-168v113h168l20 -73h147zM503 887h-302v-87h302v87z" />
    <glyph glyph-name="emacron" unicode="&#x113;" horiz-adv-x="667" 
d="M624 245h-187l-20 -73h-145l-26 21v65l263 43l117 91v190l-143 118h-301l-142 -118v-468l136 -114h306l142 118v127zM399 453l-153 -25v79l26 21h121l25 -21v-37zM484 887h-302v-87h302v87z" />
    <glyph glyph-name="Ebreve" unicode="&#x114;" horiz-adv-x="705" 
d="M661 454v246h-617v-153l76 -20v-355l-76 -20v-152h618v245h-148l-20 -73h-168v122h168v120h-168v113h168l20 -73h147zM529 920h-84q0 -33 -23.5 -60t-70.5 -27q-46 0 -71 27t-25 60h-80q0 -26 12 -52.5t34.5 -47.5t55 -34t74.5 -13t75 13t56 34t35 47.5t12 52.5z" />
    <glyph glyph-name="ebreve" unicode="&#x115;" horiz-adv-x="667" 
d="M624 245h-187l-20 -73h-145l-26 21v65l263 43l117 91v190l-143 118h-301l-142 -118v-468l136 -114h306l142 118v127zM399 453l-153 -25v79l26 21h121l25 -21v-37zM510 920h-84q0 -33 -23.5 -60t-70.5 -27q-46 0 -71 27t-25 60h-80q0 -26 12 -52.5t34.5 -47.5t55 -34
t74.5 -13t75 13t56 34t35 47.5t12 52.5z" />
    <glyph glyph-name="Edotaccent" unicode="&#x116;" horiz-adv-x="705" 
d="M661 454v246h-617v-153l76 -20v-355l-76 -20v-152h618v245h-148l-20 -73h-168v122h168v120h-168v113h168l20 -73h147zM422 787v118h-140v-118h140z" />
    <glyph glyph-name="edotaccent" unicode="&#x117;" horiz-adv-x="667" 
d="M624 245h-187l-20 -73h-145l-26 21v65l263 43l117 91v190l-143 118h-301l-142 -118v-468l136 -114h306l142 118v127zM399 453l-153 -25v79l26 21h121l25 -21v-37zM403 787v118h-140v-118h140z" />
    <glyph glyph-name="Eogonek" unicode="&#x118;" horiz-adv-x="705" 
d="M585 -65l77 65v245h-148l-20 -73h-168v122h168v120h-168v113h168l20 -73h147v246h-617v-153l76 -20v-355l-76 -20v-152h509l-64 -54v-114l62 -57h138v85h-86l-18 15v60z" />
    <glyph glyph-name="eogonek" unicode="&#x119;" horiz-adv-x="667" 
d="M404 -65l77 65h1l142 118v127h-187l-20 -73h-145l-26 21v65l263 43l117 91v190l-143 118h-301l-142 -118v-468l136 -114h196l-64 -54v-114l62 -57h138v85h-86l-18 15v60zM399 453l-153 -25v79l26 21h121l25 -21v-37z" />
    <glyph glyph-name="Ecaron" unicode="&#x11a;" horiz-adv-x="705" 
d="M661 454v246h-617v-153l76 -20v-355l-76 -20v-152h618v245h-148l-20 -73h-168v122h168v120h-168v113h168l20 -73h147zM397 770l144 150h-128l-62 -92l-60 92h-128l143 -150h91z" />
    <glyph glyph-name="ecaron" unicode="&#x11b;" horiz-adv-x="667" 
d="M624 245h-187l-20 -73h-145l-26 21v65l263 43l117 91v190l-143 118h-301l-142 -118v-468l136 -114h306l142 118v127zM399 453l-153 -25v79l26 21h121l25 -21v-37zM378 770l144 150h-128l-62 -92l-60 92h-128l143 -150h91z" />
    <glyph glyph-name="Gcircumflex" unicode="&#x11c;" horiz-adv-x="674" 
d="M633 454v132l-137 114h-297l-155 -129v-437l161 -134h185l66 55l20 -55h157v414h-300v-120h94v-96l-31 -26h-116l-30 24v308l29 23h148l20 -73h186zM526 770l-142 150h-91l-145 -150h128l63 91l59 -91h128z" />
    <glyph glyph-name="gcircumflex" unicode="&#x11d;" horiz-adv-x="674" 
d="M633 454v132l-137 114h-297l-155 -129v-437l161 -134h185l66 55l20 -55h157v414h-300v-120h94v-96l-31 -26h-116l-30 24v308l29 23h148l20 -73h186zM526 770l-142 150h-91l-145 -150h128l63 91l59 -91h128z" />
    <glyph glyph-name="Gbreve" unicode="&#x11e;" horiz-adv-x="674" 
d="M633 454v132l-137 114h-297l-155 -129v-437l161 -134h185l66 55l20 -55h157v414h-300v-120h94v-96l-31 -26h-116l-30 24v308l29 23h148l20 -73h186zM514 920h-84q0 -33 -23.5 -60t-70.5 -27q-46 0 -71 27t-25 60h-80q0 -26 12 -52.5t34.5 -47.5t55 -34t74.5 -13t75 13
t56 34t35 47.5t12 52.5z" />
    <glyph glyph-name="gbreve" unicode="&#x11f;" horiz-adv-x="674" 
d="M633 454v132l-137 114h-297l-155 -129v-437l161 -134h185l66 55l20 -55h157v414h-300v-120h94v-96l-31 -26h-116l-30 24v308l29 23h148l20 -73h186zM514 920h-84q0 -33 -23.5 -60t-70.5 -27q-46 0 -71 27t-25 60h-80q0 -26 12 -52.5t34.5 -47.5t55 -34t74.5 -13t75 13
t56 34t35 47.5t12 52.5z" />
    <glyph glyph-name="Gdotaccent" unicode="&#x120;" horiz-adv-x="674" 
d="M633 454v132l-137 114h-297l-155 -129v-437l161 -134h185l66 55l20 -55h157v414h-300v-120h94v-96l-31 -26h-116l-30 24v308l29 23h148l20 -73h186zM407 787v118h-140v-118h140z" />
    <glyph glyph-name="gdotaccent" unicode="&#x121;" horiz-adv-x="674" 
d="M633 454v132l-137 114h-297l-155 -129v-437l161 -134h185l66 55l20 -55h157v414h-300v-120h94v-96l-31 -26h-116l-30 24v308l29 23h148l20 -73h186zM407 787v118h-140v-118h140z" />
    <glyph glyph-name="uni0122" unicode="&#x122;" horiz-adv-x="674" 
d="M633 454v132l-137 114h-297l-155 -129v-437l161 -134h185l66 55l20 -55h157v414h-300v-120h94v-96l-31 -26h-116l-30 24v308l29 23h148l20 -73h186zM409 -95v53h-122v-42l-22 -80l70 -9z" />
    <glyph glyph-name="uni0123" unicode="&#x123;" horiz-adv-x="674" 
d="M633 454v132l-137 114h-297l-155 -129v-437l161 -134h185l66 55l20 -55h157v414h-300v-120h94v-96l-31 -26h-116l-30 24v308l29 23h148l20 -73h186zM409 -95v53h-122v-42l-22 -80l70 -9z" />
    <glyph glyph-name="Hcircumflex" unicode="&#x124;" 
d="M780 547v153h-329v-153l45 -20v-113h-169v113l46 20v153h-329v-153l76 -20v-355l-76 -20v-152h329v152l-46 20v122h169v-122l-45 -20v-152h329v152l-76 20v355zM602 770l-142 150h-91l-145 -150h128l63 91l59 -91h128z" />
    <glyph glyph-name="hcircumflex" unicode="&#x125;" 
d="M780 547v153h-329v-153l45 -20v-113h-169v113l46 20v153h-329v-153l76 -20v-355l-76 -20v-152h329v152l-46 20v122h169v-122l-45 -20v-152h329v152l-76 20v355zM602 770l-142 150h-91l-145 -150h128l63 91l59 -91h128z" />
    <glyph glyph-name="Hbar" unicode="&#x126;" 
d="M780 547v153h-329v-153l45 -20v-113h-169v113l46 20v153h-329v-153l76 -20v-37h-60v-105h60v-213l-76 -20v-152h329v152l-46 20v122h169v-122l-45 -20v-152h329v152l-76 20v213h62v105h-62v37z" />
    <glyph glyph-name="hbar" unicode="&#x127;" 
d="M780 547v153h-329v-153l45 -20v-113h-169v113l46 20v153h-329v-153l76 -20v-37h-60v-105h60v-213l-76 -20v-152h329v152l-46 20v122h169v-122l-45 -20v-152h329v152l-76 20v213h62v105h-62v37z" />
    <glyph glyph-name="Itilde" unicode="&#x128;" horiz-adv-x="496" 
d="M426 547v153h-358v-153l76 -20v-355l-76 -20v-152h358v152l-76 20v355zM333 865q-23 0 -42 7.5t-37.5 16.5t-38.5 16.5t-46 7.5q-42 0 -75.5 -21t-55.5 -55l40 -57q23 26 42.5 39.5t45.5 13.5q20 0 38.5 -7.5t37.5 -16.5t40 -16.5t47 -7.5q40 0 73.5 20.5t56.5 55.5
l-40 57q-22 -25 -42 -39t-44 -14z" />
    <glyph glyph-name="itilde" unicode="&#x129;" horiz-adv-x="496" 
d="M426 547v153h-358v-153l76 -20v-355l-76 -20v-152h358v152l-76 20v355zM333 865q-23 0 -42 7.5t-37.5 16.5t-38.5 16.5t-46 7.5q-42 0 -75.5 -21t-55.5 -55l40 -57q23 26 42.5 39.5t45.5 13.5q20 0 38.5 -7.5t37.5 -16.5t40 -16.5t47 -7.5q40 0 73.5 20.5t56.5 55.5
l-40 57q-22 -25 -42 -39t-44 -14z" />
    <glyph glyph-name="Imacron" unicode="&#x12a;" horiz-adv-x="496" 
d="M426 547v153h-358v-153l76 -20v-355l-76 -20v-152h358v152l-76 20v355zM399 887h-302v-87h302v87z" />
    <glyph glyph-name="imacron" unicode="&#x12b;" horiz-adv-x="496" 
d="M426 547v153h-358v-153l76 -20v-355l-76 -20v-152h358v152l-76 20v355zM399 887h-302v-87h302v87z" />
    <glyph glyph-name="Ibreve" unicode="&#x12c;" horiz-adv-x="496" 
d="M426 547v153h-358v-153l76 -20v-355l-76 -20v-152h358v152l-76 20v355zM425 920h-84q0 -33 -23.5 -60t-70.5 -27q-46 0 -71 27t-25 60h-80q0 -26 12 -52.5t34.5 -47.5t55 -34t74.5 -13t75 13t56 34t35 47.5t12 52.5z" />
    <glyph glyph-name="ibreve" unicode="&#x12d;" horiz-adv-x="496" 
d="M426 547v153h-358v-153l76 -20v-355l-76 -20v-152h358v152l-76 20v355zM425 920h-84q0 -33 -23.5 -60t-70.5 -27q-46 0 -71 27t-25 60h-80q0 -26 12 -52.5t34.5 -47.5t55 -34t74.5 -13t75 13t56 34t35 47.5t12 52.5z" />
    <glyph glyph-name="Iogonek" unicode="&#x12e;" horiz-adv-x="496" 
d="M349 -65l77 65v152l-76 20v355l76 20v153h-358v-153l76 -20v-355l-76 -20v-152h249l-64 -54v-114l62 -57h138v85h-86l-18 15v60z" />
    <glyph glyph-name="iogonek" unicode="&#x12f;" horiz-adv-x="496" 
d="M349 -65l77 65v152l-76 20v355l76 20v153h-358v-153l76 -20v-355l-76 -20v-152h249l-64 -54v-114l62 -57h138v85h-86l-18 15v60z" />
    <glyph glyph-name="Idotaccent" unicode="&#x130;" horiz-adv-x="496" 
d="M426 547v153h-358v-153l76 -20v-355l-76 -20v-152h358v152l-76 20v355zM318 787v118h-140v-118h140z" />
    <glyph glyph-name="dotlessi" unicode="&#x131;" horiz-adv-x="496" 
d="M426 547v153h-358v-153l76 -20v-355l-76 -20v-152h358v152l-76 20v355z" />
    <glyph glyph-name="IJ" unicode="&#x132;" horiz-adv-x="1202" 
d="M426 547v153h-358v-153l76 -20v-355l-76 -20v-152h358v152l-76 20v355zM1190 547v153h-387v-153l105 -20v-331l-30 -24h-132l-20 73h-186v-127l142 -118h272l161 134v393z" />
    <glyph glyph-name="ij" unicode="&#x133;" horiz-adv-x="1202" 
d="M426 547v153h-358v-153l76 -20v-355l-76 -20v-152h358v152l-76 20v355zM1190 547v153h-387v-153l105 -20v-331l-30 -24h-132l-20 73h-186v-127l142 -118h272l161 134v393z" />
    <glyph glyph-name="Jcircumflex" unicode="&#x134;" horiz-adv-x="706" 
d="M694 547v153h-387v-153l105 -20v-331l-30 -24h-132l-20 73h-186v-127l142 -118h272l161 134v393zM707 770l-142 150h-91l-145 -150h128l63 91l59 -91h128z" />
    <glyph glyph-name="jcircumflex" unicode="&#x135;" horiz-adv-x="706" 
d="M694 547v153h-387v-153l105 -20v-331l-30 -24h-132l-20 73h-186v-127l142 -118h272l161 134v393zM707 770l-142 150h-91l-145 -150h128l63 91l59 -91h128z" />
    <glyph glyph-name="uni0136" unicode="&#x136;" horiz-adv-x="803" 
d="M775 547v153h-334v-153l49 -20l-156 -136v136l48 20v153h-338v-153l76 -20v-355l-76 -20v-152h340v152l-50 20v73l80 67l78 -140l-50 -20v-152h333v152l-71 20l-139 261l113 94zM473 -95v53h-122v-42l-22 -80l70 -9z" />
    <glyph glyph-name="uni0137" unicode="&#x137;" horiz-adv-x="803" 
d="M775 547v153h-334v-153l49 -20l-156 -136v136l48 20v153h-338v-153l76 -20v-355l-76 -20v-152h340v152l-50 20v73l80 67l78 -140l-50 -20v-152h333v152l-71 20l-139 261l113 94zM473 -95v53h-122v-42l-22 -80l70 -9z" />
    <glyph glyph-name="kgreenlandic" unicode="&#x138;" horiz-adv-x="803" 
d="M775 547v153h-334v-153l49 -20l-156 -136v136l48 20v153h-338v-153l76 -20v-355l-76 -20v-152h340v152l-50 20v73l80 67l78 -140l-50 -20v-152h333v152l-71 20l-139 261l113 94z" />
    <glyph glyph-name="Lacute" unicode="&#x139;" horiz-adv-x="678" 
d="M412 547v153h-368v-153l76 -20v-355l-76 -20v-152h617v267h-148l-20 -95h-166v355zM501 847l-30 107l-294 -112l20 -67z" />
    <glyph glyph-name="lacute" unicode="&#x13a;" horiz-adv-x="678" 
d="M412 547v153h-368v-153l76 -20v-355l-76 -20v-152h617v267h-148l-20 -95h-166v355zM501 847l-30 107l-294 -112l20 -67z" />
    <glyph glyph-name="uni013B" unicode="&#x13b;" horiz-adv-x="678" 
d="M412 547v153h-368v-153l76 -20v-355l-76 -20v-152h617v267h-148l-20 -95h-166v355zM411 -95v53h-122v-42l-22 -80l70 -9z" />
    <glyph glyph-name="uni013C" unicode="&#x13c;" horiz-adv-x="678" 
d="M412 547v153h-368v-153l76 -20v-355l-76 -20v-152h617v267h-148l-20 -95h-166v355zM411 -95v53h-122v-42l-22 -80l70 -9z" />
    <glyph glyph-name="Lcaron" unicode="&#x13d;" horiz-adv-x="678" 
d="M412 547v153h-368v-153l76 -20v-355l-76 -20v-152h617v267h-148l-20 -95h-166v355zM640 606v114h-132v-86l-42 -172l53 -25z" />
    <glyph glyph-name="lcaron" unicode="&#x13e;" horiz-adv-x="678" 
d="M412 547v153h-368v-153l76 -20v-355l-76 -20v-152h617v267h-148l-20 -95h-166v355zM638 606v114h-132v-86l-42 -172l53 -25z" />
    <glyph glyph-name="Ldot" unicode="&#x13f;" horiz-adv-x="678" 
d="M412 547v153h-368v-153l76 -20v-355l-76 -20v-152h617v267h-148l-20 -95h-166v355zM550 340v118h-140v-118h140z" />
    <glyph glyph-name="ldot" unicode="&#x140;" horiz-adv-x="678" 
d="M412 547v153h-368v-153l76 -20v-355l-76 -20v-152h617v267h-148l-20 -95h-166v355zM550 340v118h-140v-118h140z" />
    <glyph glyph-name="Lslash" unicode="&#x141;" horiz-adv-x="678" 
d="M595 402l-27 102l-241 -65v88l85 20v153h-368v-153l76 -20v-143l-137 -37l27 -102l110 29v-102l-76 -20v-152h617v267h-148l-20 -95h-166v158z" />
    <glyph glyph-name="lslash" unicode="&#x142;" horiz-adv-x="678" 
d="M595 402l-27 102l-241 -65v88l85 20v153h-368v-153l76 -20v-143l-137 -37l27 -102l110 29v-102l-76 -20v-152h617v267h-148l-20 -95h-166v158z" />
    <glyph glyph-name="Nacute" unicode="&#x143;" horiz-adv-x="821" 
d="M476 700v-153l76 -20v-201l-208 374h-300v-153l76 -20v-355l-76 -20v-152h327v152l-76 20v218l231 -390h202v527l76 20v153h-328zM572 847l-30 107l-294 -112l20 -67z" />
    <glyph glyph-name="nacute" unicode="&#x144;" 
d="M44 547l76 -20v-354l-76 -20v-153h328v153l-46 20v334l26 21h121l25 -21v-334l-46 -20v-153h330v153l-76 20v409l-143 118h-211l-66 -55l-20 55h-222v-153zM575 847l-30 107l-294 -112l20 -67z" />
    <glyph glyph-name="uni0145" unicode="&#x145;" horiz-adv-x="821" 
d="M476 700v-153l76 -20v-201l-208 374h-300v-153l76 -20v-355l-76 -20v-152h327v152l-76 20v218l231 -390h202v527l76 20v153h-328zM482 -95v53h-122v-42l-22 -80l70 -9z" />
    <glyph glyph-name="uni0146" unicode="&#x146;" 
d="M44 547l76 -20v-354l-76 -20v-153h328v153l-46 20v334l26 21h121l25 -21v-334l-46 -20v-153h330v153l-76 20v409l-143 118h-211l-66 -55l-20 55h-222v-153zM485 -95v53h-122v-42l-22 -80l70 -9z" />
    <glyph glyph-name="Ncaron" unicode="&#x147;" horiz-adv-x="821" 
d="M476 700v-153l76 -20v-201l-208 374h-300v-153l76 -20v-355l-76 -20v-152h327v152l-76 20v218l231 -390h202v527l76 20v153h-328zM455 770l144 150h-128l-62 -92l-60 92h-128l143 -150h91z" />
    <glyph glyph-name="ncaron" unicode="&#x148;" 
d="M44 547l76 -20v-354l-76 -20v-153h328v153l-46 20v334l26 21h121l25 -21v-334l-46 -20v-153h330v153l-76 20v409l-143 118h-211l-66 -55l-20 55h-222v-153zM458 770l144 150h-128l-62 -92l-60 92h-128l143 -150h91z" />
    <glyph glyph-name="napostrophe" unicode="&#x149;" 
d="M44 547l76 -20v-354l-76 -20v-153h328v153l-46 20v334l26 21h121l25 -21v-334l-46 -20v-153h330v153l-76 20v409l-143 118h-211l-66 -55l-20 55h-222v-153zM169 854v53h-122v-42l-22 -80l70 -9z" />
    <glyph glyph-name="Eng" unicode="&#x14a;" horiz-adv-x="821" 
d="M476 700v-153l76 -20v-201l-208 374h-300v-153l76 -20v-355l-76 -20v-152h327v152l-76 20v218l226 -382v-37l-30 -24h-195l-1 -172h272l161 134v618l76 20v153h-328z" />
    <glyph glyph-name="eng" unicode="&#x14b;" horiz-adv-x="750" 
d="M706 582l-143 118h-211l-66 -55l-20 55h-222v-153l76 -20v-354l-76 -20v-153h328v153l-46 20v334l26 21h121l25 -21v-536l-30 -24h-196v-172h272l162 134v673z" />
    <glyph glyph-name="Omacron" unicode="&#x14c;" horiz-adv-x="677" 
d="M633 125v453l-146 122h-297l-146 -122v-453l151 -125h286q38 31 76 62.5t76 62.5zM400 527l27 -21v-311l-28 -23h-121l-28 23v311l27 21h123zM489 887h-302v-87h302v87z" />
    <glyph glyph-name="omacron" unicode="&#x14d;" horiz-adv-x="677" 
d="M633 125v453l-146 122h-297l-146 -122v-453l151 -125h286q38 31 76 62.5t76 62.5zM400 527l27 -21v-311l-28 -23h-121l-28 23v311l27 21h123zM489 887h-302v-87h302v87z" />
    <glyph glyph-name="Obreve" unicode="&#x14e;" horiz-adv-x="677" 
d="M633 125v453l-146 122h-297l-146 -122v-453l151 -125h286q38 31 76 62.5t76 62.5zM400 527l27 -21v-311l-28 -23h-121l-28 23v311l27 21h123zM515 920h-84q0 -33 -23.5 -60t-70.5 -27q-46 0 -71 27t-25 60h-80q0 -26 12 -52.5t34.5 -47.5t55 -34t74.5 -13t75 13t56 34
t35 47.5t12 52.5z" />
    <glyph glyph-name="obreve" unicode="&#x14f;" horiz-adv-x="677" 
d="M633 125v453l-146 122h-297l-146 -122v-453l151 -125h286q38 31 76 62.5t76 62.5zM400 527l27 -21v-311l-28 -23h-121l-28 23v311l27 21h123zM515 920h-84q0 -33 -23.5 -60t-70.5 -27q-46 0 -71 27t-25 60h-80q0 -26 12 -52.5t34.5 -47.5t55 -34t74.5 -13t75 13t56 34
t35 47.5t12 52.5z" />
    <glyph glyph-name="Ohungarumlaut" unicode="&#x150;" horiz-adv-x="677" 
d="M633 125v453l-146 122h-297l-146 -122v-453l151 -125h286q38 31 76 62.5t76 62.5zM400 527l27 -21v-311l-28 -23h-121l-28 23v311l27 21h123zM379 891l-55 86l-267 -178l47 -57zM679 891l-55 86l-267 -178l47 -57z" />
    <glyph glyph-name="ohungarumlaut" unicode="&#x151;" horiz-adv-x="677" 
d="M633 125v453l-146 122h-297l-146 -122v-453l151 -125h286q38 31 76 62.5t76 62.5zM400 527l27 -21v-311l-28 -23h-121l-28 23v311l27 21h123zM350 891l-55 86l-267 -178l47 -57zM650 891l-55 86l-267 -178l47 -57z" />
    <glyph glyph-name="OE" unicode="&#x152;" horiz-adv-x="1014" 
d="M969 454v246h-779l-146 -122v-453l151 -125h775v245h-148l-20 -73h-168v122h168v120h-168v113h168l20 -73h147zM400 527l27 -21v-311l-28 -23h-121l-28 23v311l27 21h123z" />
    <glyph glyph-name="oe" unicode="&#x153;" horiz-adv-x="1058" 
d="M1012 245h-187l-20 -73h-145l-26 21v65l263 43l117 91v190l-143 118h-301l-42 -35l-41 35h-297l-146 -122v-453l151 -125h286q11 8 21 16.5t21 17.5l41 -34h306l142 118v127zM400 527l27 -21v-311l-28 -23h-121l-28 23v311l27 21h123zM787 453l-153 -25v79l26 21h121
l25 -21v-37z" />
    <glyph glyph-name="Racute" unicode="&#x154;" horiz-adv-x="743" 
d="M327 527h142l24 -20v-74l-24 -20h-142v114zM403 0v152l-76 20v101h52l160 -273h190v162l-53 10l-76 121l99 84v209l-135 114h-520v-153l76 -20v-355l-76 -20v-152h359zM533 847l-30 107l-294 -112l20 -67z" />
    <glyph glyph-name="racute" unicode="&#x155;" horiz-adv-x="743" 
d="M327 527h142l24 -20v-74l-24 -20h-142v114zM403 0v152l-76 20v101h52l160 -273h190v162l-53 10l-76 121l99 84v209l-135 114h-520v-153l76 -20v-355l-76 -20v-152h359zM533 847l-30 107l-294 -112l20 -67z" />
    <glyph glyph-name="uni0156" unicode="&#x156;" horiz-adv-x="743" 
d="M327 527h142l24 -20v-74l-24 -20h-142v114zM403 0v152l-76 20v101h52l160 -273h190v162l-53 10l-76 121l99 84v209l-135 114h-520v-153l76 -20v-355l-76 -20v-152h359zM443 -95v53h-122v-42l-22 -80l70 -9z" />
    <glyph glyph-name="uni0157" unicode="&#x157;" horiz-adv-x="743" 
d="M327 527h142l24 -20v-74l-24 -20h-142v114zM403 0v152l-76 20v101h52l160 -273h190v162l-53 10l-76 121l99 84v209l-135 114h-520v-153l76 -20v-355l-76 -20v-152h359zM443 -95v53h-122v-42l-22 -80l70 -9z" />
    <glyph glyph-name="Rcaron" unicode="&#x158;" horiz-adv-x="743" 
d="M327 527h142l24 -20v-74l-24 -20h-142v114zM403 0v152l-76 20v101h52l160 -273h190v162l-53 10l-76 121l99 84v209l-135 114h-520v-153l76 -20v-355l-76 -20v-152h359zM416 770l144 150h-128l-62 -92l-60 92h-128l143 -150h91z" />
    <glyph glyph-name="rcaron" unicode="&#x159;" horiz-adv-x="743" 
d="M327 527h142l24 -20v-74l-24 -20h-142v114zM403 0v152l-76 20v101h52l160 -273h190v162l-53 10l-76 121l99 84v209l-135 114h-520v-153l76 -20v-355l-76 -20v-152h359zM416 770l144 150h-128l-62 -92l-60 92h-128l143 -150h91z" />
    <glyph glyph-name="Sacute" unicode="&#x15a;" horiz-adv-x="667" 
d="M618 586l-136 114h-306l-136 -114v-191l119 -98l240 -40l19 -17v-47l-25 -21h-146l-20 73h-187v-127l142 -118h301l143 118v200l-117 91l-241 40l-22 17v41l26 20h139l20 -73h187v132zM495 847l-30 107l-294 -112l20 -67z" />
    <glyph glyph-name="sacute" unicode="&#x15b;" horiz-adv-x="667" 
d="M618 586l-136 114h-306l-136 -114v-191l119 -98l240 -40l19 -17v-47l-25 -21h-146l-20 73h-187v-127l142 -118h301l143 118v200l-117 91l-241 40l-22 17v41l26 20h139l20 -73h187v132zM495 847l-30 107l-294 -112l20 -67z" />
    <glyph glyph-name="Scircumflex" unicode="&#x15c;" horiz-adv-x="667" 
d="M618 586l-136 114h-306l-136 -114v-191l119 -98l240 -40l19 -17v-47l-25 -21h-146l-20 73h-187v-127l142 -118h301l143 118v200l-117 91l-241 40l-22 17v41l26 20h139l20 -73h187v132zM522 770l-142 150h-91l-145 -150h128l63 91l59 -91h128z" />
    <glyph glyph-name="scircumflex" unicode="&#x15d;" horiz-adv-x="667" 
d="M618 586l-136 114h-306l-136 -114v-191l119 -98l240 -40l19 -17v-47l-25 -21h-146l-20 73h-187v-127l142 -118h301l143 118v200l-117 91l-241 40l-22 17v41l26 20h139l20 -73h187v132zM522 770l-142 150h-91l-145 -150h128l63 91l59 -91h128z" />
    <glyph glyph-name="Scedilla" unicode="&#x15e;" horiz-adv-x="667" 
d="M498 -126l-88 72h-57v54h130l143 118v200l-117 91l-241 40l-22 17v41l26 20h139l20 -73h187v132l-136 114h-306l-136 -114v-191l119 -98l240 -40l19 -17v-47l-25 -21h-146l-20 73h-187v-127l142 -118h110v-115h92l42 -32v-12l-42 -32h-132v-61h158l88 72v54z" />
    <glyph glyph-name="scedilla" unicode="&#x15f;" horiz-adv-x="667" 
d="M498 -126l-88 72h-57v54h130l143 118v200l-117 91l-241 40l-22 17v41l26 20h139l20 -73h187v132l-136 114h-306l-136 -114v-191l119 -98l240 -40l19 -17v-47l-25 -21h-146l-20 73h-187v-127l142 -118h110v-115h92l42 -32v-12l-42 -32h-132v-61h158l88 72v54z" />
    <glyph glyph-name="Scaron" unicode="&#x160;" horiz-adv-x="667" 
d="M618 586l-136 114h-306l-136 -114v-191l119 -98l240 -40l19 -17v-47l-25 -21h-146l-20 73h-187v-127l142 -118h301l143 118v200l-117 91l-241 40l-22 17v41l26 20h139l20 -73h187v132zM378 770l144 150h-128l-62 -92l-60 92h-128l143 -150h91z" />
    <glyph glyph-name="scaron" unicode="&#x161;" horiz-adv-x="667" 
d="M618 586l-136 114h-306l-136 -114v-191l119 -98l240 -40l19 -17v-47l-25 -21h-146l-20 73h-187v-127l142 -118h301l143 118v200l-117 91l-241 40l-22 17v41l26 20h139l20 -73h187v132zM378 770l144 150h-128l-62 -92l-60 92h-128l143 -150h91z" />
    <glyph glyph-name="uni0162" unicode="&#x162;" horiz-adv-x="729" 
d="M713 411v289h-696v-289h148l20 127h77v-366l-85 -20v-152h378v152l-86 20v366h77l20 -127h147zM436 -95v53h-122v-42l-22 -80l70 -9z" />
    <glyph glyph-name="uni0163" unicode="&#x163;" horiz-adv-x="729" 
d="M713 411v289h-696v-289h148l20 127h77v-366l-85 -20v-152h378v152l-86 20v366h77l20 -127h147zM436 -95v53h-122v-42l-22 -80l70 -9z" />
    <glyph glyph-name="Tcaron" unicode="&#x164;" horiz-adv-x="729" 
d="M713 411v289h-696v-289h148l20 127h77v-366l-85 -20v-152h378v152l-86 20v366h77l20 -127h147zM409 770l144 150h-128l-62 -92l-60 92h-128l143 -150h91z" />
    <glyph glyph-name="tcaron" unicode="&#x165;" horiz-adv-x="729" 
d="M713 411v289h-696v-289h148l20 127h77v-366l-85 -20v-152h378v152l-86 20v366h77l20 -127h147zM409 770l144 150h-128l-62 -92l-60 92h-128l143 -150h91z" />
    <glyph glyph-name="Tbar" unicode="&#x166;" horiz-adv-x="729" 
d="M713 411v289h-696v-289h148l20 127h77v-128h-51v-105h51v-133l-85 -20v-152h378v152l-86 20v133h48v105h-48v128h77l20 -127h147z" />
    <glyph glyph-name="tbar" unicode="&#x167;" horiz-adv-x="729" 
d="M713 411v289h-696v-289h148l20 127h77v-128h-51v-105h51v-133l-85 -20v-152h378v152l-86 20v133h48v105h-48v128h77l20 -127h147z" />
    <glyph glyph-name="Utilde" unicode="&#x168;" horiz-adv-x="767" 
d="M748 547v153h-323v-153l45 -20v-332l-26 -23h-116l-27 23v332l46 20v153h-329v-153l76 -20v-418l132 -109h315l131 109v418zM468 865q-23 0 -42 7.5t-37.5 16.5t-38.5 16.5t-46 7.5q-42 0 -75.5 -21t-55.5 -55l40 -57q23 26 42.5 39.5t45.5 13.5q20 0 38.5 -7.5
t37.5 -16.5t40 -16.5t47 -7.5q40 0 73.5 20.5t56.5 55.5l-40 57q-22 -25 -42 -39t-44 -14z" />
    <glyph glyph-name="utilde" unicode="&#x169;" 
d="M782 153l-76 20v354l76 20v153h-328v-153l46 -20v-334l-26 -21h-121l-25 21v334l46 20v153h-330v-153l76 -20v-409l143 -118h211l66 55l20 -55h222v153zM497 865q-23 0 -42 7.5t-37.5 16.5t-38.5 16.5t-46 7.5q-42 0 -75.5 -21t-55.5 -55l40 -57q23 26 42.5 39.5
t45.5 13.5q20 0 38.5 -7.5t37.5 -16.5t40 -16.5t47 -7.5q40 0 73.5 20.5t56.5 55.5l-40 57q-22 -25 -42 -39t-44 -14z" />
    <glyph glyph-name="Umacron" unicode="&#x16a;" horiz-adv-x="767" 
d="M748 547v153h-323v-153l45 -20v-332l-26 -23h-116l-27 23v332l46 20v153h-329v-153l76 -20v-418l132 -109h315l131 109v418zM534 887h-302v-87h302v87z" />
    <glyph glyph-name="umacron" unicode="&#x16b;" 
d="M782 153l-76 20v354l76 20v153h-328v-153l46 -20v-334l-26 -21h-121l-25 21v334l46 20v153h-330v-153l76 -20v-409l143 -118h211l66 55l20 -55h222v153zM564 887h-302v-87h302v87z" />
    <glyph glyph-name="Ubreve" unicode="&#x16c;" horiz-adv-x="767" 
d="M748 547v153h-323v-153l45 -20v-332l-26 -23h-116l-27 23v332l46 20v153h-329v-153l76 -20v-418l132 -109h315l131 109v418zM560 920h-84q0 -33 -23.5 -60t-70.5 -27q-46 0 -71 27t-25 60h-80q0 -26 12 -52.5t34.5 -47.5t55 -34t74.5 -13t75 13t56 34t35 47.5t12 52.5z
" />
    <glyph glyph-name="ubreve" unicode="&#x16d;" 
d="M782 153l-76 20v354l76 20v153h-328v-153l46 -20v-334l-26 -21h-121l-25 21v334l46 20v153h-330v-153l76 -20v-409l143 -118h211l66 55l20 -55h222v153zM590 920h-84q0 -33 -23.5 -60t-70.5 -27q-46 0 -71 27t-25 60h-80q0 -26 12 -52.5t34.5 -47.5t55 -34t74.5 -13
t75 13t56 34t35 47.5t12 52.5z" />
    <glyph glyph-name="Uring" unicode="&#x16e;" horiz-adv-x="767" 
d="M748 547v153h-323v-153l45 -20v-332l-26 -23h-116l-27 23v332l46 20v153h-329v-153l76 -20v-418l132 -109h315l131 109v418zM283 848q0 -38 29 -64t71 -26t71 26t29 64q0 18 -8 34.5t-21.5 29t-31.5 19.5t-39 7t-39 -7t-31.5 -19.5t-21.5 -29t-8 -34.5zM343 848
q0 12 11.5 21t28.5 9t28.5 -9t11.5 -21q0 -13 -11.5 -21.5t-28.5 -8.5t-28.5 8.5t-11.5 21.5z" />
    <glyph glyph-name="uring" unicode="&#x16f;" 
d="M782 153l-76 20v354l76 20v153h-328v-153l46 -20v-334l-26 -21h-121l-25 21v334l46 20v153h-330v-153l76 -20v-409l143 -118h211l66 55l20 -55h222v153zM313 848q0 -38 29 -64t71 -26t71 26t29 64q0 18 -8 34.5t-21.5 29t-31.5 19.5t-39 7t-39 -7t-31.5 -19.5t-21.5 -29
t-8 -34.5zM373 848q0 12 11.5 21t28.5 9t28.5 -9t11.5 -21q0 -13 -11.5 -21.5t-28.5 -8.5t-28.5 8.5t-11.5 21.5z" />
    <glyph glyph-name="Uhungarumlaut" unicode="&#x170;" horiz-adv-x="767" 
d="M748 547v153h-323v-153l45 -20v-332l-26 -23h-116l-27 23v332l46 20v153h-329v-153l76 -20v-418l132 -109h315l131 109v418zM394 891l-55 86l-267 -178l47 -57zM694 891l-55 86l-267 -178l47 -57z" />
    <glyph glyph-name="uhungarumlaut" unicode="&#x171;" 
d="M782 153l-76 20v354l76 20v153h-328v-153l46 -20v-334l-26 -21h-121l-25 21v334l46 20v153h-330v-153l76 -20v-409l143 -118h211l66 55l20 -55h222v153zM424 891l-55 86l-267 -178l47 -57zM724 891l-55 86l-267 -178l47 -57z" />
    <glyph glyph-name="Uogonek" unicode="&#x172;" horiz-adv-x="767" 
d="M464 -65l77 65l131 109v418l76 20v153h-323v-153l45 -20v-332l-26 -23h-116l-27 23v332l46 20v153h-329v-153l76 -20v-418l132 -109h206l-64 -54v-114l62 -57h138v85h-86l-18 15v60z" />
    <glyph glyph-name="uogonek" unicode="&#x173;" 
d="M705 -65l77 65v153l-76 20v354l76 20v153h-328v-153l46 -20v-334l-26 -21h-121l-25 21v334l46 20v153h-330v-153l76 -20v-409l143 -118h211l66 55l20 -55h113l-64 -54v-114l62 -57h138v85h-86l-18 15v60z" />
    <glyph glyph-name="Wcircumflex" unicode="&#x174;" horiz-adv-x="1146" 
d="M1128 547v153h-269v-153l42 -20l-77 -305l-86 305l49 20v153h-361v-153l47 -20l-83 -305l-82 305l46 20v153h-336v-153l61 -20l135 -527h277l87 309l83 -309h261l144 527zM762 770l-142 150h-91l-145 -150h128l63 91l59 -91h128z" />
    <glyph glyph-name="wcircumflex" unicode="&#x175;" horiz-adv-x="1146" 
d="M1128 547v153h-269v-153l42 -20l-77 -305l-86 305l49 20v153h-361v-153l47 -20l-83 -305l-82 305l46 20v153h-336v-153l61 -20l135 -527h277l87 309l83 -309h261l144 527zM762 770l-142 150h-91l-145 -150h128l63 91l59 -91h128z" />
    <glyph glyph-name="Ycircumflex" unicode="&#x176;" horiz-adv-x="708" 
d="M690 547v153h-277v-153l42 -20l-78 -117l-77 117l41 20v153h-323v-153l61 -20l171 -228v-127l-86 -20v-152h378v152l-85 20v128l169 227zM543 770l-142 150h-91l-145 -150h128l63 91l59 -91h128z" />
    <glyph glyph-name="ycircumflex" unicode="&#x177;" 
d="M120 408l143 -118h236v-94l-30 -24h-132l-20 73h-186v-127l142 -118h272l161 134v393l76 20v153h-328v-153l46 -20v-85h-147l-25 21v64l46 20v153h-330v-153l76 -20v-119zM602 770l-142 150h-91l-145 -150h128l63 91l59 -91h128z" />
    <glyph glyph-name="Ydieresis" unicode="&#x178;" horiz-adv-x="708" 
d="M690 547v153h-277v-153l42 -20l-78 -117l-77 117l41 20v153h-323v-153l61 -20l171 -228v-127l-86 -20v-152h378v152l-85 20v128l169 227zM556 767v138h-159v-138h159zM312 767v138h-160v-138h160z" />
    <glyph glyph-name="Zacute" unicode="&#x179;" horiz-adv-x="647" 
d="M618 558v142h-595v-267h148l20 95h141l-310 -388v-140h600v267h-148l-20 -95h-146zM485 847l-30 107l-294 -112l20 -67z" />
    <glyph glyph-name="zacute" unicode="&#x17a;" horiz-adv-x="647" 
d="M618 558v142h-595v-267h148l20 95h141l-310 -388v-140h600v267h-148l-20 -95h-146zM485 847l-30 107l-294 -112l20 -67z" />
    <glyph glyph-name="Zdotaccent" unicode="&#x17b;" horiz-adv-x="647" 
d="M618 558v142h-595v-267h148l20 95h141l-310 -388v-140h600v267h-148l-20 -95h-146zM393 787v118h-140v-118h140z" />
    <glyph glyph-name="zdotaccent" unicode="&#x17c;" horiz-adv-x="647" 
d="M618 558v142h-595v-267h148l20 95h141l-310 -388v-140h600v267h-148l-20 -95h-146zM393 787v118h-140v-118h140z" />
    <glyph glyph-name="Zcaron" unicode="&#x17d;" horiz-adv-x="647" 
d="M618 558v142h-595v-267h148l20 95h141l-310 -388v-140h600v267h-148l-20 -95h-146zM368 770l144 150h-128l-62 -92l-60 92h-128l143 -150h91z" />
    <glyph glyph-name="zcaron" unicode="&#x17e;" horiz-adv-x="647" 
d="M618 558v142h-595v-267h148l20 95h141l-310 -388v-140h600v267h-148l-20 -95h-146zM368 770l144 150h-128l-62 -92l-60 92h-128l143 -150h91z" />
    <glyph glyph-name="uni0182" unicode="&#x182;" horiz-adv-x="731" 
d="M327 173v113h143l26 -22v-70l-26 -21h-143zM120 173l-76 -20v-153h514l145 122v196l-145 121h-231v88h197l20 -53h147v226h-647v-153l76 -20v-354z" />
    <glyph glyph-name="uni0186" unicode="&#x186;" horiz-adv-x="670" 
d="M44 586l136 114h289l155 -129v-437l-161 -134h-277q-35 29 -71 58.5t-71 59.5v127h187l20 -73h137l30 24v308l-29 23h-138l-20 -73h-187v132z" />
    <glyph glyph-name="uni0189" unicode="&#x189;" horiz-adv-x="749" 
d="M705 150v405l-175 145h-486v-153l76 -20v-120h-76v-122h76v-113l-76 -20v-152h481zM386 285v122h-59v120h129l42 -35v-284l-44 -36h-127v113h59z" />
    <glyph glyph-name="uni018B" unicode="&#x18b;" horiz-adv-x="731" 
d="M420 173v113h-143l-26 -22v-70l26 -21h143zM627 173l76 -20v-153h-514l-145 122v196l145 121h231v88h-197l-20 -53h-147v226h647v-153l-76 -20v-354z" />
    <glyph glyph-name="uni018F" unicode="&#x18f;" horiz-adv-x="667" 
d="M42 485h187l20 43h145l26 -21v-78h-380v-311l143 -118h301l142 118v468l-136 114h-306l-142 -118v-97zM420 272v-79l-26 -21h-121l-25 21v80z" />
    <glyph glyph-name="uni019F" unicode="&#x19f;" horiz-adv-x="677" 
d="M633 125v453l-146 122h-297l-146 -122v-453l151 -125h286q38 31 76 62.5t76 62.5zM400 527l27 -21v-99h-177v99l27 21h123zM399 172h-121l-28 23v90h177v-90z" />
    <glyph glyph-name="Ohorn" unicode="&#x1a0;" horiz-adv-x="677" 
d="M632 700h-442l-146 -122v-453l151 -125h286q38 31 76 62.5t76 62.5v453l-31 26h73l57 62v138h-85v-86zM400 527l27 -21v-311l-28 -23h-121l-28 23v311l27 21h123z" />
    <glyph glyph-name="ohorn" unicode="&#x1a1;" horiz-adv-x="677" 
d="M632 700h-442l-146 -122v-453l151 -125h286q38 31 76 62.5t76 62.5v453l-31 26h73l57 62v138h-85v-86zM400 527l27 -21v-311l-28 -23h-121l-28 23v311l27 21h123z" />
    <glyph glyph-name="uni01A7" unicode="&#x1a7;" horiz-adv-x="667" 
d="M48 454h187l20 73h139l26 -20v-41l-22 -17l-241 -40l-117 -91v-200l143 -118h301l142 118v127h-187l-20 -73h-146l-25 21v47l19 17l240 40l119 98v191l-136 114h-306l-136 -114v-132z" />
    <glyph glyph-name="uni01A8" unicode="&#x1a8;" horiz-adv-x="667" 
d="M48 454h187l20 73h139l26 -20v-41l-22 -17l-241 -40l-117 -91v-200l143 -118h301l142 118v127h-187l-20 -73h-146l-25 21v47l19 17l240 40l119 98v191l-136 114h-306l-136 -114v-132z" />
    <glyph glyph-name="Uhorn" unicode="&#x1af;" horiz-adv-x="767" 
d="M748 547v57h43l57 62v138h-85v-86l-15 -18h-323v-153l45 -20v-332l-26 -23h-116l-27 23v332l46 20v153h-329v-153l76 -20v-418l132 -109h315l131 109v418z" />
    <glyph glyph-name="uhorn" unicode="&#x1b0;" 
d="M782 153l-76 20v354l76 20v57h44l57 62v138h-85v-86l-15 -18h-329v-153l46 -20v-334l-26 -21h-121l-25 21v334l46 20v153h-330v-153l76 -20v-409l143 -118h211l66 55l20 -55h222v153z" />
    <glyph glyph-name="uni01C4" unicode="&#x1c4;" horiz-adv-x="1396" 
d="M705 150v405l-175 145h-486v-153l76 -20v-355l-76 -20v-152h481zM327 527h129l42 -35v-284l-44 -36h-127v355zM1367 558v142h-595v-267h148l20 95h141l-310 -388v-140h600v267h-148l-20 -95h-146zM1107 770l144 150h-128l-62 -92l-60 92h-128l143 -150h91z" />
    <glyph glyph-name="uni01C5" unicode="&#x1c5;" horiz-adv-x="1396" 
d="M705 150v405l-175 145h-486v-153l76 -20v-355l-76 -20v-152h481zM327 527h129l42 -35v-284l-44 -36h-127v355zM1367 558v142h-595v-267h148l20 95h141l-310 -388v-140h600v267h-148l-20 -95h-146zM1107 770l144 150h-128l-62 -92l-60 92h-128l143 -150h91z" />
    <glyph glyph-name="uni01C6" unicode="&#x1c6;" horiz-adv-x="1396" 
d="M705 150v405l-175 145h-486v-153l76 -20v-355l-76 -20v-152h481zM327 527h129l42 -35v-284l-44 -36h-127v355zM1367 558v142h-595v-267h148l20 95h141l-310 -388v-140h600v267h-148l-20 -95h-146zM1107 770l144 150h-128l-62 -92l-60 92h-128l143 -150h91z" />
    <glyph glyph-name="uni01C7" unicode="&#x1c7;" horiz-adv-x="1384" 
d="M412 547v153h-368v-153l76 -20v-355l-76 -20v-152h617v267h-148l-20 -95h-166v355zM1372 547v153h-387v-153l105 -20v-331l-30 -24h-132l-20 73h-186v-127l142 -118h272l161 134v393z" />
    <glyph glyph-name="uni01C8" unicode="&#x1c8;" horiz-adv-x="1384" 
d="M412 547v153h-368v-153l76 -20v-355l-76 -20v-152h617v267h-148l-20 -95h-166v355zM1372 547v153h-387v-153l105 -20v-331l-30 -24h-132l-20 73h-186v-127l142 -118h272l161 134v393z" />
    <glyph glyph-name="uni01C9" unicode="&#x1c9;" horiz-adv-x="1384" 
d="M412 547v153h-368v-153l76 -20v-355l-76 -20v-152h617v267h-148l-20 -95h-166v355zM1372 547v153h-387v-153l105 -20v-331l-30 -24h-132l-20 73h-186v-127l142 -118h272l161 134v393z" />
    <glyph glyph-name="uni01CA" unicode="&#x1ca;" horiz-adv-x="1527" 
d="M476 700v-153l76 -20v-201l-208 374h-300v-153l76 -20v-355l-76 -20v-152h327v152l-76 20v218l231 -390h202v527l76 20v153h-328zM1515 547v153h-387v-153l105 -20v-331l-30 -24h-132l-20 73h-186v-127l142 -118h272l161 134v393z" />
    <glyph glyph-name="uni01CB" unicode="&#x1cb;" horiz-adv-x="1527" 
d="M476 700v-153l76 -20v-201l-208 374h-300v-153l76 -20v-355l-76 -20v-152h327v152l-76 20v218l231 -390h202v527l76 20v153h-328zM1515 547v153h-387v-153l105 -20v-331l-30 -24h-132l-20 73h-186v-127l142 -118h272l161 134v393z" />
    <glyph glyph-name="uni01CC" unicode="&#x1cc;" horiz-adv-x="1532" 
d="M44 547l76 -20v-354l-76 -20v-153h328v153l-46 20v334l26 21h121l25 -21v-334l-46 -20v-153h330v153l-76 20v409l-143 118h-211l-66 -55l-20 55h-222v-153zM1520 547v153h-387v-153l105 -20v-331l-30 -24h-132l-20 73h-186v-127l142 -118h272l161 134v393z" />
    <glyph glyph-name="uni01CD" unicode="&#x1cd;" horiz-adv-x="775" 
d="M671 172l-135 528h-404v-153l65 -20l-102 -355l-77 -20v-152h300v152l-49 20l17 62h151l18 -62l-53 -20v-152h355v152zM359 511l45 -157h-89zM432 770l144 150h-128l-62 -92l-60 92h-128l143 -150h91z" />
    <glyph glyph-name="uni01CE" unicode="&#x1ce;" horiz-adv-x="726" 
d="M706 153l-76 20v413l-136 114h-306l-136 -114v-132h187l20 73h139l26 -20v-67l-263 -41l-117 -91v-190l143 -118h200l66 55l20 -55h233v153zM271 247l153 35v-89l-26 -21h-121l-25 21v37zM408 770l144 150h-128l-62 -92l-60 92h-128l143 -150h91z" />
    <glyph glyph-name="uni01CF" unicode="&#x1cf;" horiz-adv-x="496" 
d="M426 547v153h-358v-153l76 -20v-355l-76 -20v-152h358v152l-76 20v355zM293 770l144 150h-128l-62 -92l-60 92h-128l143 -150h91z" />
    <glyph glyph-name="uni01D0" unicode="&#x1d0;" horiz-adv-x="496" 
d="M426 547v153h-358v-153l76 -20v-355l-76 -20v-152h358v152l-76 20v355zM293 770l144 150h-128l-62 -92l-60 92h-128l143 -150h91z" />
    <glyph glyph-name="uni01D1" unicode="&#x1d1;" horiz-adv-x="677" 
d="M633 125v453l-146 122h-297l-146 -122v-453l151 -125h286q38 31 76 62.5t76 62.5zM400 527l27 -21v-311l-28 -23h-121l-28 23v311l27 21h123zM383 770l144 150h-128l-62 -92l-60 92h-128l143 -150h91z" />
    <glyph glyph-name="uni01D2" unicode="&#x1d2;" horiz-adv-x="677" 
d="M633 125v453l-146 122h-297l-146 -122v-453l151 -125h286q38 31 76 62.5t76 62.5zM400 527l27 -21v-311l-28 -23h-121l-28 23v311l27 21h123zM383 770l144 150h-128l-62 -92l-60 92h-128l143 -150h91z" />
    <glyph glyph-name="uni01D3" unicode="&#x1d3;" horiz-adv-x="767" 
d="M748 547v153h-323v-153l45 -20v-332l-26 -23h-116l-27 23v332l46 20v153h-329v-153l76 -20v-418l132 -109h315l131 109v418zM428 770l144 150h-128l-62 -92l-60 92h-128l143 -150h91z" />
    <glyph glyph-name="uni01D4" unicode="&#x1d4;" 
d="M782 153l-76 20v354l76 20v153h-328v-153l46 -20v-334l-26 -21h-121l-25 21v334l46 20v153h-330v-153l76 -20v-409l143 -118h211l66 55l20 -55h222v153zM458 770l144 150h-128l-62 -92l-60 92h-128l143 -150h91z" />
    <glyph glyph-name="uni01D5" unicode="&#x1d5;" horiz-adv-x="767" 
d="M748 547v153h-323v-153l45 -20v-332l-26 -23h-116l-27 23v332l46 20v153h-329v-153l76 -20v-418l132 -109h315l131 109v418zM585 767v138h-159v-138h159zM341 767v138h-160v-138h160zM534 1087h-302v-87h302v87z" />
    <glyph glyph-name="uni01D6" unicode="&#x1d6;" 
d="M782 153l-76 20v354l76 20v153h-328v-153l46 -20v-334l-26 -21h-121l-25 21v334l46 20v153h-330v-153l76 -20v-409l143 -118h211l66 55l20 -55h222v153zM615 767v138h-159v-138h159zM371 767v138h-160v-138h160zM564 1087h-302v-87h302v87z" />
    <glyph glyph-name="uni01D7" unicode="&#x1d7;" horiz-adv-x="767" 
d="M748 547v153h-323v-153l45 -20v-332l-26 -23h-116l-27 23v332l46 20v153h-329v-153l76 -20v-418l132 -109h315l131 109v418zM585 767v138h-159v-138h159zM341 767v138h-160v-138h160zM545 1047l-30 107l-294 -112l20 -67z" />
    <glyph glyph-name="uni01D8" unicode="&#x1d8;" 
d="M782 153l-76 20v354l76 20v153h-328v-153l46 -20v-334l-26 -21h-121l-25 21v334l46 20v153h-330v-153l76 -20v-409l143 -118h211l66 55l20 -55h222v153zM615 767v138h-159v-138h159zM371 767v138h-160v-138h160zM575 1047l-30 107l-294 -112l20 -67z" />
    <glyph glyph-name="uni01D9" unicode="&#x1d9;" horiz-adv-x="767" 
d="M748 547v153h-323v-153l45 -20v-332l-26 -23h-116l-27 23v332l46 20v153h-329v-153l76 -20v-418l132 -109h315l131 109v418zM585 767v138h-159v-138h159zM341 767v138h-160v-138h160zM428 970l144 150h-128l-62 -92l-60 92h-128l143 -150h91z" />
    <glyph glyph-name="uni01DA" unicode="&#x1da;" 
d="M782 153l-76 20v354l76 20v153h-328v-153l46 -20v-334l-26 -21h-121l-25 21v334l46 20v153h-330v-153l76 -20v-409l143 -118h211l66 55l20 -55h222v153zM615 767v138h-159v-138h159zM371 767v138h-160v-138h160zM458 970l144 150h-128l-62 -92l-60 92h-128l143 -150h91z
" />
    <glyph glyph-name="uni01DB" unicode="&#x1db;" horiz-adv-x="767" 
d="M748 547v153h-323v-153l45 -20v-332l-26 -23h-116l-27 23v332l46 20v153h-329v-153l76 -20v-418l132 -109h315l131 109v418zM585 767v138h-159v-138h159zM341 767v138h-160v-138h160zM525 975l20 67l-294 112l-30 -107z" />
    <glyph glyph-name="uni01DC" unicode="&#x1dc;" 
d="M782 153l-76 20v354l76 20v153h-328v-153l46 -20v-334l-26 -21h-121l-25 21v334l46 20v153h-330v-153l76 -20v-409l143 -118h211l66 55l20 -55h222v153zM615 767v138h-159v-138h159zM371 767v138h-160v-138h160zM555 975l20 67l-294 112l-30 -107z" />
    <glyph glyph-name="uni01DD" unicode="&#x1dd;" horiz-adv-x="667" 
d="M42 485h187l20 43h145l26 -21v-78h-380v-311l143 -118h301l142 118v468l-136 114h-306l-142 -118v-97zM420 272v-79l-26 -21h-121l-25 21v80z" />
    <glyph glyph-name="uni01DE" unicode="&#x1de;" horiz-adv-x="775" 
d="M671 172l-135 528h-404v-153l65 -20l-102 -355l-77 -20v-152h300v152l-49 20l17 62h151l18 -62l-53 -20v-152h355v152zM359 511l45 -157h-89zM561 767v138h-159v-138h159zM317 767v138h-160v-138h160zM509 1087h-302v-87h302v87z" />
    <glyph glyph-name="uni01DF" unicode="&#x1df;" horiz-adv-x="726" 
d="M706 153l-76 20v413l-136 114h-306l-136 -114v-132h187l20 73h139l26 -20v-67l-263 -41l-117 -91v-190l143 -118h200l66 55l20 -55h233v153zM271 247l153 35v-89l-26 -21h-121l-25 21v37zM538 767v138h-159v-138h159zM294 767v138h-160v-138h160zM491 1087h-302v-87h302
v87z" />
    <glyph glyph-name="uni01E0" unicode="&#x1e0;" horiz-adv-x="775" 
d="M671 172l-135 528h-404v-153l65 -20l-102 -355l-77 -20v-152h300v152l-49 20l17 62h151l18 -62l-53 -20v-152h355v152zM359 511l45 -157h-89zM427 787v118h-140v-118h140zM509 1087h-302v-87h302v87z" />
    <glyph glyph-name="uni01E1" unicode="&#x1e1;" horiz-adv-x="726" 
d="M706 153l-76 20v413l-136 114h-306l-136 -114v-132h187l20 73h139l26 -20v-67l-263 -41l-117 -91v-190l143 -118h200l66 55l20 -55h233v153zM271 247l153 35v-89l-26 -21h-121l-25 21v37zM433 787v118h-140v-118h140zM514 1087h-302v-87h302v87z" />
    <glyph glyph-name="uni01E2" unicode="&#x1e2;" horiz-adv-x="1042" 
d="M994 474v226h-864v-153l65 -20l-102 -355l-77 -20v-152h300v152l-49 20l17 62h169v-62l-53 -20v-152h595v225h-148l-20 -53h-168v122h107l10 -49h110v209h-110l-10 -40h-107v113h168l20 -53h147zM672 887h-302v-87h302v87zM357 511h96v-157h-140z" />
    <glyph glyph-name="uni01E3" unicode="&#x1e3;" horiz-adv-x="1054" 
d="M1002 236h-207v-43l-24 -20h-115l-26 20v41l22 17l241 40l117 91v200l-143 118h-301l-36 -30l-36 30h-306l-136 -114v-122h207v43l24 20h115l26 -20v-41l-22 -17l-241 -40l-117 -91v-200l143 -118h200l66 55l20 -55h393l136 114v122zM678 887h-302v-87h302v87zM271 257
l153 25v-89l-26 -21h-121l-25 21v47zM783 443l-153 -25v89l26 21h121l25 -21v-47z" />
    <glyph glyph-name="Gcaron" unicode="&#x1e6;" horiz-adv-x="674" 
d="M633 454v132l-137 114h-297l-155 -129v-437l161 -134h185l66 55l20 -55h157v414h-300v-120h94v-96l-31 -26h-116l-30 24v308l29 23h148l20 -73h186zM382 770l144 150h-128l-62 -92l-60 92h-128l143 -150h91z" />
    <glyph glyph-name="gcaron" unicode="&#x1e7;" horiz-adv-x="674" 
d="M633 454v132l-137 114h-297l-155 -129v-437l161 -134h185l66 55l20 -55h157v414h-300v-120h94v-96l-31 -26h-116l-30 24v308l29 23h148l20 -73h186zM382 770l144 150h-128l-62 -92l-60 92h-128l143 -150h91z" />
    <glyph glyph-name="uni01E8" unicode="&#x1e8;" horiz-adv-x="803" 
d="M775 547v153h-334v-153l49 -20l-156 -136v136l48 20v153h-338v-153l76 -20v-355l-76 -20v-152h340v152l-50 20v73l80 67l78 -140l-50 -20v-152h333v152l-71 20l-139 261l113 94zM446 770l144 150h-128l-62 -92l-60 92h-128l143 -150h91z" />
    <glyph glyph-name="uni01E9" unicode="&#x1e9;" horiz-adv-x="803" 
d="M775 547v153h-334v-153l49 -20l-156 -136v136l48 20v153h-338v-153l76 -20v-355l-76 -20v-152h340v152l-50 20v73l80 67l78 -140l-50 -20v-152h333v152l-71 20l-139 261l113 94zM446 770l144 150h-128l-62 -92l-60 92h-128l143 -150h91z" />
    <glyph glyph-name="uni01EA" unicode="&#x1ea;" horiz-adv-x="677" 
d="M406 -65l77 65h-2q38 31 76 62.5t76 62.5v453l-146 122h-297l-146 -122v-453l151 -125h179l-64 -54v-114l62 -57h138v85h-86l-18 15v60zM400 527l27 -21v-311l-28 -23h-121l-28 23v311l27 21h123z" />
    <glyph glyph-name="uni01EB" unicode="&#x1eb;" horiz-adv-x="677" 
d="M406 -65l77 65h-2q38 31 76 62.5t76 62.5v453l-146 122h-297l-146 -122v-453l151 -125h179l-64 -54v-114l62 -57h138v85h-86l-18 15v60zM400 527l27 -21v-311l-28 -23h-121l-28 23v311l27 21h123z" />
    <glyph glyph-name="uni01EC" unicode="&#x1ec;" horiz-adv-x="677" 
d="M406 -65l77 65h-2q38 31 76 62.5t76 62.5v453l-146 122h-297l-146 -122v-453l151 -125h179l-64 -54v-114l62 -57h138v85h-86l-18 15v60zM400 527l27 -21v-311l-28 -23h-121l-28 23v311l27 21h123zM489 887h-302v-87h302v87z" />
    <glyph glyph-name="uni01ED" unicode="&#x1ed;" horiz-adv-x="677" 
d="M406 -65l77 65h-2q38 31 76 62.5t76 62.5v453l-146 122h-297l-146 -122v-453l151 -125h179l-64 -54v-114l62 -57h138v85h-86l-18 15v60zM400 527l27 -21v-311l-28 -23h-121l-28 23v311l27 21h123zM489 887h-302v-87h302v87z" />
    <glyph glyph-name="uni01F0" unicode="&#x1f0;" horiz-adv-x="706" 
d="M694 547v153h-387v-153l105 -20v-331l-30 -24h-132l-20 73h-186v-127l142 -118h272l161 134v393zM569 770l144 150h-128l-62 -92l-60 92h-128l143 -150h91z" />
    <glyph glyph-name="uni01F1" unicode="&#x1f1;" horiz-adv-x="1396" 
d="M705 150v405l-175 145h-486v-153l76 -20v-355l-76 -20v-152h481zM327 527h129l42 -35v-284l-44 -36h-127v355zM1367 558v142h-595v-267h148l20 95h141l-310 -388v-140h600v267h-148l-20 -95h-146z" />
    <glyph glyph-name="uni01F2" unicode="&#x1f2;" horiz-adv-x="1396" 
d="M705 150v405l-175 145h-486v-153l76 -20v-355l-76 -20v-152h481zM327 527h129l42 -35v-284l-44 -36h-127v355zM1367 558v142h-595v-267h148l20 95h141l-310 -388v-140h600v267h-148l-20 -95h-146z" />
    <glyph glyph-name="uni01F3" unicode="&#x1f3;" horiz-adv-x="1396" 
d="M705 150v405l-175 145h-486v-153l76 -20v-355l-76 -20v-152h481zM327 527h129l42 -35v-284l-44 -36h-127v355zM1367 558v142h-595v-267h148l20 95h141l-310 -388v-140h600v267h-148l-20 -95h-146z" />
    <glyph glyph-name="uni01F4" unicode="&#x1f4;" horiz-adv-x="674" 
d="M633 454v132l-137 114h-297l-155 -129v-437l161 -134h185l66 55l20 -55h157v414h-300v-120h94v-96l-31 -26h-116l-30 24v308l29 23h148l20 -73h186zM499 847l-30 107l-294 -112l20 -67z" />
    <glyph glyph-name="uni01F5" unicode="&#x1f5;" horiz-adv-x="674" 
d="M633 454v132l-137 114h-297l-155 -129v-437l161 -134h185l66 55l20 -55h157v414h-300v-120h94v-96l-31 -26h-116l-30 24v308l29 23h148l20 -73h186zM499 847l-30 107l-294 -112l20 -67z" />
    <glyph glyph-name="uni01F8" unicode="&#x1f8;" horiz-adv-x="821" 
d="M476 700v-153l76 -20v-201l-208 374h-300v-153l76 -20v-355l-76 -20v-152h327v152l-76 20v218l231 -390h202v527l76 20v153h-328zM552 775l20 67l-294 112l-30 -107z" />
    <glyph glyph-name="uni01F9" unicode="&#x1f9;" 
d="M44 547l76 -20v-354l-76 -20v-153h328v153l-46 20v334l26 21h121l25 -21v-334l-46 -20v-153h330v153l-76 20v409l-143 118h-211l-66 -55l-20 55h-222v-153zM555 775l20 67l-294 112l-30 -107z" />
    <glyph glyph-name="Aringacute" unicode="&#x1fa;" horiz-adv-x="775" 
d="M671 172l-135 528h-404v-153l65 -20l-102 -355l-77 -20v-152h300v152l-49 20l17 62h151l18 -62l-53 -20v-152h355v152zM359 511l45 -157h-89zM259 848q0 -38 29 -64t71 -26t71 26t29 64q0 18 -8 34.5t-21.5 29t-31.5 19.5t-39 7t-39 -7t-31.5 -19.5t-21.5 -29t-8 -34.5z
M319 848q0 12 11.5 21t28.5 9t28.5 -9t11.5 -21q0 -13 -11.5 -21.5t-28.5 -8.5t-28.5 8.5t-11.5 21.5zM549 1047l-30 107l-294 -112l20 -67z" />
    <glyph glyph-name="aringacute" unicode="&#x1fb;" horiz-adv-x="726" 
d="M706 153l-76 20v413l-136 114h-306l-136 -114v-132h187l20 73h139l26 -20v-67l-263 -41l-117 -91v-190l143 -118h200l66 55l20 -55h233v153zM271 247l153 35v-89l-26 -21h-121l-25 21v37zM275 848q0 -38 29 -64t71 -26t71 26t29 64q0 18 -8 34.5t-21.5 29t-31.5 19.5
t-39 7t-39 -7t-31.5 -19.5t-21.5 -29t-8 -34.5zM335 848q0 12 11.5 21t28.5 9t28.5 -9t11.5 -21q0 -13 -11.5 -21.5t-28.5 -8.5t-28.5 8.5t-11.5 21.5zM525 1047l-30 107l-294 -112l20 -67z" />
    <glyph glyph-name="AEacute" unicode="&#x1fc;" horiz-adv-x="1042" 
d="M994 474v226h-864v-153l65 -20l-102 -355l-77 -20v-152h300v152l-49 20l17 62h169v-62l-53 -20v-152h595v225h-148l-20 -53h-168v122h107l10 -49h110v209h-110l-10 -40h-107v113h168l20 -53h147zM683 847l-30 107l-294 -112l20 -67zM357 511h96v-157h-140z" />
    <glyph glyph-name="aeacute" unicode="&#x1fd;" horiz-adv-x="1054" 
d="M1002 236h-207v-43l-24 -20h-115l-26 20v41l22 17l241 40l117 91v200l-143 118h-301l-36 -30l-36 30h-306l-136 -114v-122h207v43l24 20h115l26 -20v-41l-22 -17l-241 -40l-117 -91v-200l143 -118h200l66 55l20 -55h393l136 114v122zM689 847l-30 107l-294 -112l20 -67z
M271 257l153 25v-89l-26 -21h-121l-25 21v47zM783 443l-153 -25v89l26 21h121l25 -21v-47z" />
    <glyph glyph-name="Oslashacute" unicode="&#x1fe;" horiz-adv-x="677" 
d="M81 -19l56 67l58 -48h286q38 31 76 62.5t76 62.5v453l-30 25l50 60l-67 56l-50 -60l-49 41h-297l-146 -122v-453l26 -22l-56 -66zM500 847l-30 107l-294 -112l20 -67zM399 172h-121l-22 18l171 203v-198zM400 527l15 -12l-165 -197v188l27 21h123z" />
    <glyph glyph-name="oslashacute" unicode="&#x1ff;" horiz-adv-x="677" 
d="M81 -19l56 67l58 -48h286q38 31 76 62.5t76 62.5v453l-30 25l50 60l-67 56l-50 -60l-49 41h-297l-146 -122v-453l26 -22l-56 -66zM500 847l-30 107l-294 -112l20 -67zM399 172h-121l-22 18l171 203v-198zM400 527l15 -12l-165 -197v188l27 21h123z" />
    <glyph glyph-name="uni0200" unicode="&#x200;" horiz-adv-x="775" 
d="M671 172l-135 528h-404v-153l65 -20l-102 -355l-77 -20v-152h300v152l-49 20l17 62h151l18 -62l-53 -20v-152h355v152zM359 511l45 -157h-89zM564 742l47 57l-267 178l-55 -86zM264 742l47 57l-267 178l-55 -86z" />
    <glyph glyph-name="uni0201" unicode="&#x201;" horiz-adv-x="726" 
d="M706 153l-76 20v413l-136 114h-306l-136 -114v-132h187l20 73h139l26 -20v-67l-263 -41l-117 -91v-190l143 -118h200l66 55l20 -55h233v153zM271 247l153 35v-89l-26 -21h-121l-25 21v37zM540 742l47 57l-267 178l-55 -86zM240 742l47 57l-267 178l-55 -86z" />
    <glyph glyph-name="uni0202" unicode="&#x202;" horiz-adv-x="775" 
d="M671 172l-135 528h-404v-153l65 -20l-102 -355l-77 -20v-152h300v152l-49 20l17 62h151l18 -62l-53 -20v-152h355v152zM564 773q0 26 -12 52.5t-35 47.5t-56 34t-75 13t-74.5 -13t-55 -34t-34.5 -47.5t-12 -52.5h80q0 33 25 60t71 27q47 0 70.5 -27t23.5 -60h84zM359 511
l45 -157h-89z" />
    <glyph glyph-name="uni0203" unicode="&#x203;" horiz-adv-x="726" 
d="M706 153l-76 20v413l-136 114h-306l-136 -114v-132h187l20 73h139l26 -20v-67l-263 -41l-117 -91v-190l143 -118h200l66 55l20 -55h233v153zM540 773q0 26 -12 52.5t-35 47.5t-56 34t-75 13t-74.5 -13t-55 -34t-34.5 -47.5t-12 -52.5h80q0 33 25 60t71 27q47 0 70.5 -27
t23.5 -60h84zM271 247l153 35v-89l-26 -21h-121l-25 21v37z" />
    <glyph glyph-name="uni0204" unicode="&#x204;" horiz-adv-x="705" 
d="M661 454v246h-617v-153l76 -20v-355l-76 -20v-152h618v245h-148l-20 -73h-168v122h168v120h-168v113h168l20 -73h147zM617 742l47 57l-267 178l-55 -86zM317 742l47 57l-267 178l-55 -86z" />
    <glyph glyph-name="uni0205" unicode="&#x205;" horiz-adv-x="667" 
d="M624 245h-187l-20 -73h-145l-26 21v65l263 43l117 91v190l-143 118h-301l-142 -118v-468l136 -114h306l142 118v127zM399 453l-153 -25v79l26 21h121l25 -21v-37zM598 742l47 57l-267 178l-55 -86zM298 742l47 57l-267 178l-55 -86z" />
    <glyph glyph-name="uni0206" unicode="&#x206;" horiz-adv-x="705" 
d="M661 454v246h-617v-153l76 -20v-355l-76 -20v-152h618v245h-148l-20 -73h-168v122h168v120h-168v113h168l20 -73h147zM529 773q0 26 -12 52.5t-35 47.5t-56 34t-75 13t-74.5 -13t-55 -34t-34.5 -47.5t-12 -52.5h80q0 33 25 60t71 27q47 0 70.5 -27t23.5 -60h84z" />
    <glyph glyph-name="uni0207" unicode="&#x207;" horiz-adv-x="667" 
d="M624 245h-187l-20 -73h-145l-26 21v65l263 43l117 91v190l-143 118h-301l-142 -118v-468l136 -114h306l142 118v127zM510 773q0 26 -12 52.5t-35 47.5t-56 34t-75 13t-74.5 -13t-55 -34t-34.5 -47.5t-12 -52.5h80q0 33 25 60t71 27q47 0 70.5 -27t23.5 -60h84zM399 453
l-153 -25v79l26 21h121l25 -21v-37z" />
    <glyph glyph-name="uni0208" unicode="&#x208;" horiz-adv-x="496" 
d="M426 547v153h-358v-153l76 -20v-355l-76 -20v-152h358v152l-76 20v355zM512 742l47 57l-267 178l-55 -86zM212 742l47 57l-267 178l-55 -86z" />
    <glyph glyph-name="uni0209" unicode="&#x209;" horiz-adv-x="496" 
d="M426 547v153h-358v-153l76 -20v-355l-76 -20v-152h358v152l-76 20v355zM512 742l47 57l-267 178l-55 -86zM212 742l47 57l-267 178l-55 -86z" />
    <glyph glyph-name="uni020A" unicode="&#x20a;" horiz-adv-x="496" 
d="M426 547v153h-358v-153l76 -20v-355l-76 -20v-152h358v152l-76 20v355zM425 773q0 26 -12 52.5t-35 47.5t-56 34t-75 13t-74.5 -13t-55 -34t-34.5 -47.5t-12 -52.5h80q0 33 25 60t71 27q47 0 70.5 -27t23.5 -60h84z" />
    <glyph glyph-name="uni020B" unicode="&#x20b;" horiz-adv-x="496" 
d="M426 547v153h-358v-153l76 -20v-355l-76 -20v-152h358v152l-76 20v355zM425 773q0 26 -12 52.5t-35 47.5t-56 34t-75 13t-74.5 -13t-55 -34t-34.5 -47.5t-12 -52.5h80q0 33 25 60t71 27q47 0 70.5 -27t23.5 -60h84z" />
    <glyph glyph-name="uni020C" unicode="&#x20c;" horiz-adv-x="677" 
d="M633 125v453l-146 122h-297l-146 -122v-453l151 -125h286q38 31 76 62.5t76 62.5zM400 527l27 -21v-311l-28 -23h-121l-28 23v311l27 21h123zM603 742l47 57l-267 178l-55 -86zM303 742l47 57l-267 178l-55 -86z" />
    <glyph glyph-name="uni020D" unicode="&#x20d;" horiz-adv-x="677" 
d="M633 125v453l-146 122h-297l-146 -122v-453l151 -125h286q38 31 76 62.5t76 62.5zM400 527l27 -21v-311l-28 -23h-121l-28 23v311l27 21h123zM603 742l47 57l-267 178l-55 -86zM303 742l47 57l-267 178l-55 -86z" />
    <glyph glyph-name="uni020E" unicode="&#x20e;" horiz-adv-x="677" 
d="M633 125v453l-146 122h-297l-146 -122v-453l151 -125h286q38 31 76 62.5t76 62.5zM400 527l27 -21v-311l-28 -23h-121l-28 23v311l27 21h123zM515 773q0 26 -12 52.5t-35 47.5t-56 34t-75 13t-74.5 -13t-55 -34t-34.5 -47.5t-12 -52.5h80q0 33 25 60t71 27q47 0 70.5 -27
t23.5 -60h84z" />
    <glyph glyph-name="uni020F" unicode="&#x20f;" horiz-adv-x="677" 
d="M633 125v453l-146 122h-297l-146 -122v-453l151 -125h286q38 31 76 62.5t76 62.5zM400 527l27 -21v-311l-28 -23h-121l-28 23v311l27 21h123zM515 773q0 26 -12 52.5t-35 47.5t-56 34t-75 13t-74.5 -13t-55 -34t-34.5 -47.5t-12 -52.5h80q0 33 25 60t71 27q47 0 70.5 -27
t23.5 -60h84z" />
    <glyph glyph-name="uni0210" unicode="&#x210;" horiz-adv-x="743" 
d="M327 527h142l24 -20v-74l-24 -20h-142v114zM403 0v152l-76 20v101h52l160 -273h190v162l-53 10l-76 121l99 84v209l-135 114h-520v-153l76 -20v-355l-76 -20v-152h359zM635 742l47 57l-267 178l-55 -86zM335 742l47 57l-267 178l-55 -86z" />
    <glyph glyph-name="uni0211" unicode="&#x211;" horiz-adv-x="743" 
d="M327 527h142l24 -20v-74l-24 -20h-142v114zM403 0v152l-76 20v101h52l160 -273h190v162l-53 10l-76 121l99 84v209l-135 114h-520v-153l76 -20v-355l-76 -20v-152h359zM635 742l47 57l-267 178l-55 -86zM335 742l47 57l-267 178l-55 -86z" />
    <glyph glyph-name="uni0212" unicode="&#x212;" horiz-adv-x="743" 
d="M403 0v152l-76 20v101h52l160 -273h190v162l-53 10l-76 121l99 84v209l-135 114h-520v-153l76 -20v-355l-76 -20v-152h359zM548 773q0 26 -12 52.5t-35 47.5t-56 34t-75 13t-74.5 -13t-55 -34t-34.5 -47.5t-12 -52.5h80q0 33 25 60t71 27q47 0 70.5 -27t23.5 -60h84z
M327 527h142l24 -20v-74l-24 -20h-142v114z" />
    <glyph glyph-name="uni0213" unicode="&#x213;" horiz-adv-x="743" 
d="M403 0v152l-76 20v101h52l160 -273h190v162l-53 10l-76 121l99 84v209l-135 114h-520v-153l76 -20v-355l-76 -20v-152h359zM548 773q0 26 -12 52.5t-35 47.5t-56 34t-75 13t-74.5 -13t-55 -34t-34.5 -47.5t-12 -52.5h80q0 33 25 60t71 27q47 0 70.5 -27t23.5 -60h84z
M327 527h142l24 -20v-74l-24 -20h-142v114z" />
    <glyph glyph-name="uni0214" unicode="&#x214;" horiz-adv-x="767" 
d="M748 547v153h-323v-153l45 -20v-332l-26 -23h-116l-27 23v332l46 20v153h-329v-153l76 -20v-418l132 -109h315l131 109v418zM647 742l47 57l-267 178l-55 -86zM347 742l47 57l-267 178l-55 -86z" />
    <glyph glyph-name="uni0215" unicode="&#x215;" 
d="M782 153l-76 20v354l76 20v153h-328v-153l46 -20v-334l-26 -21h-121l-25 21v334l46 20v153h-330v-153l76 -20v-409l143 -118h211l66 55l20 -55h222v153zM677 742l47 57l-267 178l-55 -86zM377 742l47 57l-267 178l-55 -86z" />
    <glyph glyph-name="uni0216" unicode="&#x216;" horiz-adv-x="767" 
d="M748 547v153h-323v-153l45 -20v-332l-26 -23h-116l-27 23v332l46 20v153h-329v-153l76 -20v-418l132 -109h315l131 109v418zM560 773q0 26 -12 52.5t-35 47.5t-56 34t-75 13t-74.5 -13t-55 -34t-34.5 -47.5t-12 -52.5h80q0 33 25 60t71 27q47 0 70.5 -27t23.5 -60h84z
" />
    <glyph glyph-name="uni0217" unicode="&#x217;" 
d="M782 153l-76 20v354l76 20v153h-328v-153l46 -20v-334l-26 -21h-121l-25 21v334l46 20v153h-330v-153l76 -20v-409l143 -118h211l66 55l20 -55h222v153zM590 773q0 26 -12 52.5t-35 47.5t-56 34t-75 13t-74.5 -13t-55 -34t-34.5 -47.5t-12 -52.5h80q0 33 25 60t71 27
q47 0 70.5 -27t23.5 -60h84z" />
    <glyph glyph-name="uni0218" unicode="&#x218;" horiz-adv-x="667" 
d="M618 586l-136 114h-306l-136 -114v-191l119 -98l240 -40l19 -17v-47l-25 -21h-146l-20 73h-187v-127l142 -118h301l143 118v200l-117 91l-241 40l-22 17v41l26 20h139l20 -73h187v132zM405 -95v53h-122v-42l-22 -80l70 -9z" />
    <glyph glyph-name="uni0219" unicode="&#x219;" horiz-adv-x="667" 
d="M618 586l-136 114h-306l-136 -114v-191l119 -98l240 -40l19 -17v-47l-25 -21h-146l-20 73h-187v-127l142 -118h301l143 118v200l-117 91l-241 40l-22 17v41l26 20h139l20 -73h187v132zM405 -95v53h-122v-42l-22 -80l70 -9z" />
    <glyph glyph-name="uni021A" unicode="&#x21a;" horiz-adv-x="729" 
d="M713 411v289h-696v-289h148l20 127h77v-366l-85 -20v-152h378v152l-86 20v366h77l20 -127h147zM436 -95v53h-122v-42l-22 -80l70 -9z" />
    <glyph glyph-name="uni021B" unicode="&#x21b;" horiz-adv-x="729" 
d="M713 411v289h-696v-289h148l20 127h77v-366l-85 -20v-152h378v152l-86 20v366h77l20 -127h147zM436 -95v53h-122v-42l-22 -80l70 -9z" />
    <glyph glyph-name="uni021E" unicode="&#x21e;" 
d="M780 547v153h-329v-153l45 -20v-113h-169v113l46 20v153h-329v-153l76 -20v-355l-76 -20v-152h329v152l-46 20v122h169v-122l-45 -20v-152h329v152l-76 20v355zM458 770l144 150h-128l-62 -92l-60 92h-128l143 -150h91z" />
    <glyph glyph-name="uni021F" unicode="&#x21f;" 
d="M780 547v153h-329v-153l45 -20v-113h-169v113l46 20v153h-329v-153l76 -20v-355l-76 -20v-152h329v152l-46 20v122h169v-122l-45 -20v-152h329v152l-76 20v355zM458 770l144 150h-128l-62 -92l-60 92h-128l143 -150h91z" />
    <glyph glyph-name="uni0226" unicode="&#x226;" horiz-adv-x="775" 
d="M671 172l-135 528h-404v-153l65 -20l-102 -355l-77 -20v-152h300v152l-49 20l17 62h151l18 -62l-53 -20v-152h355v152zM359 511l45 -157h-89zM457 787v118h-140v-118h140z" />
    <glyph glyph-name="uni0227" unicode="&#x227;" horiz-adv-x="726" 
d="M706 153l-76 20v413l-136 114h-306l-136 -114v-132h187l20 73h139l26 -20v-67l-263 -41l-117 -91v-190l143 -118h200l66 55l20 -55h233v153zM271 247l153 35v-89l-26 -21h-121l-25 21v37zM433 787v118h-140v-118h140z" />
    <glyph glyph-name="uni0228" unicode="&#x228;" horiz-adv-x="705" 
d="M495 -126l-88 72h-57v54h312v245h-148l-20 -73h-168v122h168v120h-168v113h168l20 -73h147v246h-617v-153l76 -20v-355l-76 -20v-152h245v-115h92l42 -32v-12l-42 -32h-132v-61h158l88 72v54z" />
    <glyph glyph-name="uni0229" unicode="&#x229;" horiz-adv-x="667" 
d="M499 -126l-88 72h-57v54h128l142 118v127h-187l-20 -73h-145l-26 21v65l263 43l117 91v190l-143 118h-301l-142 -118v-468l136 -114h117v-115h92l42 -32v-12l-42 -32h-132v-61h158l88 72v54zM399 453l-153 -25v79l26 21h121l25 -21v-37z" />
    <glyph glyph-name="uni022A" unicode="&#x22a;" horiz-adv-x="677" 
d="M633 125v453l-146 122h-297l-146 -122v-453l151 -125h286q38 31 76 62.5t76 62.5zM400 527l27 -21v-311l-28 -23h-121l-28 23v311l27 21h123zM540 767v138h-159v-138h159zM296 767v138h-160v-138h160zM489 1087h-302v-87h302v87z" />
    <glyph glyph-name="uni022B" unicode="&#x22b;" horiz-adv-x="677" 
d="M633 125v453l-146 122h-297l-146 -122v-453l151 -125h286q38 31 76 62.5t76 62.5zM400 527l27 -21v-311l-28 -23h-121l-28 23v311l27 21h123zM540 767v138h-159v-138h159zM296 767v138h-160v-138h160zM489 1087h-302v-87h302v87z" />
    <glyph glyph-name="uni022C" unicode="&#x22c;" horiz-adv-x="677" 
d="M633 125v453l-146 122h-297l-146 -122v-453l151 -125h286q38 31 76 62.5t76 62.5zM400 527l27 -21v-311l-28 -23h-121l-28 23v311l27 21h123zM421 865q-23 0 -42 7.5t-37.5 16.5t-38.5 16.5t-46 7.5q-42 0 -75.5 -21t-55.5 -55l40 -57q23 26 42.5 39.5t45.5 13.5
q20 0 38.5 -7.5t37.5 -16.5t40 -16.5t47 -7.5q40 0 73.5 20.5t56.5 55.5l-40 57q-22 -25 -42 -39t-44 -14zM489 1087h-302v-87h302v87z" />
    <glyph glyph-name="uni022D" unicode="&#x22d;" horiz-adv-x="677" 
d="M633 125v453l-146 122h-297l-146 -122v-453l151 -125h286q38 31 76 62.5t76 62.5zM400 527l27 -21v-311l-28 -23h-121l-28 23v311l27 21h123zM421 865q-23 0 -42 7.5t-37.5 16.5t-38.5 16.5t-46 7.5q-42 0 -75.5 -21t-55.5 -55l40 -57q23 26 42.5 39.5t45.5 13.5
q20 0 38.5 -7.5t37.5 -16.5t40 -16.5t47 -7.5q40 0 73.5 20.5t56.5 55.5l-40 57q-22 -25 -42 -39t-44 -14zM489 1087h-302v-87h302v87z" />
    <glyph glyph-name="uni022E" unicode="&#x22e;" horiz-adv-x="677" 
d="M633 125v453l-146 122h-297l-146 -122v-453l151 -125h286q38 31 76 62.5t76 62.5zM400 527l27 -21v-311l-28 -23h-121l-28 23v311l27 21h123zM408 787v118h-140v-118h140z" />
    <glyph glyph-name="uni022F" unicode="&#x22f;" horiz-adv-x="677" 
d="M633 125v453l-146 122h-297l-146 -122v-453l151 -125h286q38 31 76 62.5t76 62.5zM400 527l27 -21v-311l-28 -23h-121l-28 23v311l27 21h123zM408 787v118h-140v-118h140z" />
    <glyph glyph-name="uni0230" unicode="&#x230;" horiz-adv-x="677" 
d="M633 125v453l-146 122h-297l-146 -122v-453l151 -125h286q38 31 76 62.5t76 62.5zM400 527l27 -21v-311l-28 -23h-121l-28 23v311l27 21h123zM408 787v118h-140v-118h140zM489 1087h-302v-87h302v87z" />
    <glyph glyph-name="uni0231" unicode="&#x231;" horiz-adv-x="677" 
d="M633 125v453l-146 122h-297l-146 -122v-453l151 -125h286q38 31 76 62.5t76 62.5zM400 527l27 -21v-311l-28 -23h-121l-28 23v311l27 21h123zM408 787v118h-140v-118h140zM489 1087h-302v-87h302v87z" />
    <glyph glyph-name="uni0232" unicode="&#x232;" horiz-adv-x="708" 
d="M690 547v153h-277v-153l42 -20l-78 -117l-77 117l41 20v153h-323v-153l61 -20l171 -228v-127l-86 -20v-152h378v152l-85 20v128l169 227zM505 887h-302v-87h302v87z" />
    <glyph glyph-name="uni0233" unicode="&#x233;" 
d="M120 408l143 -118h236v-94l-30 -24h-132l-20 73h-186v-127l142 -118h272l161 134v393l76 20v153h-328v-153l46 -20v-85h-147l-25 21v64l46 20v153h-330v-153l76 -20v-119zM564 887h-302v-87h302v87z" />
    <glyph glyph-name="circumflex" unicode="&#x2c6;" horiz-adv-x="468" 
d="M422 770l-142 150h-91l-145 -150h128l63 91l59 -91h128z" />
    <glyph glyph-name="caron" unicode="&#x2c7;" horiz-adv-x="468" 
d="M278 770l144 150h-128l-62 -92l-60 92h-128l143 -150h91z" />
    <glyph glyph-name="breve" unicode="&#x2d8;" horiz-adv-x="442" 
d="M398 920h-84q0 -33 -23.5 -60t-70.5 -27q-46 0 -71 27t-25 60h-80q0 -26 12 -52.5t34.5 -47.5t55 -34t74.5 -13t75 13t56 34t35 47.5t12 52.5z" />
    <glyph glyph-name="dotaccent" unicode="&#x2d9;" horiz-adv-x="228" 
d="M184 787v118h-140v-118h140z" />
    <glyph glyph-name="ring" unicode="&#x2da;" horiz-adv-x="284" 
d="M42 848q0 -38 29 -64t71 -26t71 26t29 64q0 18 -8 34.5t-21.5 29t-31.5 19.5t-39 7t-39 -7t-31.5 -19.5t-21.5 -29t-8 -34.5zM102 848q0 12 11.5 21t28.5 9t28.5 -9t11.5 -21q0 -13 -11.5 -21.5t-28.5 -8.5t-28.5 8.5t-11.5 21.5z" />
    <glyph glyph-name="ogonek" unicode="&#x2db;" horiz-adv-x="290" 
d="M140 -65l77 65h-109l-64 -54v-114l62 -57h138v80h-86l-18 15v65z" />
    <glyph glyph-name="tilde" unicode="&#x2dc;" horiz-adv-x="509" 
d="M339 865q-23 0 -42 7.5t-37.5 16.5t-38.5 16.5t-46 7.5q-42 0 -75.5 -21t-55.5 -55l40 -57q23 26 42.5 39.5t45.5 13.5q20 0 38.5 -7.5t37.5 -16.5t40 -16.5t47 -7.5q40 0 73.5 20.5t56.5 55.5l-40 57q-22 -25 -42 -39t-44 -14z" />
    <glyph glyph-name="hungarumlaut" unicode="&#x2dd;" horiz-adv-x="710" 
d="M366 891l-55 86l-267 -178l47 -57zM666 891l-55 86l-267 -178l47 -57z" />
    <glyph glyph-name="gravecomb" unicode="&#x300;" horiz-adv-x="394" 
d="M318 775l20 67l-294 112l-30 -107z" />
    <glyph glyph-name="acutecomb" unicode="&#x301;" horiz-adv-x="394" 
d="M378 847l-30 107l-294 -112l20 -67z" />
    <glyph glyph-name="uni0302" unicode="&#x302;" horiz-adv-x="468" 
d="M422 770l-142 150h-91l-145 -150h128l63 91l59 -91h128z" />
    <glyph glyph-name="tildecomb" unicode="&#x303;" horiz-adv-x="509" 
d="M339 865q-23 0 -42 7.5t-37.5 16.5t-38.5 16.5t-46 7.5q-42 0 -75.5 -21t-55.5 -55l40 -57q23 26 42.5 39.5t45.5 13.5q20 0 38.5 -7.5t37.5 -16.5t40 -16.5t47 -7.5q40 0 73.5 20.5t56.5 55.5l-40 57q-22 -25 -42 -39t-44 -14z" />
    <glyph glyph-name="uni0304" unicode="&#x304;" horiz-adv-x="392" 
d="M346 887h-302v-87h302v87z" />
    <glyph glyph-name="uni0306" unicode="&#x306;" horiz-adv-x="442" 
d="M398 920h-84q0 -33 -23.5 -60t-70.5 -27q-46 0 -71 27t-25 60h-80q0 -26 12 -52.5t34.5 -47.5t55 -34t74.5 -13t75 13t56 34t35 47.5t12 52.5z" />
    <glyph glyph-name="uni0307" unicode="&#x307;" horiz-adv-x="228" 
d="M184 787v118h-140v-118h140z" />
    <glyph glyph-name="uni0308" unicode="&#x308;" horiz-adv-x="494" 
d="M448 767v138h-159v-138h159zM204 767v138h-160v-138h160z" />
    <glyph glyph-name="hookabovecomb" unicode="&#x309;" horiz-adv-x="767" 
d="M294 950l-67 57h-141l-69 -57v-55h93v20l12 10h57l12 -10v-27l-82 -68v-58h83v30l102 86v72z" />
    <glyph glyph-name="uni030A" unicode="&#x30a;" horiz-adv-x="284" 
d="M42 848q0 -38 29 -64t71 -26t71 26t29 64q0 18 -8 34.5t-21.5 29t-31.5 19.5t-39 7t-39 -7t-31.5 -19.5t-21.5 -29t-8 -34.5zM102 848q0 12 11.5 21t28.5 9t28.5 -9t11.5 -21q0 -13 -11.5 -21.5t-28.5 -8.5t-28.5 8.5t-11.5 21.5z" />
    <glyph glyph-name="uni030B" unicode="&#x30b;" horiz-adv-x="710" 
d="M366 891l-55 86l-267 -178l47 -57zM666 891l-55 86l-267 -178l47 -57z" />
    <glyph glyph-name="uni030C" unicode="&#x30c;" horiz-adv-x="468" 
d="M278 770l144 150h-128l-62 -92l-60 92h-128l143 -150h91z" />
    <glyph glyph-name="uni030F" unicode="&#x30f;" horiz-adv-x="710" 
d="M619 742l47 57l-267 178l-55 -86zM319 742l47 57l-267 178l-55 -86z" />
    <glyph glyph-name="uni0310" unicode="&#x310;" horiz-adv-x="442" 
d="M398 920h-84q0 -33 -23.5 -60t-70.5 -27q-46 0 -71 27t-25 60h-80q0 -26 12 -52.5t34.5 -47.5t55 -34t74.5 -13t75 13t56 34t35 47.5t12 52.5zM257 886v59h-70v-59h70z" />
    <glyph glyph-name="uni0311" unicode="&#x311;" horiz-adv-x="442" 
d="M398 773q0 26 -12 52.5t-35 47.5t-56 34t-75 13t-74.5 -13t-55 -34t-34.5 -47.5t-12 -52.5h80q0 33 25 60t71 27q47 0 70.5 -27t23.5 -60h84z" />
    <glyph glyph-name="uni0316" unicode="&#x316;" horiz-adv-x="412" 
d="M348 -255l20 67l-294 112l-30 -107z" />
    <glyph glyph-name="uni0317" unicode="&#x317;" horiz-adv-x="412" 
d="M368 -183l-30 107l-294 -112l20 -67z" />
    <glyph glyph-name="dotbelowcomb" unicode="&#x323;" horiz-adv-x="228" 
d="M184 -193v118h-140v-118h140z" />
    <glyph glyph-name="uni0324" unicode="&#x324;" horiz-adv-x="494" 
d="M448 -213v138h-159v-138h159zM204 -213v138h-160v-138h160z" />
    <glyph glyph-name="uni0325" unicode="&#x325;" horiz-adv-x="284" 
d="M42 -165q0 -38 29 -64t71 -26t71 26t29 64q0 18 -8 34.5t-21.5 29t-31.5 19.5t-39 7t-39 -7t-31.5 -19.5t-21.5 -29t-8 -34.5zM102 -165q0 12 11.5 21t28.5 9t28.5 -9t11.5 -21q0 -13 -11.5 -21.5t-28.5 -8.5t-28.5 8.5t-11.5 21.5z" />
    <glyph glyph-name="commaaccent" unicode="&#x326;" horiz-adv-x="216" 
d="M172 -95v53h-122v-42l-22 -80l70 -9z" />
    <glyph glyph-name="uni0327" unicode="&#x327;" horiz-adv-x="334" 
d="M84 43v-158h92l42 -32v-12l-42 -32h-132v-61h158l88 72v54l-88 72h-57v71z" />
    <glyph glyph-name="uni0328" unicode="&#x328;" horiz-adv-x="290" 
d="M140 -65l77 65h-109l-64 -54v-114l62 -57h138v85h-86l-18 15v60z" />
    <glyph glyph-name="uni032C" unicode="&#x32c;" horiz-adv-x="466" 
d="M294 -75l-59 -91l-63 91h-128l145 -150h91l142 150h-128z" />
    <glyph glyph-name="uni032D" unicode="&#x32d;" horiz-adv-x="466" 
d="M422 -225l-142 150h-91l-145 -150h128l63 91l59 -91h128z" />
    <glyph glyph-name="uni032E" unicode="&#x32e;" horiz-adv-x="442" 
d="M398 -75h-84q0 -33 -23.5 -60t-70.5 -27q-46 0 -71 27t-25 60h-80q0 -26 12 -52.5t34.5 -47.5t55 -34t74.5 -13t75 13t56 34t35 47.5t12 52.5z" />
    <glyph glyph-name="uni032F" unicode="&#x32f;" horiz-adv-x="442" 
d="M398 -222q0 26 -12 52.5t-35 47.5t-56 34t-75 13t-74.5 -13t-55 -34t-34.5 -47.5t-12 -52.5h80q0 33 25 60t71 27q47 0 70.5 -27t23.5 -60h84z" />
    <glyph glyph-name="uni0330" unicode="&#x330;" horiz-adv-x="509" 
d="M339 -115q-23 0 -42 7.5t-37.5 16.5t-38.5 16.5t-46 7.5q-42 0 -75.5 -21t-55.5 -55l40 -57q23 26 42.5 39.5t45.5 13.5q20 0 38.5 -7.5t37.5 -16.5t40 -16.5t47 -7.5q40 0 73.5 20.5t56.5 55.5l-40 57q-22 -25 -42 -39t-44 -14z" />
    <glyph glyph-name="uni0331" unicode="&#x331;" horiz-adv-x="390" 
d="M346 -85h-302v-87h302v87z" />
    <glyph glyph-name="uni0400" unicode="&#x400;" horiz-adv-x="705" 
d="M661 454v246h-617v-153l76 -20v-355l-76 -20v-152h618v245h-148l-20 -73h-168v122h168v120h-168v113h168l20 -73h147zM494 775l20 67l-294 112l-30 -107z" />
    <glyph glyph-name="uni0401" unicode="&#x401;" horiz-adv-x="705" 
d="M661 454v246h-617v-153l76 -20v-355l-76 -20v-152h618v245h-148l-20 -73h-168v122h168v120h-168v113h168l20 -73h147zM554 767v138h-159v-138h159zM310 767v138h-160v-138h160z" />
    <glyph glyph-name="uni0402" unicode="&#x402;" horiz-adv-x="827" 
d="M407 286h143l26 -22v-70l-26 -21h-62v-173h150l145 122v196l-145 121h-231v88h164v173h-527v-173h156v-354l-76 -20v-153h283v286z" />
    <glyph glyph-name="uni0403" unicode="&#x403;" horiz-adv-x="686" 
d="M661 411v289h-617v-153l76 -20v-355l-76 -20v-152h378v152l-96 20v367h168l20 -128h147zM505 847l-30 107l-294 -112l20 -67z" />
    <glyph glyph-name="uni0404" unicode="&#x404;" horiz-adv-x="670" 
d="M53 118l143 -118h292l142 118v127h-188l-19 -73h-142l-25 21v100h172v122h-171v92l24 20h142l19 -73h188v132l-136 114h-304l-137 -114v-468z" />
    <glyph glyph-name="uni0405" unicode="&#x405;" horiz-adv-x="667" 
d="M618 586l-136 114h-306l-136 -114v-191l119 -98l240 -40l19 -17v-47l-25 -21h-146l-20 73h-187v-127l142 -118h301l143 118v200l-117 91l-241 40l-22 17v41l26 20h139l20 -73h187v132z" />
    <glyph glyph-name="uni0406" unicode="&#x406;" horiz-adv-x="496" 
d="M426 547v153h-358v-153l76 -20v-355l-76 -20v-152h358v152l-76 20v355z" />
    <glyph glyph-name="uni0407" unicode="&#x407;" horiz-adv-x="496" 
d="M426 547v153h-358v-153l76 -20v-355l-76 -20v-152h358v152l-76 20v355zM450 767v138h-159v-138h159zM206 767v138h-160v-138h160z" />
    <glyph glyph-name="uni0408" unicode="&#x408;" horiz-adv-x="706" 
d="M694 547v153h-387v-153l105 -20v-331l-30 -24h-132l-20 73h-186v-127l142 -118h272l161 134v393z" />
    <glyph glyph-name="uni0409" unicode="&#x409;" horiz-adv-x="1072" 
d="M1028 318l-145 121h-231v90l76 20v151h-470l-161 -134v-394l-76 -20v-152h122l161 134l1 370l29 23h111v-354l-76 -20v-153h514l145 122v196zM652 173v113h143l26 -22v-70l-26 -21h-143z" />
    <glyph glyph-name="uni040A" unicode="&#x40a;" horiz-adv-x="1123" 
d="M846 173h-143v113h143l26 -22v-70zM496 173l-46 -20v-153h484l145 122v196l-145 121h-231v90l76 20v151h-329v-152l46 -20v-114h-169v113l46 20v153h-329v-153l76 -20v-355l-76 -20v-152h329v152l-46 20v122h169v-121z" />
    <glyph glyph-name="uni040B" unicode="&#x40b;" horiz-adv-x="903" 
d="M783 318l-145 121h-231v88h164v173h-527v-173h156v-354l-76 -20v-153h329v152l-46 20v114h143l26 -22v-92l-45 -20v-152h328v152l-76 20v146z" />
    <glyph glyph-name="uni040C" unicode="&#x40c;" horiz-adv-x="803" 
d="M775 547v153h-334v-153l49 -20l-156 -136v136l48 20v153h-338v-153l76 -20v-355l-76 -20v-152h340v152l-50 20v73l80 67l78 -140l-50 -20v-152h333v152l-71 20l-139 261l113 94zM563 847l-30 107l-294 -112l20 -67z" />
    <glyph glyph-name="uni040D" unicode="&#x40d;" 
d="M780 547v153h-329v-153l45 -20v-13l-169 -160v173l46 20v153h-329v-153l76 -20v-355l-76 -20v-152h329v152l-46 20v12l169 160v-172l-45 -20v-152h329v152l-76 20v355zM555 775l20 67l-294 112l-30 -107z" />
    <glyph glyph-name="uni040E" unicode="&#x40e;" 
d="M120 408l143 -118h236v-94l-30 -24h-132l-20 73h-186v-127l142 -118h272l161 134v393l76 20v153h-328v-153l46 -20v-85h-147l-25 21v64l46 20v153h-330v-153l76 -20v-119zM590 920h-84q0 -33 -23.5 -60t-70.5 -27q-46 0 -71 27t-25 60h-80q0 -26 12 -52.5t34.5 -47.5
t55 -34t74.5 -13t75 13t56 34t35 47.5t12 52.5z" />
    <glyph glyph-name="uni040F" unicode="&#x40f;" 
d="M327 528l46 20v152h-329v-152l76 -20v-355l-76 -20v-153h266v-38l-76 -20v-142h358v142l-76 20v38h264v153l-76 20v355l76 20v152h-329v-152l45 -20v-375h-169v375z" />
    <glyph glyph-name="uni0410" unicode="&#x410;" horiz-adv-x="775" 
d="M671 172l-135 528h-404v-153l65 -20l-102 -355l-77 -20v-152h300v152l-49 20l17 62h151l18 -62l-53 -20v-152h355v152zM359 511l45 -157h-89z" />
    <glyph glyph-name="uni0411" unicode="&#x411;" horiz-adv-x="731" 
d="M327 173v113h143l26 -22v-70l-26 -21h-143zM120 173l-76 -20v-153h514l145 122v196l-145 121h-231v88h197l20 -53h147v226h-647v-153l76 -20v-354z" />
    <glyph glyph-name="uni0412" unicode="&#x412;" horiz-adv-x="744" 
d="M694 418v168l-136 114h-514v-153l76 -20v-355l-76 -20v-152h512l142 118v188l-70 58zM327 299h141l24 -20v-86l-26 -21h-139v127zM327 527h139l24 -20v-66l-24 -20h-139v106z" />
    <glyph glyph-name="uni0413" unicode="&#x413;" horiz-adv-x="686" 
d="M661 411v289h-617v-153l76 -20v-355l-76 -20v-152h378v152l-96 20v367h168l20 -128h147z" />
    <glyph glyph-name="uni0414" unicode="&#x414;" horiz-adv-x="773" 
d="M189 0h370l21 -136h147v289l-76 20v354l56 20v153h-449l-161 -134v-393l-76 -20v-289h147zM246 153l59 53v298l29 23h109v-374h-197z" />
    <glyph glyph-name="uni0415" unicode="&#x415;" horiz-adv-x="705" 
d="M661 454v246h-617v-153l76 -20v-355l-76 -20v-152h618v245h-148l-20 -73h-168v122h168v120h-168v113h168l20 -73h147z" />
    <glyph glyph-name="uni0416" unicode="&#x416;" horiz-adv-x="1177" 
d="M742 0v152l-50 20v73l80 67l78 -140l-50 -20v-152h333v152l-71 20l-139 261l113 94l97 20v153h-334v-153l49 -20l-156 -136v136l48 20v153h-303v-153l48 -20v-136l-156 136l49 20v153h-334v-153l97 -20l113 -94l-139 -261l-71 -20v-152h333v152l-50 20l78 140l80 -67v-73
l-50 -20v-152h307z" />
    <glyph glyph-name="uni0417" unicode="&#x417;" horiz-adv-x="674" 
d="M625 586l-137 114h-304l-136 -114v-132h188l19 73h142l24 -20v-72l-24 -20h-147v-122h148l24 -20v-80l-25 -21h-142l-19 73h-188v-127l142 -118h297l143 118v189l-70 58l65 54v167z" />
    <glyph glyph-name="uni0418" unicode="&#x418;" 
d="M780 547v153h-329v-153l45 -20v-13l-169 -160v173l46 20v153h-329v-153l76 -20v-355l-76 -20v-152h329v152l-46 20v12l169 160v-172l-45 -20v-152h329v152l-76 20v355z" />
    <glyph glyph-name="uni0419" unicode="&#x419;" 
d="M780 547v153h-329v-153l45 -20v-13l-169 -160v173l46 20v153h-329v-153l76 -20v-355l-76 -20v-152h329v152l-46 20v12l169 160v-172l-45 -20v-152h329v152l-76 20v355zM590 920h-84q0 -33 -23.5 -60t-70.5 -27q-46 0 -71 27t-25 60h-80q0 -26 12 -52.5t34.5 -47.5t55 -34
t74.5 -13t75 13t56 34t35 47.5t12 52.5z" />
    <glyph glyph-name="uni041A" unicode="&#x41a;" horiz-adv-x="803" 
d="M775 547v153h-334v-153l49 -20l-156 -136v136l48 20v153h-338v-153l76 -20v-355l-76 -20v-152h340v152l-50 20v73l80 67l78 -140l-50 -20v-152h333v152l-71 20l-139 261l113 94z" />
    <glyph glyph-name="uni041B" unicode="&#x41b;" horiz-adv-x="773" 
d="M727 0v152l-76 20v355l56 20v153h-449l-161 -134v-394l-76 -20v-152h122l161 134l1 370l29 23h109v-355l-76 -20v-152h360z" />
    <glyph glyph-name="uni041C" unicode="&#x41c;" horiz-adv-x="962" 
d="M916 547v153h-306l-120 -215l-118 215h-328v-153l76 -20v-355l-76 -20v-152h367v152l-96 20v239l126 -215h78l126 215v-239l-96 -20v-152h367v152l-74 20v355z" />
    <glyph glyph-name="uni041D" unicode="&#x41d;" 
d="M780 547v153h-329v-153l45 -20v-113h-169v113l46 20v153h-329v-153l76 -20v-355l-76 -20v-152h329v152l-46 20v122h169v-122l-45 -20v-152h329v152l-76 20v355z" />
    <glyph glyph-name="uni041E" unicode="&#x41e;" horiz-adv-x="677" 
d="M633 125v453l-146 122h-297l-146 -122v-453l151 -125h286q38 31 76 62.5t76 62.5zM400 527l27 -21v-311l-28 -23h-121l-28 23v311l27 21h123z" />
    <glyph glyph-name="uni041F" unicode="&#x41f;" 
d="M327 547h169v-375l-45 -20v-152h329v152l-76 20v355l76 20v153h-736v-153l76 -20v-355l-76 -20v-152h329v152l-46 20v375z" />
    <glyph glyph-name="uni0420" unicode="&#x420;" horiz-adv-x="731" 
d="M703 578l-145 122h-514v-153l76 -20v-355l-76 -20v-152h359v151l-76 20v70h231l145 121v216zM470 527l26 -21v-70l-26 -22h-143v113h143z" />
    <glyph glyph-name="uni0421" unicode="&#x421;" horiz-adv-x="670" 
d="M624 586l-136 114h-289l-155 -129v-437l161 -134h277q35 29 71 58.5t71 59.5v127h-187l-20 -73h-137l-30 24v308l29 23h138l20 -73h187v132z" />
    <glyph glyph-name="uni0422" unicode="&#x422;" horiz-adv-x="729" 
d="M713 411v289h-696v-289h148l20 127h77v-366l-85 -20v-152h378v152l-86 20v366h77l20 -127h147z" />
    <glyph glyph-name="uni0423" unicode="&#x423;" 
d="M120 408l143 -118h236v-94l-30 -24h-132l-20 73h-186v-127l142 -118h272l161 134v393l76 20v153h-328v-153l46 -20v-85h-147l-25 21v64l46 20v153h-330v-153l76 -20v-119z" />
    <glyph glyph-name="uni0424" unicode="&#x424;" horiz-adv-x="914" 
d="M637 497l26 -21v-50l-26 -22h-76v93h76zM189 670l-145 -122v-196l145 -121h165v-60l-76 -20v-151h359v151l-76 20v60h164l145 121v196l-145 122h-164v70h-207v-70h-165zM354 497v-93h-77l-26 22v50l26 21h77z" />
    <glyph glyph-name="uni0425" unicode="&#x425;" horiz-adv-x="738" 
d="M715 547v153h-254v-153l43 -20l-79 -106l-88 106l54 20v153h-369v-153l82 -20l134 -161l-167 -194l-53 -20v-152h257v152l-48 20l83 112l90 -112l-57 -20v-152h377v152l-76 20l-145 168l161 187z" />
    <glyph glyph-name="uni0426" unicode="&#x426;" 
d="M612 0l21 -166h147v319l-76 20v355l76 20v152h-329v-152l45 -20v-375h-169v375l46 20v152h-329v-152l76 -20v-355l-76 -20v-153h568z" />
    <glyph glyph-name="uni0427" unicode="&#x427;" 
d="M445 250l55 51v-129l-76 -20v-152h358v152l-76 20v355l76 20v153h-338v-153l56 -20v-104l-25 -21h-122l-25 21v104l46 20v153h-330v-153l76 -20v-159l143 -118h182z" />
    <glyph glyph-name="uni0428" unicode="&#x428;" horiz-adv-x="1206" 
d="M1162 0v153l-76 20v354l76 20v153h-328v-153l46 -20v-356h-172v356l46 20v153h-300v-153l46 -20v-356h-172v356l46 20v153h-330v-153l76 -20v-354l-76 -20v-153h1118z" />
    <glyph glyph-name="uni0429" unicode="&#x429;" horiz-adv-x="1206" 
d="M994 0l21 -166h147v319l-76 20v354l76 20v153h-328v-153l46 -20v-356h-172v356l46 20v153h-300v-153l46 -20v-356h-172v356l46 20v153h-330v-153l76 -20v-354l-76 -20v-153h950z" />
    <glyph glyph-name="uni042A" unicode="&#x42a;" horiz-adv-x="915" 
d="M495 173v113h143l26 -22v-70l-26 -21h-143zM288 548v-375l-76 -20v-153h514l145 122v216l-145 121h-231v70l76 20v151h-527v-319h147l21 167h76z" />
    <glyph glyph-name="uni042B" unicode="&#x42b;" horiz-adv-x="1134" 
d="M703 338l-145 121h-231v70l76 20v151h-359v-152l76 -20v-355l-76 -20v-153h514l145 122v216zM327 173v113h143l26 -22v-70l-26 -21h-143zM1090 547v153h-358v-153l76 -20v-355l-76 -20v-152h358v152l-76 20v355z" />
    <glyph glyph-name="uni042C" unicode="&#x42c;" horiz-adv-x="731" 
d="M703 338l-145 121h-231v70l76 20v151h-359v-152l76 -20v-355l-76 -20v-153h514l145 122v216zM327 173v113h143l26 -22v-70l-26 -21h-143z" />
    <glyph glyph-name="uni042D" unicode="&#x42d;" horiz-adv-x="670" 
d="M630 586l-137 114h-304l-136 -114v-132h188l19 73h142l24 -20v-92h-171v-122h172v-100l-25 -21h-142l-19 73h-188v-127l142 -118h292l143 118v468z" />
    <glyph glyph-name="uni042E" unicode="&#x42e;" horiz-adv-x="1082" 
d="M1038 125v453l-146 122h-297l-146 -122v-164h-122v113l46 20v153h-329v-153l76 -20v-355l-76 -20v-152h329v152l-46 20v122h122v-169l151 -125h286q38 31 76 62.5t76 62.5zM805 527l27 -21v-311l-28 -23h-121l-28 23v311l27 21h123z" />
    <glyph glyph-name="uni042F" unicode="&#x42f;" horiz-adv-x="743" 
d="M416 413h-142l-24 20v74l24 20h142v-114zM699 0v152l-76 20v355l76 20v153h-520l-135 -114v-209l99 -84l-76 -121l-53 -10v-162h190l160 273h52v-101l-76 -20v-152h359z" />
    <glyph glyph-name="uni0430" unicode="&#x430;" horiz-adv-x="726" 
d="M706 153l-76 20v413l-136 114h-306l-136 -114v-132h187l20 73h139l26 -20v-67l-263 -41l-117 -91v-190l143 -118h200l66 55l20 -55h233v153zM271 247l153 35v-89l-26 -21h-121l-25 21v37z" />
    <glyph glyph-name="uni0431" unicode="&#x431;" horiz-adv-x="731" 
d="M327 173v113h143l26 -22v-70l-26 -21h-143zM120 173l-76 -20v-153h514l145 122v196l-145 121h-231v88h197l20 -53h147v226h-647v-153l76 -20v-354z" />
    <glyph glyph-name="uni0432" unicode="&#x432;" horiz-adv-x="744" 
d="M694 418v168l-136 114h-514v-153l76 -20v-355l-76 -20v-152h512l142 118v188l-70 58zM327 299h141l24 -20v-86l-26 -21h-139v127zM327 527h139l24 -20v-66l-24 -20h-139v106z" />
    <glyph glyph-name="uni0433" unicode="&#x433;" horiz-adv-x="686" 
d="M661 411v289h-617v-153l76 -20v-355l-76 -20v-152h378v152l-96 20v367h168l20 -128h147z" />
    <glyph glyph-name="uni0434" unicode="&#x434;" horiz-adv-x="773" 
d="M189 0h370l21 -136h147v289l-76 20v354l56 20v153h-449l-161 -134v-393l-76 -20v-289h147zM246 153l59 53v298l29 23h109v-374h-197z" />
    <glyph glyph-name="uni0435" unicode="&#x435;" horiz-adv-x="667" 
d="M624 245h-187l-20 -73h-145l-26 21v65l263 43l117 91v190l-143 118h-301l-142 -118v-468l136 -114h306l142 118v127zM399 453l-153 -25v79l26 21h121l25 -21v-37z" />
    <glyph glyph-name="uni0436" unicode="&#x436;" horiz-adv-x="1177" 
d="M742 0v152l-50 20v73l80 67l78 -140l-50 -20v-152h333v152l-71 20l-139 261l113 94l97 20v153h-334v-153l49 -20l-156 -136v136l48 20v153h-303v-153l48 -20v-136l-156 136l49 20v153h-334v-153l97 -20l113 -94l-139 -261l-71 -20v-152h333v152l-50 20l78 140l80 -67v-73
l-50 -20v-152h307z" />
    <glyph glyph-name="uni0437" unicode="&#x437;" horiz-adv-x="674" 
d="M625 586l-137 114h-304l-136 -114v-132h188l19 73h142l24 -20v-72l-24 -20h-147v-122h148l24 -20v-80l-25 -21h-142l-19 73h-188v-127l142 -118h297l143 118v189l-70 58l65 54v167z" />
    <glyph glyph-name="uni0438" unicode="&#x438;" 
d="M780 547v153h-329v-153l45 -20v-13l-169 -160v173l46 20v153h-329v-153l76 -20v-355l-76 -20v-152h329v152l-46 20v12l169 160v-172l-45 -20v-152h329v152l-76 20v355z" />
    <glyph glyph-name="uni0439" unicode="&#x439;" 
d="M780 547v153h-329v-153l45 -20v-13l-169 -160v173l46 20v153h-329v-153l76 -20v-355l-76 -20v-152h329v152l-46 20v12l169 160v-172l-45 -20v-152h329v152l-76 20v355zM590 920h-84q0 -33 -23.5 -60t-70.5 -27q-46 0 -71 27t-25 60h-80q0 -26 12 -52.5t34.5 -47.5t55 -34
t74.5 -13t75 13t56 34t35 47.5t12 52.5z" />
    <glyph glyph-name="uni043A" unicode="&#x43a;" horiz-adv-x="803" 
d="M775 547v153h-334v-153l49 -20l-156 -136v136l48 20v153h-338v-153l76 -20v-355l-76 -20v-152h340v152l-50 20v73l80 67l78 -140l-50 -20v-152h333v152l-71 20l-139 261l113 94z" />
    <glyph glyph-name="uni043B" unicode="&#x43b;" horiz-adv-x="773" 
d="M727 0v152l-76 20v355l56 20v153h-449l-161 -134v-394l-76 -20v-152h122l161 134l1 370l29 23h109v-355l-76 -20v-152h360z" />
    <glyph glyph-name="uni043C" unicode="&#x43c;" horiz-adv-x="962" 
d="M916 547v153h-306l-120 -215l-118 215h-328v-153l76 -20v-355l-76 -20v-152h367v152l-96 20v239l126 -215h78l126 215v-239l-96 -20v-152h367v152l-74 20v355z" />
    <glyph glyph-name="uni043D" unicode="&#x43d;" 
d="M780 547v153h-329v-153l45 -20v-113h-169v113l46 20v153h-329v-153l76 -20v-355l-76 -20v-152h329v152l-46 20v122h169v-122l-45 -20v-152h329v152l-76 20v355z" />
    <glyph glyph-name="uni043E" unicode="&#x43e;" horiz-adv-x="677" 
d="M633 125v453l-146 122h-297l-146 -122v-453l151 -125h286q38 31 76 62.5t76 62.5zM400 527l27 -21v-311l-28 -23h-121l-28 23v311l27 21h123z" />
    <glyph glyph-name="uni043F" unicode="&#x43f;" 
d="M327 547h169v-375l-45 -20v-152h329v152l-76 20v355l76 20v153h-736v-153l76 -20v-355l-76 -20v-152h329v152l-46 20v375z" />
    <glyph glyph-name="uni0440" unicode="&#x440;" horiz-adv-x="731" 
d="M703 578l-145 122h-514v-153l76 -20v-355l-76 -20v-152h359v151l-76 20v70h231l145 121v216zM470 527l26 -21v-70l-26 -22h-143v113h143z" />
    <glyph glyph-name="uni0441" unicode="&#x441;" horiz-adv-x="670" 
d="M624 586l-136 114h-289l-155 -129v-437l161 -134h277q35 29 71 58.5t71 59.5v127h-187l-20 -73h-137l-30 24v308l29 23h138l20 -73h187v132z" />
    <glyph glyph-name="uni0442" unicode="&#x442;" horiz-adv-x="729" 
d="M713 411v289h-696v-289h148l20 127h77v-366l-85 -20v-152h378v152l-86 20v366h77l20 -127h147z" />
    <glyph glyph-name="uni0443" unicode="&#x443;" 
d="M120 408l143 -118h236v-94l-30 -24h-132l-20 73h-186v-127l142 -118h272l161 134v393l76 20v153h-328v-153l46 -20v-85h-147l-25 21v64l46 20v153h-330v-153l76 -20v-119z" />
    <glyph glyph-name="uni0444" unicode="&#x444;" horiz-adv-x="914" 
d="M637 497l26 -21v-50l-26 -22h-76v93h76zM189 670l-145 -122v-196l145 -121h165v-60l-76 -20v-151h359v151l-76 20v60h164l145 121v196l-145 122h-164v70h-207v-70h-165zM354 497v-93h-77l-26 22v50l26 21h77z" />
    <glyph glyph-name="uni0445" unicode="&#x445;" horiz-adv-x="738" 
d="M715 547v153h-254v-153l43 -20l-79 -106l-88 106l54 20v153h-369v-153l82 -20l134 -161l-167 -194l-53 -20v-152h257v152l-48 20l83 112l90 -112l-57 -20v-152h377v152l-76 20l-145 168l161 187z" />
    <glyph glyph-name="uni0446" unicode="&#x446;" 
d="M612 0l21 -166h147v319l-76 20v355l76 20v152h-329v-152l45 -20v-375h-169v375l46 20v152h-329v-152l76 -20v-355l-76 -20v-153h568z" />
    <glyph glyph-name="uni0447" unicode="&#x447;" 
d="M445 250l55 51v-129l-76 -20v-152h358v152l-76 20v355l76 20v153h-338v-153l56 -20v-104l-25 -21h-122l-25 21v104l46 20v153h-330v-153l76 -20v-159l143 -118h182z" />
    <glyph glyph-name="uni0448" unicode="&#x448;" horiz-adv-x="1206" 
d="M1162 0v153l-76 20v354l76 20v153h-328v-153l46 -20v-356h-172v356l46 20v153h-300v-153l46 -20v-356h-172v356l46 20v153h-330v-153l76 -20v-354l-76 -20v-153h1118z" />
    <glyph glyph-name="uni0449" unicode="&#x449;" horiz-adv-x="1206" 
d="M994 0l21 -166h147v319l-76 20v354l76 20v153h-328v-153l46 -20v-356h-172v356l46 20v153h-300v-153l46 -20v-356h-172v356l46 20v153h-330v-153l76 -20v-354l-76 -20v-153h950z" />
    <glyph glyph-name="uni044A" unicode="&#x44a;" horiz-adv-x="915" 
d="M495 173v113h143l26 -22v-70l-26 -21h-143zM288 548v-375l-76 -20v-153h514l145 122v216l-145 121h-231v70l76 20v151h-527v-319h147l21 167h76z" />
    <glyph glyph-name="uni044B" unicode="&#x44b;" horiz-adv-x="1134" 
d="M703 338l-145 121h-231v70l76 20v151h-359v-152l76 -20v-355l-76 -20v-153h514l145 122v216zM327 173v113h143l26 -22v-70l-26 -21h-143zM1090 547v153h-358v-153l76 -20v-355l-76 -20v-152h358v152l-76 20v355z" />
    <glyph glyph-name="uni044C" unicode="&#x44c;" horiz-adv-x="731" 
d="M703 338l-145 121h-231v70l76 20v151h-359v-152l76 -20v-355l-76 -20v-153h514l145 122v216zM327 173v113h143l26 -22v-70l-26 -21h-143z" />
    <glyph glyph-name="uni044D" unicode="&#x44d;" horiz-adv-x="670" 
d="M630 586l-137 114h-304l-136 -114v-132h188l19 73h142l24 -20v-92h-171v-122h172v-100l-25 -21h-142l-19 73h-188v-127l142 -118h292l143 118v468z" />
    <glyph glyph-name="uni044E" unicode="&#x44e;" horiz-adv-x="1082" 
d="M1038 125v453l-146 122h-297l-146 -122v-164h-122v113l46 20v153h-329v-153l76 -20v-355l-76 -20v-152h329v152l-46 20v122h122v-169l151 -125h286q38 31 76 62.5t76 62.5zM805 527l27 -21v-311l-28 -23h-121l-28 23v311l27 21h123z" />
    <glyph glyph-name="uni044F" unicode="&#x44f;" horiz-adv-x="743" 
d="M416 413h-142l-24 20v74l24 20h142v-114zM699 0v152l-76 20v355l76 20v153h-520l-135 -114v-209l99 -84l-76 -121l-53 -10v-162h190l160 273h52v-101l-76 -20v-152h359z" />
    <glyph glyph-name="uni0450" unicode="&#x450;" horiz-adv-x="667" 
d="M624 245h-187l-20 -73h-145l-26 21v65l263 43l117 91v190l-143 118h-301l-142 -118v-468l136 -114h306l142 118v127zM399 453l-153 -25v79l26 21h121l25 -21v-37zM475 775l20 67l-294 112l-30 -107z" />
    <glyph glyph-name="uni0451" unicode="&#x451;" horiz-adv-x="667" 
d="M624 245h-187l-20 -73h-145l-26 21v65l263 43l117 91v190l-143 118h-301l-142 -118v-468l136 -114h306l142 118v127zM399 453l-153 -25v79l26 21h121l25 -21v-37zM535 767v138h-159v-138h159zM291 767v138h-160v-138h160z" />
    <glyph glyph-name="uni0452" unicode="&#x452;" horiz-adv-x="827" 
d="M407 286h143l26 -22v-70l-26 -21h-62v-173h150l145 122v196l-145 121h-231v88h164v173h-527v-173h156v-354l-76 -20v-153h283v286z" />
    <glyph glyph-name="uni0453" unicode="&#x453;" horiz-adv-x="686" 
d="M661 411v289h-617v-153l76 -20v-355l-76 -20v-152h378v152l-96 20v367h168l20 -128h147zM505 847l-30 107l-294 -112l20 -67z" />
    <glyph glyph-name="uni0454" unicode="&#x454;" horiz-adv-x="670" 
d="M53 118l143 -118h292l142 118v127h-188l-19 -73h-142l-25 21v100h172v122h-171v92l24 20h142l19 -73h188v132l-136 114h-304l-137 -114v-468z" />
    <glyph glyph-name="uni0455" unicode="&#x455;" horiz-adv-x="667" 
d="M618 586l-136 114h-306l-136 -114v-191l119 -98l240 -40l19 -17v-47l-25 -21h-146l-20 73h-187v-127l142 -118h301l143 118v200l-117 91l-241 40l-22 17v41l26 20h139l20 -73h187v132z" />
    <glyph glyph-name="uni0456" unicode="&#x456;" horiz-adv-x="496" 
d="M426 547v153h-358v-153l76 -20v-355l-76 -20v-152h358v152l-76 20v355z" />
    <glyph glyph-name="uni0457" unicode="&#x457;" horiz-adv-x="496" 
d="M426 547v153h-358v-153l76 -20v-355l-76 -20v-152h358v152l-76 20v355zM450 767v138h-159v-138h159zM206 767v138h-160v-138h160z" />
    <glyph glyph-name="uni0458" unicode="&#x458;" horiz-adv-x="706" 
d="M694 547v153h-387v-153l105 -20v-331l-30 -24h-132l-20 73h-186v-127l142 -118h272l161 134v393z" />
    <glyph glyph-name="uni0459" unicode="&#x459;" horiz-adv-x="1072" 
d="M1028 318l-145 121h-231v90l76 20v151h-470l-161 -134v-394l-76 -20v-152h122l161 134l1 370l29 23h111v-354l-76 -20v-153h514l145 122v196zM652 173v113h143l26 -22v-70l-26 -21h-143z" />
    <glyph glyph-name="uni045A" unicode="&#x45a;" horiz-adv-x="1123" 
d="M846 173h-143v113h143l26 -22v-70zM496 173l-46 -20v-153h484l145 122v196l-145 121h-231v90l76 20v151h-329v-152l46 -20v-114h-169v113l46 20v153h-329v-153l76 -20v-355l-76 -20v-152h329v152l-46 20v122h169v-121z" />
    <glyph glyph-name="uni045B" unicode="&#x45b;" horiz-adv-x="903" 
d="M783 318l-145 121h-231v88h164v173h-527v-173h156v-354l-76 -20v-153h329v152l-46 20v114h143l26 -22v-92l-45 -20v-152h328v152l-76 20v146z" />
    <glyph glyph-name="uni045C" unicode="&#x45c;" horiz-adv-x="803" 
d="M775 547v153h-334v-153l49 -20l-156 -136v136l48 20v153h-338v-153l76 -20v-355l-76 -20v-152h340v152l-50 20v73l80 67l78 -140l-50 -20v-152h333v152l-71 20l-139 261l113 94zM563 847l-30 107l-294 -112l20 -67z" />
    <glyph glyph-name="uni045D" unicode="&#x45d;" 
d="M780 547v153h-329v-153l45 -20v-13l-169 -160v173l46 20v153h-329v-153l76 -20v-355l-76 -20v-152h329v152l-46 20v12l169 160v-172l-45 -20v-152h329v152l-76 20v355zM555 775l20 67l-294 112l-30 -107z" />
    <glyph glyph-name="uni045E" unicode="&#x45e;" 
d="M120 408l143 -118h236v-94l-30 -24h-132l-20 73h-186v-127l142 -118h272l161 134v393l76 20v153h-328v-153l46 -20v-85h-147l-25 21v64l46 20v153h-330v-153l76 -20v-119zM590 920h-84q0 -33 -23.5 -60t-70.5 -27q-46 0 -71 27t-25 60h-80q0 -26 12 -52.5t34.5 -47.5
t55 -34t74.5 -13t75 13t56 34t35 47.5t12 52.5z" />
    <glyph glyph-name="uni045F" unicode="&#x45f;" 
d="M327 528l46 20v152h-329v-152l76 -20v-355l-76 -20v-153h266v-38l-76 -20v-142h358v142l-76 20v38h264v153l-76 20v355l76 20v152h-329v-152l45 -20v-375h-169v375z" />
    <glyph glyph-name="uni0490" unicode="&#x490;" horiz-adv-x="655" 
d="M631 539v289h-147l-20 -128h-420v-153l76 -20v-355l-76 -20v-152h378v152l-96 20v367h305z" />
    <glyph glyph-name="uni0491" unicode="&#x491;" horiz-adv-x="655" 
d="M631 539v289h-147l-20 -128h-420v-153l76 -20v-355l-76 -20v-152h378v152l-96 20v367h305z" />
    <glyph glyph-name="uni04AE" unicode="&#x4ae;" horiz-adv-x="708" 
d="M690 547v153h-277v-153l42 -20l-78 -117l-77 117l41 20v153h-323v-153l61 -20l171 -228v-127l-86 -20v-152h378v152l-85 20v128l169 227z" />
    <glyph glyph-name="uni04AF" unicode="&#x4af;" horiz-adv-x="708" 
d="M690 547v153h-277v-153l42 -20l-78 -117l-77 117l41 20v153h-323v-153l61 -20l171 -228v-127l-86 -20v-152h378v152l-85 20v128l169 227z" />
    <glyph glyph-name="uni04BA" unicode="&#x4ba;" horiz-adv-x="823" 
d="M120 173l-76 -20v-153h329v152l-46 20v114h143l26 -22v-92l-45 -20v-152h328v152l-76 20v146l-145 121h-232v88l76 20v153h-358v-153l76 -20v-354z" />
    <glyph glyph-name="uni04BB" unicode="&#x4bb;" horiz-adv-x="823" 
d="M120 173l-76 -20v-153h329v152l-46 20v114h143l26 -22v-92l-45 -20v-152h328v152l-76 20v146l-145 121h-232v88l76 20v153h-358v-153l76 -20v-354z" />
    <glyph glyph-name="uni04C0" unicode="&#x4c0;" horiz-adv-x="496" 
d="M426 547v153h-358v-153l76 -20v-355l-76 -20v-152h358v152l-76 20v355z" />
    <glyph glyph-name="uni04C1" unicode="&#x4c1;" horiz-adv-x="1177" 
d="M742 0v152l-50 20v73l80 67l78 -140l-50 -20v-152h333v152l-71 20l-139 261l113 94l97 20v153h-334v-153l49 -20l-156 -136v136l48 20v153h-303v-153l48 -20v-136l-156 136l49 20v153h-334v-153l97 -20l113 -94l-139 -261l-71 -20v-152h333v152l-50 20l78 140l80 -67v-73
l-50 -20v-152h307zM765 920h-84q0 -33 -23.5 -60t-70.5 -27q-46 0 -71 27t-25 60h-80q0 -26 12 -52.5t34.5 -47.5t55 -34t74.5 -13t75 13t56 34t35 47.5t12 52.5z" />
    <glyph glyph-name="uni04C2" unicode="&#x4c2;" horiz-adv-x="1177" 
d="M742 0v152l-50 20v73l80 67l78 -140l-50 -20v-152h333v152l-71 20l-139 261l113 94l97 20v153h-334v-153l49 -20l-156 -136v136l48 20v153h-303v-153l48 -20v-136l-156 136l49 20v153h-334v-153l97 -20l113 -94l-139 -261l-71 -20v-152h333v152l-50 20l78 140l80 -67v-73
l-50 -20v-152h307zM765 920h-84q0 -33 -23.5 -60t-70.5 -27q-46 0 -71 27t-25 60h-80q0 -26 12 -52.5t34.5 -47.5t55 -34t74.5 -13t75 13t56 34t35 47.5t12 52.5z" />
    <glyph glyph-name="uni04D0" unicode="&#x4d0;" horiz-adv-x="775" 
d="M671 172l-135 528h-404v-153l65 -20l-102 -355l-77 -20v-152h300v152l-49 20l17 62h151l18 -62l-53 -20v-152h355v152zM359 511l45 -157h-89zM564 920h-84q0 -33 -23.5 -60t-70.5 -27q-46 0 -71 27t-25 60h-80q0 -26 12 -52.5t34.5 -47.5t55 -34t74.5 -13t75 13t56 34
t35 47.5t12 52.5z" />
    <glyph glyph-name="uni04D1" unicode="&#x4d1;" horiz-adv-x="750" 
d="M706 153l-76 20v413l-136 114h-306l-136 -114v-132h187l20 73h139l26 -20v-67l-263 -41l-117 -91v-190l143 -118h200l66 55l20 -55h233v153zM271 247l153 35v-89l-26 -21h-121l-25 21v37zM552 920h-84q0 -33 -23.5 -60t-70.5 -27q-46 0 -71 27t-25 60h-80q0 -26 12 -52.5
t34.5 -47.5t55 -34t74.5 -13t75 13t56 34t35 47.5t12 52.5z" />
    <glyph glyph-name="uni04D2" unicode="&#x4d2;" horiz-adv-x="775" 
d="M671 172l-135 528h-404v-153l65 -20l-102 -355l-77 -20v-152h300v152l-49 20l17 62h151l18 -62l-53 -20v-152h355v152zM359 511l45 -157h-89zM589 767v138h-159v-138h159zM345 767v138h-160v-138h160z" />
    <glyph glyph-name="uni04D3" unicode="&#x4d3;" horiz-adv-x="750" 
d="M706 153l-76 20v413l-136 114h-306l-136 -114v-132h187l20 73h139l26 -20v-67l-263 -41l-117 -91v-190l143 -118h200l66 55l20 -55h233v153zM271 247l153 35v-89l-26 -21h-121l-25 21v37zM577 767v138h-159v-138h159zM333 767v138h-160v-138h160z" />
    <glyph glyph-name="uni04D4" unicode="&#x4d4;" horiz-adv-x="1042" 
d="M994 474v226h-864v-153l65 -20l-102 -355l-77 -20v-152h300v152l-49 20l17 62h169v-62l-53 -20v-152h595v225h-148l-20 -53h-168v122h107l10 -49h110v209h-110l-10 -40h-107v113h168l20 -53h147zM357 511h96v-157h-140z" />
    <glyph glyph-name="uni04D5" unicode="&#x4d5;" horiz-adv-x="1054" 
d="M1002 236h-207v-43l-24 -20h-115l-26 20v41l22 17l241 40l117 91v200l-143 118h-301l-36 -30l-36 30h-306l-136 -114v-122h207v43l24 20h115l26 -20v-41l-22 -17l-241 -40l-117 -91v-200l143 -118h200l66 55l20 -55h393l136 114v122zM271 257l153 25v-89l-26 -21h-121
l-25 21v47zM783 443l-153 -25v89l26 21h121l25 -21v-47z" />
    <glyph glyph-name="uni04D6" unicode="&#x4d6;" horiz-adv-x="705" 
d="M661 454v246h-617v-153l76 -20v-355l-76 -20v-152h618v245h-148l-20 -73h-168v122h168v120h-168v113h168l20 -73h147zM529 920h-84q0 -33 -23.5 -60t-70.5 -27q-46 0 -71 27t-25 60h-80q0 -26 12 -52.5t34.5 -47.5t55 -34t74.5 -13t75 13t56 34t35 47.5t12 52.5z" />
    <glyph glyph-name="uni04D7" unicode="&#x4d7;" horiz-adv-x="667" 
d="M624 245h-187l-20 -73h-145l-26 21v65l263 43l117 91v190l-143 118h-301l-142 -118v-468l136 -114h306l142 118v127zM399 453l-153 -25v79l26 21h121l25 -21v-37zM510 920h-84q0 -33 -23.5 -60t-70.5 -27q-46 0 -71 27t-25 60h-80q0 -26 12 -52.5t34.5 -47.5t55 -34
t74.5 -13t75 13t56 34t35 47.5t12 52.5z" />
    <glyph glyph-name="uni04D8" unicode="&#x4d8;" horiz-adv-x="667" 
d="M42 485h187l20 43h145l26 -21v-78h-380v-311l143 -118h301l142 118v468l-136 114h-306l-142 -118v-97zM420 272v-79l-26 -21h-121l-25 21v80z" />
    <glyph glyph-name="uni04D9" unicode="&#x4d9;" horiz-adv-x="667" 
d="M42 485h187l20 43h145l26 -21v-78h-380v-311l143 -118h301l142 118v468l-136 114h-306l-142 -118v-97zM420 272v-79l-26 -21h-121l-25 21v80z" />
    <glyph glyph-name="uni04DA" unicode="&#x4da;" horiz-adv-x="667" 
d="M42 485h187l20 43h145l26 -21v-78h-380v-311l143 -118h301l142 118v468l-136 114h-306l-142 -118v-97zM420 272v-79l-26 -21h-121l-25 21v80zM535 767v138h-159v-138h159zM291 767v138h-160v-138h160z" />
    <glyph glyph-name="uni04DB" unicode="&#x4db;" horiz-adv-x="667" 
d="M42 485h187l20 43h145l26 -21v-78h-380v-311l143 -118h301l142 118v468l-136 114h-306l-142 -118v-97zM420 272v-79l-26 -21h-121l-25 21v80zM535 767v138h-159v-138h159zM291 767v138h-160v-138h160z" />
    <glyph glyph-name="uni04DC" unicode="&#x4dc;" horiz-adv-x="1177" 
d="M742 0v152l-50 20v73l80 67l78 -140l-50 -20v-152h333v152l-71 20l-139 261l113 94l97 20v153h-334v-153l49 -20l-156 -136v136l48 20v153h-303v-153l48 -20v-136l-156 136l49 20v153h-334v-153l97 -20l113 -94l-139 -261l-71 -20v-152h333v152l-50 20l78 140l80 -67v-73
l-50 -20v-152h307zM546 767v138h-160v-138h160zM790 767v138h-159v-138h159z" />
    <glyph glyph-name="uni04DD" unicode="&#x4dd;" horiz-adv-x="1177" 
d="M742 0v152l-50 20v73l80 67l78 -140l-50 -20v-152h333v152l-71 20l-139 261l113 94l97 20v153h-334v-153l49 -20l-156 -136v136l48 20v153h-303v-153l48 -20v-136l-156 136l49 20v153h-334v-153l97 -20l113 -94l-139 -261l-71 -20v-152h333v152l-50 20l78 140l80 -67v-73
l-50 -20v-152h307zM546 767v138h-160v-138h160zM790 767v138h-159v-138h159z" />
    <glyph glyph-name="uni04DE" unicode="&#x4de;" horiz-adv-x="674" 
d="M625 586l-137 114h-304l-136 -114v-132h188l19 73h142l24 -20v-72l-24 -20h-147v-122h148l24 -20v-80l-25 -21h-142l-19 73h-188v-127l142 -118h297l143 118v189l-70 58l65 54v167zM539 767v138h-159v-138h159zM295 767v138h-160v-138h160z" />
    <glyph glyph-name="uni04DF" unicode="&#x4df;" horiz-adv-x="674" 
d="M625 586l-137 114h-304l-136 -114v-132h188l19 73h142l24 -20v-72l-24 -20h-147v-122h148l24 -20v-80l-25 -21h-142l-19 73h-188v-127l142 -118h297l143 118v189l-70 58l65 54v167zM539 767v138h-159v-138h159zM295 767v138h-160v-138h160z" />
    <glyph glyph-name="uni04E2" unicode="&#x4e2;" 
d="M780 547v153h-329v-153l45 -20v-13l-169 -160v173l46 20v153h-329v-153l76 -20v-355l-76 -20v-152h329v152l-46 20v12l169 160v-172l-45 -20v-152h329v152l-76 20v355zM564 887h-302v-87h302v87z" />
    <glyph glyph-name="uni04E3" unicode="&#x4e3;" 
d="M780 547v153h-329v-153l45 -20v-13l-169 -160v173l46 20v153h-329v-153l76 -20v-355l-76 -20v-152h329v152l-46 20v12l169 160v-172l-45 -20v-152h329v152l-76 20v355zM564 887h-302v-87h302v87z" />
    <glyph glyph-name="uni04E4" unicode="&#x4e4;" 
d="M780 547v153h-329v-153l45 -20v-13l-169 -160v173l46 20v153h-329v-153l76 -20v-355l-76 -20v-152h329v152l-46 20v12l169 160v-172l-45 -20v-152h329v152l-76 20v355zM615 767v138h-159v-138h159zM371 767v138h-160v-138h160z" />
    <glyph glyph-name="uni04E5" unicode="&#x4e5;" 
d="M780 547v153h-329v-153l45 -20v-13l-169 -160v173l46 20v153h-329v-153l76 -20v-355l-76 -20v-152h329v152l-46 20v12l169 160v-172l-45 -20v-152h329v152l-76 20v355zM615 767v138h-159v-138h159zM371 767v138h-160v-138h160z" />
    <glyph glyph-name="uni04E6" unicode="&#x4e6;" horiz-adv-x="677" 
d="M633 125v453l-146 122h-297l-146 -122v-453l151 -125h286q38 31 76 62.5t76 62.5zM400 527l27 -21v-311l-28 -23h-121l-28 23v311l27 21h123zM540 767v138h-159v-138h159zM296 767v138h-160v-138h160z" />
    <glyph glyph-name="uni04E7" unicode="&#x4e7;" horiz-adv-x="677" 
d="M633 125v453l-146 122h-297l-146 -122v-453l151 -125h286q38 31 76 62.5t76 62.5zM400 527l27 -21v-311l-28 -23h-121l-28 23v311l27 21h123zM540 767v138h-159v-138h159zM296 767v138h-160v-138h160z" />
    <glyph glyph-name="uni04E8" unicode="&#x4e8;" horiz-adv-x="677" 
d="M633 125v453l-146 122h-297l-146 -122v-453l151 -125h286q38 31 76 62.5t76 62.5zM400 527l27 -21v-99h-177v99l27 21h123zM399 172h-121l-28 23v90h177v-90z" />
    <glyph glyph-name="uni04E9" unicode="&#x4e9;" horiz-adv-x="677" 
d="M633 125v453l-146 122h-297l-146 -122v-453l151 -125h286q38 31 76 62.5t76 62.5zM400 527l27 -21v-99h-177v99l27 21h123zM399 172h-121l-28 23v90h177v-90z" />
    <glyph glyph-name="uni04EA" unicode="&#x4ea;" horiz-adv-x="677" 
d="M633 125v453l-146 122h-297l-146 -122v-453l151 -125h286q38 31 76 62.5t76 62.5zM400 527l27 -21v-99h-177v99l27 21h123zM399 172h-121l-28 23v90h177v-90zM540 767v138h-159v-138h159zM296 767v138h-160v-138h160z" />
    <glyph glyph-name="uni04EB" unicode="&#x4eb;" horiz-adv-x="677" 
d="M633 125v453l-146 122h-297l-146 -122v-453l151 -125h286q38 31 76 62.5t76 62.5zM400 527l27 -21v-99h-177v99l27 21h123zM399 172h-121l-28 23v90h177v-90zM540 767v138h-159v-138h159zM296 767v138h-160v-138h160z" />
    <glyph glyph-name="uni04EC" unicode="&#x4ec;" horiz-adv-x="670" 
d="M630 586l-137 114h-304l-136 -114v-132h188l19 73h142l24 -20v-92h-171v-122h172v-100l-25 -21h-142l-19 73h-188v-127l142 -118h292l143 118v468zM537 767v138h-159v-138h159zM293 767v138h-160v-138h160z" />
    <glyph glyph-name="uni04ED" unicode="&#x4ed;" horiz-adv-x="670" 
d="M630 586l-137 114h-304l-136 -114v-132h188l19 73h142l24 -20v-92h-171v-122h172v-100l-25 -21h-142l-19 73h-188v-127l142 -118h292l143 118v468zM537 767v138h-159v-138h159zM293 767v138h-160v-138h160z" />
    <glyph glyph-name="uni04EE" unicode="&#x4ee;" 
d="M120 408l143 -118h236v-94l-30 -24h-132l-20 73h-186v-127l142 -118h272l161 134v393l76 20v153h-328v-153l46 -20v-85h-147l-25 21v64l46 20v153h-330v-153l76 -20v-119zM564 887h-302v-87h302v87z" />
    <glyph glyph-name="uni04EF" unicode="&#x4ef;" 
d="M120 408l143 -118h236v-94l-30 -24h-132l-20 73h-186v-127l142 -118h272l161 134v393l76 20v153h-328v-153l46 -20v-85h-147l-25 21v64l46 20v153h-330v-153l76 -20v-119zM564 887h-302v-87h302v87z" />
    <glyph glyph-name="uni04F0" unicode="&#x4f0;" 
d="M120 408l143 -118h236v-94l-30 -24h-132l-20 73h-186v-127l142 -118h272l161 134v393l76 20v153h-328v-153l46 -20v-85h-147l-25 21v64l46 20v153h-330v-153l76 -20v-119zM615 767v138h-159v-138h159zM371 767v138h-160v-138h160z" />
    <glyph glyph-name="uni04F1" unicode="&#x4f1;" 
d="M120 408l143 -118h236v-94l-30 -24h-132l-20 73h-186v-127l142 -118h272l161 134v393l76 20v153h-328v-153l46 -20v-85h-147l-25 21v64l46 20v153h-330v-153l76 -20v-119zM615 767v138h-159v-138h159zM371 767v138h-160v-138h160z" />
    <glyph glyph-name="uni04F2" unicode="&#x4f2;" 
d="M120 408l143 -118h236v-94l-30 -24h-132l-20 73h-186v-127l142 -118h272l161 134v393l76 20v153h-328v-153l46 -20v-85h-147l-25 21v64l46 20v153h-330v-153l76 -20v-119zM424 891l-55 86l-267 -178l47 -57zM724 891l-55 86l-267 -178l47 -57z" />
    <glyph glyph-name="uni04F3" unicode="&#x4f3;" 
d="M120 408l143 -118h236v-94l-30 -24h-132l-20 73h-186v-127l142 -118h272l161 134v393l76 20v153h-328v-153l46 -20v-85h-147l-25 21v64l46 20v153h-330v-153l76 -20v-119zM424 891l-55 86l-267 -178l47 -57zM724 891l-55 86l-267 -178l47 -57z" />
    <glyph glyph-name="uni04F4" unicode="&#x4f4;" 
d="M445 250l55 51v-129l-76 -20v-152h358v152l-76 20v355l76 20v153h-338v-153l56 -20v-104l-25 -21h-122l-25 21v104l46 20v153h-330v-153l76 -20v-159l143 -118h182zM615 767v138h-159v-138h159zM371 767v138h-160v-138h160z" />
    <glyph glyph-name="uni04F5" unicode="&#x4f5;" 
d="M445 250l55 51v-129l-76 -20v-152h358v152l-76 20v355l76 20v153h-338v-153l56 -20v-104l-25 -21h-122l-25 21v104l46 20v153h-330v-153l76 -20v-159l143 -118h182zM615 767v138h-159v-138h159zM371 767v138h-160v-138h160z" />
    <glyph glyph-name="uni04F8" unicode="&#x4f8;" horiz-adv-x="1134" 
d="M703 338l-145 121h-231v70l76 20v151h-359v-152l76 -20v-355l-76 -20v-153h514l145 122v216zM327 173v113h143l26 -22v-70l-26 -21h-143zM1090 547v153h-358v-153l76 -20v-355l-76 -20v-152h358v152l-76 20v355zM769 767v138h-159v-138h159zM525 767v138h-160v-138h160z
" />
    <glyph glyph-name="uni04F9" unicode="&#x4f9;" horiz-adv-x="1134" 
d="M703 338l-145 121h-231v70l76 20v151h-359v-152l76 -20v-355l-76 -20v-153h514l145 122v216zM327 173v113h143l26 -22v-70l-26 -21h-143zM1090 547v153h-358v-153l76 -20v-355l-76 -20v-152h358v152l-76 20v355zM769 767v138h-159v-138h159zM525 767v138h-160v-138h160z
" />
    <glyph glyph-name="uni1E00" unicode="&#x1e00;" horiz-adv-x="775" 
d="M671 172l-135 528h-404v-153l65 -20l-102 -355l-77 -20v-152h300v152l-49 20l17 62h151l18 -62l-53 -20v-152h355v152zM359 511l45 -157h-89zM287 -165q0 -38 29 -64t71 -26t71 26t29 64q0 18 -8 34.5t-21.5 29t-31.5 19.5t-39 7t-39 -7t-31.5 -19.5t-21.5 -29t-8 -34.5z
M347 -165q0 12 11.5 21t28.5 9t28.5 -9t11.5 -21q0 -13 -11.5 -21.5t-28.5 -8.5t-28.5 8.5t-11.5 21.5z" />
    <glyph glyph-name="uni1E01" unicode="&#x1e01;" horiz-adv-x="726" 
d="M706 153l-76 20v413l-136 114h-306l-136 -114v-132h187l20 73h139l26 -20v-67l-263 -41l-117 -91v-190l143 -118h200l66 55l20 -55h233v153zM271 247l153 35v-89l-26 -21h-121l-25 21v37zM263 -165q0 -38 29 -64t71 -26t71 26t29 64q0 18 -8 34.5t-21.5 29t-31.5 19.5
t-39 7t-39 -7t-31.5 -19.5t-21.5 -29t-8 -34.5zM323 -165q0 12 11.5 21t28.5 9t28.5 -9t11.5 -21q0 -13 -11.5 -21.5t-28.5 -8.5t-28.5 8.5t-11.5 21.5z" />
    <glyph glyph-name="uni1E02" unicode="&#x1e02;" horiz-adv-x="744" 
d="M694 418v168l-136 114h-514v-153l76 -20v-355l-76 -20v-152h512l142 118v188l-70 58zM327 299h141l24 -20v-86l-26 -21h-139v127zM327 527h139l24 -20v-66l-24 -20h-139v106zM442 787v118h-140v-118h140z" />
    <glyph glyph-name="uni1E03" unicode="&#x1e03;" horiz-adv-x="744" 
d="M694 418v168l-136 114h-514v-153l76 -20v-355l-76 -20v-152h512l142 118v188l-70 58zM327 299h141l24 -20v-86l-26 -21h-139v127zM327 527h139l24 -20v-66l-24 -20h-139v106zM442 787v118h-140v-118h140z" />
    <glyph glyph-name="uni1E04" unicode="&#x1e04;" horiz-adv-x="744" 
d="M694 418v168l-136 114h-514v-153l76 -20v-355l-76 -20v-152h512l142 118v188l-70 58zM327 299h141l24 -20v-86l-26 -21h-139v127zM327 527h139l24 -20v-66l-24 -20h-139v106zM442 -193v118h-140v-118h140z" />
    <glyph glyph-name="uni1E05" unicode="&#x1e05;" horiz-adv-x="744" 
d="M694 418v168l-136 114h-514v-153l76 -20v-355l-76 -20v-152h512l142 118v188l-70 58zM327 299h141l24 -20v-86l-26 -21h-139v127zM327 527h139l24 -20v-66l-24 -20h-139v106zM442 -193v118h-140v-118h140z" />
    <glyph glyph-name="uni1E06" unicode="&#x1e06;" horiz-adv-x="744" 
d="M694 418v168l-136 114h-514v-153l76 -20v-355l-76 -20v-152h512l142 118v188l-70 58zM327 299h141l24 -20v-86l-26 -21h-139v127zM327 527h139l24 -20v-66l-24 -20h-139v106zM523 -85h-302v-87h302v87z" />
    <glyph glyph-name="uni1E07" unicode="&#x1e07;" horiz-adv-x="744" 
d="M694 418v168l-136 114h-514v-153l76 -20v-355l-76 -20v-152h512l142 118v188l-70 58zM327 299h141l24 -20v-86l-26 -21h-139v127zM327 527h139l24 -20v-66l-24 -20h-139v106zM523 -85h-302v-87h302v87z" />
    <glyph glyph-name="uni1E08" unicode="&#x1e08;" horiz-adv-x="670" 
d="M498 -126l-88 72h-57v54h129q35 29 71 58.5t71 59.5v127h-187l-20 -73h-137l-30 24v308l29 23h138l20 -73h187v132l-136 114h-289l-155 -129v-437l161 -134h87v-115h92l42 -32v-12l-42 -32h-132v-61h158l88 72v54zM497 847l-30 107l-294 -112l20 -67z" />
    <glyph glyph-name="uni1E09" unicode="&#x1e09;" horiz-adv-x="670" 
d="M498 -126l-88 72h-57v54h129q35 29 71 58.5t71 59.5v127h-187l-20 -73h-137l-30 24v308l29 23h138l20 -73h187v132l-136 114h-289l-155 -129v-437l161 -134h87v-115h92l42 -32v-12l-42 -32h-132v-61h158l88 72v54zM497 847l-30 107l-294 -112l20 -67z" />
    <glyph glyph-name="uni1E0A" unicode="&#x1e0a;" horiz-adv-x="749" 
d="M705 150v405l-175 145h-486v-153l76 -20v-355l-76 -20v-152h481zM327 527h129l42 -35v-284l-44 -36h-127v355zM444 787v118h-140v-118h140z" />
    <glyph glyph-name="uni1E0B" unicode="&#x1e0b;" horiz-adv-x="749" 
d="M705 150v405l-175 145h-486v-153l76 -20v-355l-76 -20v-152h481zM327 527h129l42 -35v-284l-44 -36h-127v355zM444 787v118h-140v-118h140z" />
    <glyph glyph-name="uni1E0C" unicode="&#x1e0c;" horiz-adv-x="749" 
d="M705 150v405l-175 145h-486v-153l76 -20v-355l-76 -20v-152h481zM327 527h129l42 -35v-284l-44 -36h-127v355zM444 -193v118h-140v-118h140z" />
    <glyph glyph-name="uni1E0D" unicode="&#x1e0d;" horiz-adv-x="749" 
d="M705 150v405l-175 145h-486v-153l76 -20v-355l-76 -20v-152h481zM327 527h129l42 -35v-284l-44 -36h-127v355zM444 -193v118h-140v-118h140z" />
    <glyph glyph-name="uni1E0E" unicode="&#x1e0e;" horiz-adv-x="749" 
d="M705 150v405l-175 145h-486v-153l76 -20v-355l-76 -20v-152h481zM327 527h129l42 -35v-284l-44 -36h-127v355zM525 -85h-302v-87h302v87z" />
    <glyph glyph-name="uni1E0F" unicode="&#x1e0f;" horiz-adv-x="749" 
d="M705 150v405l-175 145h-486v-153l76 -20v-355l-76 -20v-152h481zM327 527h129l42 -35v-284l-44 -36h-127v355zM525 -85h-302v-87h302v87z" />
    <glyph glyph-name="uni1E10" unicode="&#x1e10;" horiz-adv-x="749" 
d="M497 -126l-88 72h-57v54h173l180 150v405l-175 145h-486v-153l76 -20v-355l-76 -20v-152h247v-115h92l42 -32v-12l-42 -32h-132v-61h158l88 72v54zM327 527h129l42 -35v-284l-44 -36h-127v355z" />
    <glyph glyph-name="uni1E11" unicode="&#x1e11;" horiz-adv-x="749" 
d="M497 -126l-88 72h-57v54h173l180 150v405l-175 145h-486v-153l76 -20v-355l-76 -20v-152h247v-115h92l42 -32v-12l-42 -32h-132v-61h158l88 72v54zM327 527h129l42 -35v-284l-44 -36h-127v355z" />
    <glyph glyph-name="uni1E12" unicode="&#x1e12;" horiz-adv-x="749" 
d="M705 150v405l-175 145h-486v-153l76 -20v-355l-76 -20v-152h481zM327 527h129l42 -35v-284l-44 -36h-127v355zM563 -225l-142 150h-91l-145 -150h128l63 91l59 -91h128z" />
    <glyph glyph-name="uni1E13" unicode="&#x1e13;" horiz-adv-x="749" 
d="M705 150v405l-175 145h-486v-153l76 -20v-355l-76 -20v-152h481zM327 527h129l42 -35v-284l-44 -36h-127v355zM563 -225l-142 150h-91l-145 -150h128l63 91l59 -91h128z" />
    <glyph glyph-name="uni1E14" unicode="&#x1e14;" horiz-adv-x="705" 
d="M661 454v246h-617v-153l76 -20v-355l-76 -20v-152h618v245h-148l-20 -73h-168v122h168v120h-168v113h168l20 -73h147zM503 887h-302v-87h302v87zM494 975l20 67l-294 112l-30 -107z" />
    <glyph glyph-name="uni1E15" unicode="&#x1e15;" horiz-adv-x="667" 
d="M624 245h-187l-20 -73h-145l-26 21v65l263 43l117 91v190l-143 118h-301l-142 -118v-468l136 -114h306l142 118v127zM399 453l-153 -25v79l26 21h121l25 -21v-37zM484 887h-302v-87h302v87zM475 975l20 67l-294 112l-30 -107z" />
    <glyph glyph-name="uni1E16" unicode="&#x1e16;" horiz-adv-x="705" 
d="M661 454v246h-617v-153l76 -20v-355l-76 -20v-152h618v245h-148l-20 -73h-168v122h168v120h-168v113h168l20 -73h147zM503 887h-302v-87h302v87zM514 1047l-30 107l-294 -112l20 -67z" />
    <glyph glyph-name="uni1E17" unicode="&#x1e17;" horiz-adv-x="667" 
d="M624 245h-187l-20 -73h-145l-26 21v65l263 43l117 91v190l-143 118h-301l-142 -118v-468l136 -114h306l142 118v127zM399 453l-153 -25v79l26 21h121l25 -21v-37zM484 887h-302v-87h302v87zM495 1047l-30 107l-294 -112l20 -67z" />
    <glyph glyph-name="uni1E18" unicode="&#x1e18;" horiz-adv-x="705" 
d="M661 454v246h-617v-153l76 -20v-355l-76 -20v-152h618v245h-148l-20 -73h-168v122h168v120h-168v113h168l20 -73h147zM541 -225l-142 150h-91l-145 -150h128l63 91l59 -91h128z" />
    <glyph glyph-name="uni1E19" unicode="&#x1e19;" horiz-adv-x="667" 
d="M624 245h-187l-20 -73h-145l-26 21v65l263 43l117 91v190l-143 118h-301l-142 -118v-468l136 -114h306l142 118v127zM399 453l-153 -25v79l26 21h121l25 -21v-37zM522 -225l-142 150h-91l-145 -150h128l63 91l59 -91h128z" />
    <glyph glyph-name="uni1E1A" unicode="&#x1e1a;" horiz-adv-x="705" 
d="M661 454v246h-617v-153l76 -20v-355l-76 -20v-152h618v245h-148l-20 -73h-168v122h168v120h-168v113h168l20 -73h147zM437 -115q-23 0 -42 7.5t-37.5 16.5t-38.5 16.5t-46 7.5q-42 0 -75.5 -21t-55.5 -55l40 -57q23 26 42.5 39.5t45.5 13.5q20 0 38.5 -7.5t37.5 -16.5
t40 -16.5t47 -7.5q40 0 73.5 20.5t56.5 55.5l-40 57q-22 -25 -42 -39t-44 -14z" />
    <glyph glyph-name="uni1E1B" unicode="&#x1e1b;" horiz-adv-x="667" 
d="M624 245h-187l-20 -73h-145l-26 21v65l263 43l117 91v190l-143 118h-301l-142 -118v-468l136 -114h306l142 118v127zM399 453l-153 -25v79l26 21h121l25 -21v-37zM418 -115q-23 0 -42 7.5t-37.5 16.5t-38.5 16.5t-46 7.5q-42 0 -75.5 -21t-55.5 -55l40 -57
q23 26 42.5 39.5t45.5 13.5q20 0 38.5 -7.5t37.5 -16.5t40 -16.5t47 -7.5q40 0 73.5 20.5t56.5 55.5l-40 57q-22 -25 -42 -39t-44 -14z" />
    <glyph glyph-name="uni1E1C" unicode="&#x1e1c;" horiz-adv-x="705" 
d="M495 -126l-88 72h-57v54h312v245h-148l-20 -73h-168v122h168v120h-168v113h168l20 -73h147v246h-617v-153l76 -20v-355l-76 -20v-152h245v-115h92l42 -32v-12l-42 -32h-132v-61h158l88 72v54zM529 920h-84q0 -33 -23.5 -60t-70.5 -27q-46 0 -71 27t-25 60h-80
q0 -26 12 -52.5t34.5 -47.5t55 -34t74.5 -13t75 13t56 34t35 47.5t12 52.5z" />
    <glyph glyph-name="uni1E1D" unicode="&#x1e1d;" horiz-adv-x="667" 
d="M499 -126l-88 72h-57v54h128l142 118v127h-187l-20 -73h-145l-26 21v65l263 43l117 91v190l-143 118h-301l-142 -118v-468l136 -114h117v-115h92l42 -32v-12l-42 -32h-132v-61h158l88 72v54zM510 920h-84q0 -33 -23.5 -60t-70.5 -27q-46 0 -71 27t-25 60h-80
q0 -26 12 -52.5t34.5 -47.5t55 -34t74.5 -13t75 13t56 34t35 47.5t12 52.5zM399 453l-153 -25v79l26 21h121l25 -21v-37z" />
    <glyph glyph-name="uni1E1E" unicode="&#x1e1e;" horiz-adv-x="686" 
d="M661 454v246h-617v-153l76 -20v-355l-76 -20v-152h378v152l-96 20v122h168v120h-168v113h168l20 -73h147zM413 787v118h-140v-118h140z" />
    <glyph glyph-name="uni1E1F" unicode="&#x1e1f;" horiz-adv-x="686" 
d="M661 454v246h-617v-153l76 -20v-355l-76 -20v-152h378v152l-96 20v122h168v120h-168v113h168l20 -73h147zM413 787v118h-140v-118h140z" />
    <glyph glyph-name="uni1E20" unicode="&#x1e20;" horiz-adv-x="674" 
d="M633 454v132l-137 114h-297l-155 -129v-437l161 -134h185l66 55l20 -55h157v414h-300v-120h94v-96l-31 -26h-116l-30 24v308l29 23h148l20 -73h186zM488 887h-302v-87h302v87z" />
    <glyph glyph-name="uni1E21" unicode="&#x1e21;" horiz-adv-x="674" 
d="M633 454v132l-137 114h-297l-155 -129v-437l161 -134h185l66 55l20 -55h157v414h-300v-120h94v-96l-31 -26h-116l-30 24v308l29 23h148l20 -73h186zM488 887h-302v-87h302v87z" />
    <glyph glyph-name="uni1E22" unicode="&#x1e22;" 
d="M780 547v153h-329v-153l45 -20v-113h-169v113l46 20v153h-329v-153l76 -20v-355l-76 -20v-152h329v152l-46 20v122h169v-122l-45 -20v-152h329v152l-76 20v355zM483 787v118h-140v-118h140z" />
    <glyph glyph-name="uni1E23" unicode="&#x1e23;" 
d="M780 547v153h-329v-153l45 -20v-113h-169v113l46 20v153h-329v-153l76 -20v-355l-76 -20v-152h329v152l-46 20v122h169v-122l-45 -20v-152h329v152l-76 20v355zM483 787v118h-140v-118h140z" />
    <glyph glyph-name="uni1E24" unicode="&#x1e24;" 
d="M780 547v153h-329v-153l45 -20v-113h-169v113l46 20v153h-329v-153l76 -20v-355l-76 -20v-152h329v152l-46 20v122h169v-122l-45 -20v-152h329v152l-76 20v355zM483 -193v118h-140v-118h140z" />
    <glyph glyph-name="uni1E25" unicode="&#x1e25;" 
d="M780 547v153h-329v-153l45 -20v-113h-169v113l46 20v153h-329v-153l76 -20v-355l-76 -20v-152h329v152l-46 20v122h169v-122l-45 -20v-152h329v152l-76 20v355zM483 -193v118h-140v-118h140z" />
    <glyph glyph-name="uni1E26" unicode="&#x1e26;" 
d="M780 547v153h-329v-153l45 -20v-113h-169v113l46 20v153h-329v-153l76 -20v-355l-76 -20v-152h329v152l-46 20v122h169v-122l-45 -20v-152h329v152l-76 20v355zM615 767v138h-159v-138h159zM371 767v138h-160v-138h160z" />
    <glyph glyph-name="uni1E27" unicode="&#x1e27;" 
d="M780 547v153h-329v-153l45 -20v-113h-169v113l46 20v153h-329v-153l76 -20v-355l-76 -20v-152h329v152l-46 20v122h169v-122l-45 -20v-152h329v152l-76 20v355zM615 767v138h-159v-138h159zM371 767v138h-160v-138h160z" />
    <glyph glyph-name="uni1E28" unicode="&#x1e28;" 
d="M389 -126l-88 72h-57v54h129v152l-46 20v122h169v-122l-45 -20v-152h329v152l-76 20v355l76 20v153h-329v-153l45 -20v-113h-169v113l46 20v153h-329v-153l76 -20v-355l-76 -20v-152h139v-115h92l42 -32v-12l-42 -32h-132v-61h158l88 72v54z" />
    <glyph glyph-name="uni1E29" unicode="&#x1e29;" 
d="M392 -126l-88 72h-57v54h126v152l-46 20v122h169v-122l-45 -20v-152h329v152l-76 20v355l76 20v153h-329v-153l45 -20v-113h-169v113l46 20v153h-329v-153l76 -20v-355l-76 -20v-152h142v-115h92l42 -32v-12l-42 -32h-132v-61h158l88 72v54z" />
    <glyph glyph-name="uni1E2A" unicode="&#x1e2a;" 
d="M780 547v153h-329v-153l45 -20v-113h-169v113l46 20v153h-329v-153l76 -20v-355l-76 -20v-152h329v152l-46 20v122h169v-122l-45 -20v-152h329v152l-76 20v355zM590 -75h-84q0 -33 -23.5 -60t-70.5 -27q-46 0 -71 27t-25 60h-80q0 -26 12 -52.5t34.5 -47.5t55 -34
t74.5 -13t75 13t56 34t35 47.5t12 52.5z" />
    <glyph glyph-name="uni1E2B" unicode="&#x1e2b;" 
d="M780 547v153h-329v-153l45 -20v-113h-169v113l46 20v153h-329v-153l76 -20v-355l-76 -20v-152h329v152l-46 20v122h169v-122l-45 -20v-152h329v152l-76 20v355zM590 -75h-84q0 -33 -23.5 -60t-70.5 -27q-46 0 -71 27t-25 60h-80q0 -26 12 -52.5t34.5 -47.5t55 -34
t74.5 -13t75 13t56 34t35 47.5t12 52.5z" />
    <glyph glyph-name="uni1E2C" unicode="&#x1e2c;" horiz-adv-x="496" 
d="M426 547v153h-358v-153l76 -20v-355l-76 -20v-152h358v152l-76 20v355zM333 -115q-23 0 -42 7.5t-37.5 16.5t-38.5 16.5t-46 7.5q-42 0 -75.5 -21t-55.5 -55l40 -57q23 26 42.5 39.5t45.5 13.5q20 0 38.5 -7.5t37.5 -16.5t40 -16.5t47 -7.5q40 0 73.5 20.5t56.5 55.5
l-40 57q-22 -25 -42 -39t-44 -14z" />
    <glyph glyph-name="uni1E2D" unicode="&#x1e2d;" horiz-adv-x="496" 
d="M426 547v153h-358v-153l76 -20v-355l-76 -20v-152h358v152l-76 20v355zM333 -115q-23 0 -42 7.5t-37.5 16.5t-38.5 16.5t-46 7.5q-42 0 -75.5 -21t-55.5 -55l40 -57q23 26 42.5 39.5t45.5 13.5q20 0 38.5 -7.5t37.5 -16.5t40 -16.5t47 -7.5q40 0 73.5 20.5t56.5 55.5
l-40 57q-22 -25 -42 -39t-44 -14z" />
    <glyph glyph-name="uni1E2E" unicode="&#x1e2e;" horiz-adv-x="496" 
d="M426 547v153h-358v-153l76 -20v-355l-76 -20v-152h358v152l-76 20v355zM450 767v138h-159v-138h159zM206 767v138h-160v-138h160zM410 1047l-30 107l-294 -112l20 -67z" />
    <glyph glyph-name="uni1E2F" unicode="&#x1e2f;" horiz-adv-x="496" 
d="M426 547v153h-358v-153l76 -20v-355l-76 -20v-152h358v152l-76 20v355zM450 767v138h-159v-138h159zM206 767v138h-160v-138h160zM410 1047l-30 107l-294 -112l20 -67z" />
    <glyph glyph-name="uni1E30" unicode="&#x1e30;" horiz-adv-x="803" 
d="M775 547v153h-334v-153l49 -20l-156 -136v136l48 20v153h-338v-153l76 -20v-355l-76 -20v-152h340v152l-50 20v73l80 67l78 -140l-50 -20v-152h333v152l-71 20l-139 261l113 94zM563 847l-30 107l-294 -112l20 -67z" />
    <glyph glyph-name="uni1E31" unicode="&#x1e31;" horiz-adv-x="803" 
d="M775 547v153h-334v-153l49 -20l-156 -136v136l48 20v153h-338v-153l76 -20v-355l-76 -20v-152h340v152l-50 20v73l80 67l78 -140l-50 -20v-152h333v152l-71 20l-139 261l113 94zM563 847l-30 107l-294 -112l20 -67z" />
    <glyph glyph-name="uni1E32" unicode="&#x1e32;" horiz-adv-x="803" 
d="M775 547v153h-334v-153l49 -20l-156 -136v136l48 20v153h-338v-153l76 -20v-355l-76 -20v-152h340v152l-50 20v73l80 67l78 -140l-50 -20v-152h333v152l-71 20l-139 261l113 94zM471 -193v118h-140v-118h140z" />
    <glyph glyph-name="uni1E33" unicode="&#x1e33;" horiz-adv-x="803" 
d="M775 547v153h-334v-153l49 -20l-156 -136v136l48 20v153h-338v-153l76 -20v-355l-76 -20v-152h340v152l-50 20v73l80 67l78 -140l-50 -20v-152h333v152l-71 20l-139 261l113 94zM471 -193v118h-140v-118h140z" />
    <glyph glyph-name="uni1E34" unicode="&#x1e34;" horiz-adv-x="803" 
d="M775 547v153h-334v-153l49 -20l-156 -136v136l48 20v153h-338v-153l76 -20v-355l-76 -20v-152h340v152l-50 20v73l80 67l78 -140l-50 -20v-152h333v152l-71 20l-139 261l113 94zM552 -85h-302v-87h302v87z" />
    <glyph glyph-name="uni1E35" unicode="&#x1e35;" horiz-adv-x="803" 
d="M775 547v153h-334v-153l49 -20l-156 -136v136l48 20v153h-338v-153l76 -20v-355l-76 -20v-152h340v152l-50 20v73l80 67l78 -140l-50 -20v-152h333v152l-71 20l-139 261l113 94zM552 -85h-302v-87h302v87z" />
    <glyph glyph-name="uni1E36" unicode="&#x1e36;" horiz-adv-x="678" 
d="M412 547v153h-368v-153l76 -20v-355l-76 -20v-152h617v267h-148l-20 -95h-166v355zM409 -193v118h-140v-118h140z" />
    <glyph glyph-name="uni1E37" unicode="&#x1e37;" horiz-adv-x="678" 
d="M412 547v153h-368v-153l76 -20v-355l-76 -20v-152h617v267h-148l-20 -95h-166v355zM409 -193v118h-140v-118h140z" />
    <glyph glyph-name="uni1E38" unicode="&#x1e38;" horiz-adv-x="678" 
d="M412 547v153h-368v-153l76 -20v-355l-76 -20v-152h617v267h-148l-20 -95h-166v355zM409 -193v118h-140v-118h140zM380 887h-302v-87h302v87z" />
    <glyph glyph-name="uni1E39" unicode="&#x1e39;" horiz-adv-x="678" 
d="M412 547v153h-368v-153l76 -20v-355l-76 -20v-152h617v267h-148l-20 -95h-166v355zM409 -193v118h-140v-118h140zM379 887h-302v-87h302v87z" />
    <glyph glyph-name="uni1E3A" unicode="&#x1e3a;" horiz-adv-x="678" 
d="M412 547v153h-368v-153l76 -20v-355l-76 -20v-152h617v267h-148l-20 -95h-166v355zM490 -85h-302v-87h302v87z" />
    <glyph glyph-name="uni1E3B" unicode="&#x1e3b;" horiz-adv-x="678" 
d="M412 547v153h-368v-153l76 -20v-355l-76 -20v-152h617v267h-148l-20 -95h-166v355zM490 -85h-302v-87h302v87z" />
    <glyph glyph-name="uni1E3C" unicode="&#x1e3c;" horiz-adv-x="678" 
d="M412 547v153h-368v-153l76 -20v-355l-76 -20v-152h617v267h-148l-20 -95h-166v355zM528 -225l-142 150h-91l-145 -150h128l63 91l59 -91h128z" />
    <glyph glyph-name="uni1E3D" unicode="&#x1e3d;" horiz-adv-x="678" 
d="M412 547v153h-368v-153l76 -20v-355l-76 -20v-152h617v267h-148l-20 -95h-166v355zM528 -225l-142 150h-91l-145 -150h128l63 91l59 -91h128z" />
    <glyph glyph-name="uni1E3E" unicode="&#x1e3e;" horiz-adv-x="962" 
d="M916 547v153h-306l-120 -215l-118 215h-328v-153l76 -20v-355l-76 -20v-152h367v152l-96 20v239l126 -215h78l126 215v-239l-96 -20v-152h367v152l-74 20v355zM643 847l-30 107l-294 -112l20 -67z" />
    <glyph glyph-name="uni1E3F" unicode="&#x1e3f;" horiz-adv-x="1206" 
d="M563 700h-211l-66 -55l-20 55h-222v-153l76 -20v-354l-76 -20v-153h328v153l-46 20v334l26 21h121l25 -21v-334l-46 -20v-153h300v153l-46 20v334l26 21h121l25 -21v-334l-46 -20v-153h330v153l-76 20v409l-143 118h-211l-84 -70zM765 847l-30 107l-294 -112l20 -67z" />
    <glyph glyph-name="uni1E40" unicode="&#x1e40;" horiz-adv-x="962" 
d="M916 547v153h-306l-120 -215l-118 215h-328v-153l76 -20v-355l-76 -20v-152h367v152l-96 20v239l126 -215h78l126 215v-239l-96 -20v-152h367v152l-74 20v355zM551 787v118h-140v-118h140z" />
    <glyph glyph-name="uni1E41" unicode="&#x1e41;" horiz-adv-x="1206" 
d="M563 700h-211l-66 -55l-20 55h-222v-153l76 -20v-354l-76 -20v-153h328v153l-46 20v334l26 21h121l25 -21v-334l-46 -20v-153h300v153l-46 20v334l26 21h121l25 -21v-334l-46 -20v-153h330v153l-76 20v409l-143 118h-211l-84 -70zM673 787v118h-140v-118h140z" />
    <glyph glyph-name="uni1E42" unicode="&#x1e42;" horiz-adv-x="962" 
d="M916 547v153h-306l-120 -215l-118 215h-328v-153l76 -20v-355l-76 -20v-152h367v152l-96 20v239l126 -215h78l126 215v-239l-96 -20v-152h367v152l-74 20v355zM551 -193v118h-140v-118h140z" />
    <glyph glyph-name="uni1E43" unicode="&#x1e43;" horiz-adv-x="1206" 
d="M563 700h-211l-66 -55l-20 55h-222v-153l76 -20v-354l-76 -20v-153h328v153l-46 20v334l26 21h121l25 -21v-334l-46 -20v-153h300v153l-46 20v334l26 21h121l25 -21v-334l-46 -20v-153h330v153l-76 20v409l-143 118h-211l-84 -70zM673 -193v118h-140v-118h140z" />
    <glyph glyph-name="uni1E44" unicode="&#x1e44;" horiz-adv-x="821" 
d="M476 700v-153l76 -20v-201l-208 374h-300v-153l76 -20v-355l-76 -20v-152h327v152l-76 20v218l231 -390h202v527l76 20v153h-328zM480 787v118h-140v-118h140z" />
    <glyph glyph-name="uni1E45" unicode="&#x1e45;" 
d="M44 547l76 -20v-354l-76 -20v-153h328v153l-46 20v334l26 21h121l25 -21v-334l-46 -20v-153h330v153l-76 20v409l-143 118h-211l-66 -55l-20 55h-222v-153zM483 787v118h-140v-118h140z" />
    <glyph glyph-name="uni1E46" unicode="&#x1e46;" horiz-adv-x="821" 
d="M476 700v-153l76 -20v-201l-208 374h-300v-153l76 -20v-355l-76 -20v-152h327v152l-76 20v218l231 -390h202v527l76 20v153h-328zM480 -193v118h-140v-118h140z" />
    <glyph glyph-name="uni1E47" unicode="&#x1e47;" 
d="M44 547l76 -20v-354l-76 -20v-153h328v153l-46 20v334l26 21h121l25 -21v-334l-46 -20v-153h330v153l-76 20v409l-143 118h-211l-66 -55l-20 55h-222v-153zM483 -193v118h-140v-118h140z" />
    <glyph glyph-name="uni1E48" unicode="&#x1e48;" horiz-adv-x="821" 
d="M476 700v-153l76 -20v-201l-208 374h-300v-153l76 -20v-355l-76 -20v-152h327v152l-76 20v218l231 -390h202v527l76 20v153h-328zM561 -85h-302v-87h302v87z" />
    <glyph glyph-name="uni1E49" unicode="&#x1e49;" 
d="M44 547l76 -20v-354l-76 -20v-153h328v153l-46 20v334l26 21h121l25 -21v-334l-46 -20v-153h330v153l-76 20v409l-143 118h-211l-66 -55l-20 55h-222v-153zM564 -85h-302v-87h302v87z" />
    <glyph glyph-name="uni1E4A" unicode="&#x1e4a;" horiz-adv-x="821" 
d="M476 700v-153l76 -20v-201l-208 374h-300v-153l76 -20v-355l-76 -20v-152h327v152l-76 20v218l231 -390h202v527l76 20v153h-328zM599 -225l-142 150h-91l-145 -150h128l63 91l59 -91h128z" />
    <glyph glyph-name="uni1E4B" unicode="&#x1e4b;" 
d="M44 547l76 -20v-354l-76 -20v-153h328v153l-46 20v334l26 21h121l25 -21v-334l-46 -20v-153h330v153l-76 20v409l-143 118h-211l-66 -55l-20 55h-222v-153zM602 -225l-142 150h-91l-145 -150h128l63 91l59 -91h128z" />
    <glyph glyph-name="uni1E4C" unicode="&#x1e4c;" horiz-adv-x="677" 
d="M633 125v453l-146 122h-297l-146 -122v-453l151 -125h286q38 31 76 62.5t76 62.5zM400 527l27 -21v-311l-28 -23h-121l-28 23v311l27 21h123zM425 865q-23 0 -42 7.5t-37.5 16.5t-38.5 16.5t-46 7.5q-42 0 -75.5 -21t-55.5 -55l40 -57q23 26 42.5 39.5t45.5 13.5
q20 0 38.5 -7.5t37.5 -16.5t40 -16.5t47 -7.5q40 0 73.5 20.5t56.5 55.5l-40 57q-22 -25 -42 -39t-44 -14zM500 1047l-30 107l-294 -112l20 -67z" />
    <glyph glyph-name="uni1E4D" unicode="&#x1e4d;" horiz-adv-x="677" 
d="M633 125v453l-146 122h-297l-146 -122v-453l151 -125h286q38 31 76 62.5t76 62.5zM400 527l27 -21v-311l-28 -23h-121l-28 23v311l27 21h123zM429 865q-23 0 -42 7.5t-37.5 16.5t-38.5 16.5t-46 7.5q-42 0 -75.5 -21t-55.5 -55l40 -57q23 26 42.5 39.5t45.5 13.5
q20 0 38.5 -7.5t37.5 -16.5t40 -16.5t47 -7.5q40 0 73.5 20.5t56.5 55.5l-40 57q-22 -25 -42 -39t-44 -14zM500 1047l-30 107l-294 -112l20 -67z" />
    <glyph glyph-name="uni1E4E" unicode="&#x1e4e;" horiz-adv-x="677" 
d="M633 125v453l-146 122h-297l-146 -122v-453l151 -125h286q38 31 76 62.5t76 62.5zM400 527l27 -21v-311l-28 -23h-121l-28 23v311l27 21h123zM421 865q-23 0 -42 7.5t-37.5 16.5t-38.5 16.5t-46 7.5q-42 0 -75.5 -21t-55.5 -55l40 -57q23 26 42.5 39.5t45.5 13.5
q20 0 38.5 -7.5t37.5 -16.5t40 -16.5t47 -7.5q40 0 73.5 20.5t56.5 55.5l-40 57q-22 -25 -42 -39t-44 -14zM540 967v138h-159v-138h159zM296 967v138h-160v-138h160z" />
    <glyph glyph-name="uni1E4F" unicode="&#x1e4f;" horiz-adv-x="677" 
d="M633 125v453l-146 122h-297l-146 -122v-453l151 -125h286q38 31 76 62.5t76 62.5zM400 527l27 -21v-311l-28 -23h-121l-28 23v311l27 21h123zM422 865q-23 0 -42 7.5t-37.5 16.5t-38.5 16.5t-46 7.5q-42 0 -75.5 -21t-55.5 -55l40 -57q23 26 42.5 39.5t45.5 13.5
q20 0 38.5 -7.5t37.5 -16.5t40 -16.5t47 -7.5q40 0 73.5 20.5t56.5 55.5l-40 57q-22 -25 -42 -39t-44 -14zM540 967v138h-159v-138h159zM296 967v138h-160v-138h160z" />
    <glyph glyph-name="uni1E50" unicode="&#x1e50;" horiz-adv-x="677" 
d="M633 125v453l-146 122h-297l-146 -122v-453l151 -125h286q38 31 76 62.5t76 62.5zM400 527l27 -21v-311l-28 -23h-121l-28 23v311l27 21h123zM489 887h-302v-87h302v87zM480 975l20 67l-294 112l-30 -107z" />
    <glyph glyph-name="uni1E51" unicode="&#x1e51;" horiz-adv-x="677" 
d="M633 125v453l-146 122h-297l-146 -122v-453l151 -125h286q38 31 76 62.5t76 62.5zM400 527l27 -21v-311l-28 -23h-121l-28 23v311l27 21h123zM489 887h-302v-87h302v87zM480 975l20 67l-294 112l-30 -107z" />
    <glyph glyph-name="uni1E52" unicode="&#x1e52;" horiz-adv-x="677" 
d="M633 125v453l-146 122h-297l-146 -122v-453l151 -125h286q38 31 76 62.5t76 62.5zM400 527l27 -21v-311l-28 -23h-121l-28 23v311l27 21h123zM489 887h-302v-87h302v87zM500 1047l-30 107l-294 -112l20 -67z" />
    <glyph glyph-name="uni1E53" unicode="&#x1e53;" horiz-adv-x="677" 
d="M633 125v453l-146 122h-297l-146 -122v-453l151 -125h286q38 31 76 62.5t76 62.5zM400 527l27 -21v-311l-28 -23h-121l-28 23v311l27 21h123zM489 887h-302v-87h302v87zM500 1047l-30 107l-294 -112l20 -67z" />
    <glyph glyph-name="uni1E54" unicode="&#x1e54;" horiz-adv-x="731" 
d="M703 578l-145 122h-514v-153l76 -20v-355l-76 -20v-152h359v151l-76 20v70h231l145 121v216zM470 527l26 -21v-70l-26 -22h-143v113h143zM527 847l-30 107l-294 -112l20 -67z" />
    <glyph glyph-name="uni1E55" unicode="&#x1e55;" horiz-adv-x="731" 
d="M703 578l-145 122h-514v-153l76 -20v-355l-76 -20v-152h359v151l-76 20v70h231l145 121v216zM470 527l26 -21v-70l-26 -22h-143v113h143zM527 847l-30 107l-294 -112l20 -67z" />
    <glyph glyph-name="uni1E56" unicode="&#x1e56;" horiz-adv-x="731" 
d="M703 578l-145 122h-514v-153l76 -20v-355l-76 -20v-152h359v151l-76 20v70h231l145 121v216zM470 527l26 -21v-70l-26 -22h-143v113h143zM435 787v118h-140v-118h140z" />
    <glyph glyph-name="uni1E57" unicode="&#x1e57;" horiz-adv-x="731" 
d="M703 578l-145 122h-514v-153l76 -20v-355l-76 -20v-152h359v151l-76 20v70h231l145 121v216zM470 527l26 -21v-70l-26 -22h-143v113h143zM435 787v118h-140v-118h140z" />
    <glyph glyph-name="uni1E58" unicode="&#x1e58;" horiz-adv-x="743" 
d="M327 527h142l24 -20v-74l-24 -20h-142v114zM403 0v152l-76 20v101h52l160 -273h190v162l-53 10l-76 121l99 84v209l-135 114h-520v-153l76 -20v-355l-76 -20v-152h359zM441 787v118h-140v-118h140z" />
    <glyph glyph-name="uni1E59" unicode="&#x1e59;" horiz-adv-x="743" 
d="M327 527h142l24 -20v-74l-24 -20h-142v114zM403 0v152l-76 20v101h52l160 -273h190v162l-53 10l-76 121l99 84v209l-135 114h-520v-153l76 -20v-355l-76 -20v-152h359zM441 787v118h-140v-118h140z" />
    <glyph glyph-name="uni1E5A" unicode="&#x1e5a;" horiz-adv-x="743" 
d="M327 527h142l24 -20v-74l-24 -20h-142v114zM403 0v152l-76 20v101h52l160 -273h190v162l-53 10l-76 121l99 84v209l-135 114h-520v-153l76 -20v-355l-76 -20v-152h359zM441 -193v118h-140v-118h140z" />
    <glyph glyph-name="uni1E5B" unicode="&#x1e5b;" horiz-adv-x="743" 
d="M327 527h142l24 -20v-74l-24 -20h-142v114zM403 0v152l-76 20v101h52l160 -273h190v162l-53 10l-76 121l99 84v209l-135 114h-520v-153l76 -20v-355l-76 -20v-152h359zM441 -193v118h-140v-118h140z" />
    <glyph glyph-name="uni1E5C" unicode="&#x1e5c;" horiz-adv-x="743" 
d="M327 527h142l24 -20v-74l-24 -20h-142v114zM403 0v152l-76 20v101h52l160 -273h190v162l-53 10l-76 121l99 84v209l-135 114h-520v-153l76 -20v-355l-76 -20v-152h359zM441 -193v118h-140v-118h140zM522 887h-302v-87h302v87z" />
    <glyph glyph-name="uni1E5D" unicode="&#x1e5d;" horiz-adv-x="743" 
d="M327 527h142l24 -20v-74l-24 -20h-142v114zM403 0v152l-76 20v101h52l160 -273h190v162l-53 10l-76 121l99 84v209l-135 114h-520v-153l76 -20v-355l-76 -20v-152h359zM441 -193v118h-140v-118h140zM522 887h-302v-87h302v87z" />
    <glyph glyph-name="uni1E5E" unicode="&#x1e5e;" horiz-adv-x="743" 
d="M327 527h142l24 -20v-74l-24 -20h-142v114zM403 0v152l-76 20v101h52l160 -273h190v162l-53 10l-76 121l99 84v209l-135 114h-520v-153l76 -20v-355l-76 -20v-152h359zM522 -85h-302v-87h302v87z" />
    <glyph glyph-name="uni1E5F" unicode="&#x1e5f;" horiz-adv-x="743" 
d="M327 527h142l24 -20v-74l-24 -20h-142v114zM403 0v152l-76 20v101h52l160 -273h190v162l-53 10l-76 121l99 84v209l-135 114h-520v-153l76 -20v-355l-76 -20v-152h359zM522 -85h-302v-87h302v87z" />
    <glyph glyph-name="uni1E60" unicode="&#x1e60;" horiz-adv-x="667" 
d="M618 586l-136 114h-306l-136 -114v-191l119 -98l240 -40l19 -17v-47l-25 -21h-146l-20 73h-187v-127l142 -118h301l143 118v200l-117 91l-241 40l-22 17v41l26 20h139l20 -73h187v132zM403 787v118h-140v-118h140z" />
    <glyph glyph-name="uni1E61" unicode="&#x1e61;" horiz-adv-x="667" 
d="M618 586l-136 114h-306l-136 -114v-191l119 -98l240 -40l19 -17v-47l-25 -21h-146l-20 73h-187v-127l142 -118h301l143 118v200l-117 91l-241 40l-22 17v41l26 20h139l20 -73h187v132zM403 787v118h-140v-118h140z" />
    <glyph glyph-name="uni1E62" unicode="&#x1e62;" horiz-adv-x="667" 
d="M618 586l-136 114h-306l-136 -114v-191l119 -98l240 -40l19 -17v-47l-25 -21h-146l-20 73h-187v-127l142 -118h301l143 118v200l-117 91l-241 40l-22 17v41l26 20h139l20 -73h187v132zM403 -193v118h-140v-118h140z" />
    <glyph glyph-name="uni1E63" unicode="&#x1e63;" horiz-adv-x="667" 
d="M618 586l-136 114h-306l-136 -114v-191l119 -98l240 -40l19 -17v-47l-25 -21h-146l-20 73h-187v-127l142 -118h301l143 118v200l-117 91l-241 40l-22 17v41l26 20h139l20 -73h187v132zM403 -193v118h-140v-118h140z" />
    <glyph glyph-name="uni1E64" unicode="&#x1e64;" horiz-adv-x="667" 
d="M618 586l-136 114h-306l-136 -114v-191l119 -98l240 -40l19 -17v-47l-25 -21h-146l-20 73h-187v-127l142 -118h301l143 118v200l-117 91l-241 40l-22 17v41l26 20h139l20 -73h187v132zM495 847l-30 107l-294 -112l20 -67zM403 987v118h-140v-118h140z" />
    <glyph glyph-name="uni1E65" unicode="&#x1e65;" horiz-adv-x="667" 
d="M618 586l-136 114h-306l-136 -114v-191l119 -98l240 -40l19 -17v-47l-25 -21h-146l-20 73h-187v-127l142 -118h301l143 118v200l-117 91l-241 40l-22 17v41l26 20h139l20 -73h187v132zM495 847l-30 107l-294 -112l20 -67zM403 987v118h-140v-118h140z" />
    <glyph glyph-name="uni1E66" unicode="&#x1e66;" horiz-adv-x="667" 
d="M618 586l-136 114h-306l-136 -114v-191l119 -98l240 -40l19 -17v-47l-25 -21h-146l-20 73h-187v-127l142 -118h301l143 118v200l-117 91l-241 40l-22 17v41l26 20h139l20 -73h187v132zM378 770l144 150h-128l-62 -92l-60 92h-128l143 -150h91zM403 987v118h-140v-118h140
z" />
    <glyph glyph-name="uni1E67" unicode="&#x1e67;" horiz-adv-x="667" 
d="M618 586l-136 114h-306l-136 -114v-191l119 -98l240 -40l19 -17v-47l-25 -21h-146l-20 73h-187v-127l142 -118h301l143 118v200l-117 91l-241 40l-22 17v41l26 20h139l20 -73h187v132zM378 770l144 150h-128l-62 -92l-60 92h-128l143 -150h91zM403 987v118h-140v-118h140
z" />
    <glyph glyph-name="uni1E68" unicode="&#x1e68;" horiz-adv-x="667" 
d="M618 586l-136 114h-306l-136 -114v-191l119 -98l240 -40l19 -17v-47l-25 -21h-146l-20 73h-187v-127l142 -118h301l143 118v200l-117 91l-241 40l-22 17v41l26 20h139l20 -73h187v132zM403 -193v118h-140v-118h140zM403 787v118h-140v-118h140z" />
    <glyph glyph-name="uni1E69" unicode="&#x1e69;" horiz-adv-x="667" 
d="M618 586l-136 114h-306l-136 -114v-191l119 -98l240 -40l19 -17v-47l-25 -21h-146l-20 73h-187v-127l142 -118h301l143 118v200l-117 91l-241 40l-22 17v41l26 20h139l20 -73h187v132zM403 -193v118h-140v-118h140zM403 787v118h-140v-118h140z" />
    <glyph glyph-name="uni1E6A" unicode="&#x1e6a;" horiz-adv-x="729" 
d="M713 411v289h-696v-289h148l20 127h77v-366l-85 -20v-152h378v152l-86 20v366h77l20 -127h147zM434 787v118h-140v-118h140z" />
    <glyph glyph-name="uni1E6B" unicode="&#x1e6b;" horiz-adv-x="729" 
d="M713 411v289h-696v-289h148l20 127h77v-366l-85 -20v-152h378v152l-86 20v366h77l20 -127h147zM434 787v118h-140v-118h140z" />
    <glyph glyph-name="uni1E6C" unicode="&#x1e6c;" horiz-adv-x="729" 
d="M713 411v289h-696v-289h148l20 127h77v-366l-85 -20v-152h378v152l-86 20v366h77l20 -127h147zM434 -193v118h-140v-118h140z" />
    <glyph glyph-name="uni1E6D" unicode="&#x1e6d;" horiz-adv-x="729" 
d="M713 411v289h-696v-289h148l20 127h77v-366l-85 -20v-152h378v152l-86 20v366h77l20 -127h147zM434 -193v118h-140v-118h140z" />
    <glyph glyph-name="uni1E6E" unicode="&#x1e6e;" horiz-adv-x="729" 
d="M713 411v289h-696v-289h148l20 127h77v-366l-85 -20v-152h378v152l-86 20v366h77l20 -127h147zM515 -85h-302v-87h302v87z" />
    <glyph glyph-name="uni1E6F" unicode="&#x1e6f;" horiz-adv-x="729" 
d="M713 411v289h-696v-289h148l20 127h77v-366l-85 -20v-152h378v152l-86 20v366h77l20 -127h147zM515 -85h-302v-87h302v87z" />
    <glyph glyph-name="uni1E70" unicode="&#x1e70;" horiz-adv-x="729" 
d="M713 411v289h-696v-289h148l20 127h77v-366l-85 -20v-152h378v152l-86 20v366h77l20 -127h147zM553 -225l-142 150h-91l-145 -150h128l63 91l59 -91h128z" />
    <glyph glyph-name="uni1E71" unicode="&#x1e71;" horiz-adv-x="729" 
d="M713 411v289h-696v-289h148l20 127h77v-366l-85 -20v-152h378v152l-86 20v366h77l20 -127h147zM553 -225l-142 150h-91l-145 -150h128l63 91l59 -91h128z" />
    <glyph glyph-name="uni1E72" unicode="&#x1e72;" horiz-adv-x="767" 
d="M748 547v153h-323v-153l45 -20v-332l-26 -23h-116l-27 23v332l46 20v153h-329v-153l76 -20v-418l132 -109h315l131 109v418zM585 -213v138h-159v-138h159zM341 -213v138h-160v-138h160z" />
    <glyph glyph-name="uni1E73" unicode="&#x1e73;" 
d="M782 153l-76 20v354l76 20v153h-328v-153l46 -20v-334l-26 -21h-121l-25 21v334l46 20v153h-330v-153l76 -20v-409l143 -118h211l66 55l20 -55h222v153zM615 -213v138h-159v-138h159zM371 -213v138h-160v-138h160z" />
    <glyph glyph-name="uni1E74" unicode="&#x1e74;" horiz-adv-x="767" 
d="M748 547v153h-323v-153l45 -20v-332l-26 -23h-116l-27 23v332l46 20v153h-329v-153l76 -20v-418l132 -109h315l131 109v418zM468 -115q-23 0 -42 7.5t-37.5 16.5t-38.5 16.5t-46 7.5q-42 0 -75.5 -21t-55.5 -55l40 -57q23 26 42.5 39.5t45.5 13.5q20 0 38.5 -7.5
t37.5 -16.5t40 -16.5t47 -7.5q40 0 73.5 20.5t56.5 55.5l-40 57q-22 -25 -42 -39t-44 -14z" />
    <glyph glyph-name="uni1E75" unicode="&#x1e75;" 
d="M782 153l-76 20v354l76 20v153h-328v-153l46 -20v-334l-26 -21h-121l-25 21v334l46 20v153h-330v-153l76 -20v-409l143 -118h211l66 55l20 -55h222v153zM497 -115q-23 0 -42 7.5t-37.5 16.5t-38.5 16.5t-46 7.5q-42 0 -75.5 -21t-55.5 -55l40 -57q23 26 42.5 39.5
t45.5 13.5q20 0 38.5 -7.5t37.5 -16.5t40 -16.5t47 -7.5q40 0 73.5 20.5t56.5 55.5l-40 57q-22 -25 -42 -39t-44 -14z" />
    <glyph glyph-name="uni1E76" unicode="&#x1e76;" horiz-adv-x="767" 
d="M748 547v153h-323v-153l45 -20v-332l-26 -23h-116l-27 23v332l46 20v153h-329v-153l76 -20v-418l132 -109h315l131 109v418zM572 -225l-142 150h-91l-145 -150h128l63 91l59 -91h128z" />
    <glyph glyph-name="uni1E77" unicode="&#x1e77;" 
d="M782 153l-76 20v354l76 20v153h-328v-153l46 -20v-334l-26 -21h-121l-25 21v334l46 20v153h-330v-153l76 -20v-409l143 -118h211l66 55l20 -55h222v153zM602 -225l-142 150h-91l-145 -150h128l63 91l59 -91h128z" />
    <glyph glyph-name="uni1E78" unicode="&#x1e78;" horiz-adv-x="767" 
d="M748 547v153h-323v-153l45 -20v-332l-26 -23h-116l-27 23v332l46 20v153h-329v-153l76 -20v-418l132 -109h315l131 109v418zM468 865q-23 0 -42 7.5t-37.5 16.5t-38.5 16.5t-46 7.5q-42 0 -75.5 -21t-55.5 -55l40 -57q23 26 42.5 39.5t45.5 13.5q20 0 38.5 -7.5
t37.5 -16.5t40 -16.5t47 -7.5q40 0 73.5 20.5t56.5 55.5l-40 57q-22 -25 -42 -39t-44 -14zM545 1047l-30 107l-294 -112l20 -67z" />
    <glyph glyph-name="uni1E79" unicode="&#x1e79;" 
d="M782 153l-76 20v354l76 20v153h-328v-153l46 -20v-334l-26 -21h-121l-25 21v334l46 20v153h-330v-153l76 -20v-409l143 -118h211l66 55l20 -55h222v153zM497 865q-23 0 -42 7.5t-37.5 16.5t-38.5 16.5t-46 7.5q-42 0 -75.5 -21t-55.5 -55l40 -57q23 26 42.5 39.5
t45.5 13.5q20 0 38.5 -7.5t37.5 -16.5t40 -16.5t47 -7.5q40 0 73.5 20.5t56.5 55.5l-40 57q-22 -25 -42 -39t-44 -14zM575 1047l-30 107l-294 -112l20 -67z" />
    <glyph glyph-name="uni1E7A" unicode="&#x1e7a;" horiz-adv-x="767" 
d="M748 547v153h-323v-153l45 -20v-332l-26 -23h-116l-27 23v332l46 20v153h-329v-153l76 -20v-418l132 -109h315l131 109v418zM534 1087h-302v-87h302v87zM585 767v138h-159v-138h159zM341 767v138h-160v-138h160z" />
    <glyph glyph-name="uni1E7B" unicode="&#x1e7b;" 
d="M782 153l-76 20v354l76 20v153h-328v-153l46 -20v-334l-26 -21h-121l-25 21v334l46 20v153h-330v-153l76 -20v-409l143 -118h211l66 55l20 -55h222v153zM564 1087h-302v-87h302v87zM615 767v138h-159v-138h159zM371 767v138h-160v-138h160z" />
    <glyph glyph-name="uni1E7C" unicode="&#x1e7c;" horiz-adv-x="775" 
d="M757 547v153h-301v-153l47 -20l-88 -305l-92 305l49 20v153h-354v-153l66 -20l160 -527h276l169 527zM472 865q-23 0 -42 7.5t-37.5 16.5t-38.5 16.5t-46 7.5q-42 0 -75.5 -21t-55.5 -55l40 -57q23 26 42.5 39.5t45.5 13.5q20 0 38.5 -7.5t37.5 -16.5t40 -16.5t47 -7.5
q40 0 73.5 20.5t56.5 55.5l-40 57q-22 -25 -42 -39t-44 -14z" />
    <glyph glyph-name="uni1E7D" unicode="&#x1e7d;" horiz-adv-x="775" 
d="M757 547v153h-301v-153l47 -20l-88 -305l-92 305l49 20v153h-354v-153l66 -20l160 -527h276l169 527zM472 865q-23 0 -42 7.5t-37.5 16.5t-38.5 16.5t-46 7.5q-42 0 -75.5 -21t-55.5 -55l40 -57q23 26 42.5 39.5t45.5 13.5q20 0 38.5 -7.5t37.5 -16.5t40 -16.5t47 -7.5
q40 0 73.5 20.5t56.5 55.5l-40 57q-22 -25 -42 -39t-44 -14z" />
    <glyph glyph-name="uni1E7E" unicode="&#x1e7e;" horiz-adv-x="775" 
d="M757 547v153h-301v-153l47 -20l-88 -305l-92 305l49 20v153h-354v-153l66 -20l160 -527h276l169 527zM457 -193v118h-140v-118h140z" />
    <glyph glyph-name="uni1E7F" unicode="&#x1e7f;" horiz-adv-x="775" 
d="M757 547v153h-301v-153l47 -20l-88 -305l-92 305l49 20v153h-354v-153l66 -20l160 -527h276l169 527zM457 -193v118h-140v-118h140z" />
    <glyph glyph-name="Wgrave" unicode="&#x1e80;" horiz-adv-x="1146" 
d="M1128 547v153h-269v-153l42 -20l-77 -305l-86 305l49 20v153h-361v-153l47 -20l-83 -305l-82 305l46 20v153h-336v-153l61 -20l135 -527h277l87 309l83 -309h261l144 527zM715 775l20 67l-294 112l-30 -107z" />
    <glyph glyph-name="wgrave" unicode="&#x1e81;" horiz-adv-x="1146" 
d="M1128 547v153h-269v-153l42 -20l-77 -305l-86 305l49 20v153h-361v-153l47 -20l-83 -305l-82 305l46 20v153h-336v-153l61 -20l135 -527h277l87 309l83 -309h261l144 527zM715 775l20 67l-294 112l-30 -107z" />
    <glyph glyph-name="Wacute" unicode="&#x1e82;" horiz-adv-x="1146" 
d="M1128 547v153h-269v-153l42 -20l-77 -305l-86 305l49 20v153h-361v-153l47 -20l-83 -305l-82 305l46 20v153h-336v-153l61 -20l135 -527h277l87 309l83 -309h261l144 527zM735 847l-30 107l-294 -112l20 -67z" />
    <glyph glyph-name="wacute" unicode="&#x1e83;" horiz-adv-x="1146" 
d="M1128 547v153h-269v-153l42 -20l-77 -305l-86 305l49 20v153h-361v-153l47 -20l-83 -305l-82 305l46 20v153h-336v-153l61 -20l135 -527h277l87 309l83 -309h261l144 527zM735 847l-30 107l-294 -112l20 -67z" />
    <glyph glyph-name="Wdieresis" unicode="&#x1e84;" horiz-adv-x="1146" 
d="M1128 547v153h-269v-153l42 -20l-77 -305l-86 305l49 20v153h-361v-153l47 -20l-83 -305l-82 305l46 20v153h-336v-153l61 -20l135 -527h277l87 309l83 -309h261l144 527zM775 767v138h-159v-138h159zM531 767v138h-160v-138h160z" />
    <glyph glyph-name="wdieresis" unicode="&#x1e85;" horiz-adv-x="1146" 
d="M1128 547v153h-269v-153l42 -20l-77 -305l-86 305l49 20v153h-361v-153l47 -20l-83 -305l-82 305l46 20v153h-336v-153l61 -20l135 -527h277l87 309l83 -309h261l144 527zM775 767v138h-159v-138h159zM531 767v138h-160v-138h160z" />
    <glyph glyph-name="uni1E86" unicode="&#x1e86;" horiz-adv-x="1146" 
d="M1128 547v153h-269v-153l42 -20l-77 -305l-86 305l49 20v153h-361v-153l47 -20l-83 -305l-82 305l46 20v153h-336v-153l61 -20l135 -527h277l87 309l83 -309h261l144 527zM643 787v118h-140v-118h140z" />
    <glyph glyph-name="uni1E87" unicode="&#x1e87;" horiz-adv-x="1146" 
d="M1128 547v153h-269v-153l42 -20l-77 -305l-86 305l49 20v153h-361v-153l47 -20l-83 -305l-82 305l46 20v153h-336v-153l61 -20l135 -527h277l87 309l83 -309h261l144 527zM643 787v118h-140v-118h140z" />
    <glyph glyph-name="uni1E88" unicode="&#x1e88;" horiz-adv-x="1146" 
d="M1128 547v153h-269v-153l42 -20l-77 -305l-86 305l49 20v153h-361v-153l47 -20l-83 -305l-82 305l46 20v153h-336v-153l61 -20l135 -527h277l87 309l83 -309h261l144 527zM643 -193v118h-140v-118h140z" />
    <glyph glyph-name="uni1E89" unicode="&#x1e89;" horiz-adv-x="1146" 
d="M1128 547v153h-269v-153l42 -20l-77 -305l-86 305l49 20v153h-361v-153l47 -20l-83 -305l-82 305l46 20v153h-336v-153l61 -20l135 -527h277l87 309l83 -309h261l144 527zM643 -193v118h-140v-118h140z" />
    <glyph glyph-name="uni1E8A" unicode="&#x1e8a;" horiz-adv-x="738" 
d="M715 547v153h-254v-153l43 -20l-79 -106l-88 106l54 20v153h-369v-153l82 -20l134 -161l-167 -194l-53 -20v-152h257v152l-48 20l83 112l90 -112l-57 -20v-152h377v152l-76 20l-145 168l161 187zM439 787v118h-140v-118h140z" />
    <glyph glyph-name="uni1E8B" unicode="&#x1e8b;" horiz-adv-x="738" 
d="M715 547v153h-254v-153l43 -20l-79 -106l-88 106l54 20v153h-369v-153l82 -20l134 -161l-167 -194l-53 -20v-152h257v152l-48 20l83 112l90 -112l-57 -20v-152h377v152l-76 20l-145 168l161 187zM439 787v118h-140v-118h140z" />
    <glyph glyph-name="uni1E8C" unicode="&#x1e8c;" horiz-adv-x="738" 
d="M715 547v153h-254v-153l43 -20l-79 -106l-88 106l54 20v153h-369v-153l82 -20l134 -161l-167 -194l-53 -20v-152h257v152l-48 20l83 112l90 -112l-57 -20v-152h377v152l-76 20l-145 168l161 187zM571 767v138h-159v-138h159zM327 767v138h-160v-138h160z" />
    <glyph glyph-name="uni1E8D" unicode="&#x1e8d;" horiz-adv-x="738" 
d="M715 547v153h-254v-153l43 -20l-79 -106l-88 106l54 20v153h-369v-153l82 -20l134 -161l-167 -194l-53 -20v-152h257v152l-48 20l83 112l90 -112l-57 -20v-152h377v152l-76 20l-145 168l161 187zM571 767v138h-159v-138h159zM327 767v138h-160v-138h160z" />
    <glyph glyph-name="uni1E8E" unicode="&#x1e8e;" horiz-adv-x="708" 
d="M690 547v153h-277v-153l42 -20l-78 -117l-77 117l41 20v153h-323v-153l61 -20l171 -228v-127l-86 -20v-152h378v152l-85 20v128l169 227zM424 787v118h-140v-118h140z" />
    <glyph glyph-name="uni1E8F" unicode="&#x1e8f;" 
d="M120 408l143 -118h236v-94l-30 -24h-132l-20 73h-186v-127l142 -118h272l161 134v393l76 20v153h-328v-153l46 -20v-85h-147l-25 21v64l46 20v153h-330v-153l76 -20v-119zM483 787v118h-140v-118h140z" />
    <glyph glyph-name="uni1E90" unicode="&#x1e90;" horiz-adv-x="647" 
d="M618 558v142h-595v-267h148l20 95h141l-310 -388v-140h600v267h-148l-20 -95h-146zM512 770l-142 150h-91l-145 -150h128l63 91l59 -91h128z" />
    <glyph glyph-name="uni1E91" unicode="&#x1e91;" horiz-adv-x="647" 
d="M618 558v142h-595v-267h148l20 95h141l-310 -388v-140h600v267h-148l-20 -95h-146zM512 770l-142 150h-91l-145 -150h128l63 91l59 -91h128z" />
    <glyph glyph-name="uni1E92" unicode="&#x1e92;" horiz-adv-x="647" 
d="M618 558v142h-595v-267h148l20 95h141l-310 -388v-140h600v267h-148l-20 -95h-146zM393 -193v118h-140v-118h140z" />
    <glyph glyph-name="uni1E93" unicode="&#x1e93;" horiz-adv-x="647" 
d="M618 558v142h-595v-267h148l20 95h141l-310 -388v-140h600v267h-148l-20 -95h-146zM393 -193v118h-140v-118h140z" />
    <glyph glyph-name="uni1E94" unicode="&#x1e94;" horiz-adv-x="647" 
d="M618 558v142h-595v-267h148l20 95h141l-310 -388v-140h600v267h-148l-20 -95h-146zM474 -85h-302v-87h302v87z" />
    <glyph glyph-name="uni1E95" unicode="&#x1e95;" horiz-adv-x="647" 
d="M618 558v142h-595v-267h148l20 95h141l-310 -388v-140h600v267h-148l-20 -95h-146zM474 -85h-302v-87h302v87z" />
    <glyph glyph-name="uni1E96" unicode="&#x1e96;" 
d="M780 547v153h-329v-153l45 -20v-113h-169v113l46 20v153h-329v-153l76 -20v-355l-76 -20v-152h329v152l-46 20v122h169v-122l-45 -20v-152h329v152l-76 20v355zM564 -85h-302v-87h302v87z" />
    <glyph glyph-name="uni1E97" unicode="&#x1e97;" horiz-adv-x="729" 
d="M713 411v289h-696v-289h148l20 127h77v-366l-85 -20v-152h378v152l-86 20v366h77l20 -127h147zM566 767v138h-159v-138h159zM322 767v138h-160v-138h160z" />
    <glyph glyph-name="uni1E98" unicode="&#x1e98;" horiz-adv-x="1146" 
d="M1128 547v153h-269v-153l42 -20l-77 -305l-86 305l49 20v153h-361v-153l47 -20l-83 -305l-82 305l46 20v153h-336v-153l61 -20l135 -527h277l87 309l83 -309h261l144 527zM473 848q0 -38 29 -64t71 -26t71 26t29 64q0 18 -8 34.5t-21.5 29t-31.5 19.5t-39 7t-39 -7
t-31.5 -19.5t-21.5 -29t-8 -34.5zM533 848q0 12 11.5 21t28.5 9t28.5 -9t11.5 -21q0 -13 -11.5 -21.5t-28.5 -8.5t-28.5 8.5t-11.5 21.5z" />
    <glyph glyph-name="uni1E99" unicode="&#x1e99;" 
d="M120 408l143 -118h236v-94l-30 -24h-132l-20 73h-186v-127l142 -118h272l161 134v393l76 20v153h-328v-153l46 -20v-85h-147l-25 21v64l46 20v153h-330v-153l76 -20v-119zM313 848q0 -38 29 -64t71 -26t71 26t29 64q0 18 -8 34.5t-21.5 29t-31.5 19.5t-39 7t-39 -7
t-31.5 -19.5t-21.5 -29t-8 -34.5zM373 848q0 12 11.5 21t28.5 9t28.5 -9t11.5 -21q0 -13 -11.5 -21.5t-28.5 -8.5t-28.5 8.5t-11.5 21.5z" />
    <glyph glyph-name="uni1EA0" unicode="&#x1ea0;" horiz-adv-x="775" 
d="M671 172l-135 528h-404v-153l65 -20l-102 -355l-77 -20v-152h300v152l-49 20l17 62h151l18 -62l-53 -20v-152h355v152zM359 511l45 -157h-89zM457 -193v118h-140v-118h140z" />
    <glyph glyph-name="uni1EA1" unicode="&#x1ea1;" horiz-adv-x="726" 
d="M706 153l-76 20v413l-136 114h-306l-136 -114v-132h187l20 73h139l26 -20v-67l-263 -41l-117 -91v-190l143 -118h200l66 55l20 -55h233v153zM271 247l153 35v-89l-26 -21h-121l-25 21v37zM433 -193v118h-140v-118h140z" />
    <glyph glyph-name="uni1EA2" unicode="&#x1ea2;" horiz-adv-x="775" 
d="M671 172l-135 528h-404v-153l65 -20l-102 -355l-77 -20v-152h300v152l-49 20l17 62h151l18 -62l-53 -20v-152h355v152zM359 511l45 -157h-89zM315 950l-67 57h-141l-69 -57v-55h93v20l12 10h57l12 -10v-27l-82 -68v-58h83v30l102 86v72z" />
    <glyph glyph-name="uni1EA3" unicode="&#x1ea3;" horiz-adv-x="726" 
d="M706 153l-76 20v413l-136 114h-306l-136 -114v-132h187l20 73h139l26 -20v-67l-263 -41l-117 -91v-190l143 -118h200l66 55l20 -55h233v153zM271 247l153 35v-89l-26 -21h-121l-25 21v37zM370 950l-67 57h-141l-69 -57v-55h93v20l12 10h57l12 -10v-27l-82 -68v-58h83v30
l102 86v72z" />
    <glyph glyph-name="uni1EA4" unicode="&#x1ea4;" horiz-adv-x="775" 
d="M671 172l-135 528h-404v-153l65 -20l-102 -355l-77 -20v-152h300v152l-49 20l17 62h151l18 -62l-53 -20v-152h355v152zM359 511l45 -157h-89zM548 770l-142 150h-91l-145 -150h128l63 91l59 -91h128zM691 1047l-30 107l-294 -112l20 -67z" />
    <glyph glyph-name="uni1EA5" unicode="&#x1ea5;" horiz-adv-x="726" 
d="M706 153l-76 20v413l-136 114h-306l-136 -114v-132h187l20 73h139l26 -20v-67l-263 -41l-117 -91v-190l143 -118h200l66 55l20 -55h233v153zM271 247l153 35v-89l-26 -21h-121l-25 21v37zM518 770l-142 150h-91l-145 -150h128l63 91l59 -91h128zM642 1047l-30 107
l-294 -112l20 -67z" />
    <glyph glyph-name="uni1EA6" unicode="&#x1ea6;" horiz-adv-x="775" 
d="M671 172l-135 528h-404v-153l65 -20l-102 -355l-77 -20v-152h300v152l-49 20l17 62h151l18 -62l-53 -20v-152h355v152zM359 511l45 -157h-89zM548 770l-142 150h-91l-145 -150h128l63 91l59 -91h128zM347 975l20 67l-294 112l-30 -107z" />
    <glyph glyph-name="uni1EA7" unicode="&#x1ea7;" horiz-adv-x="726" 
d="M706 153l-76 20v413l-136 114h-306l-136 -114v-132h187l20 73h139l26 -20v-67l-263 -41l-117 -91v-190l143 -118h200l66 55l20 -55h233v153zM271 247l153 35v-89l-26 -21h-121l-25 21v37zM522 770l-142 150h-91l-145 -150h128l63 91l59 -91h128zM329 975l20 67l-294 112
l-30 -107z" />
    <glyph glyph-name="uni1EA8" unicode="&#x1ea8;" horiz-adv-x="775" 
d="M671 172l-135 528h-404v-153l65 -20l-102 -355l-77 -20v-152h300v152l-49 20l17 62h151l18 -62l-53 -20v-152h355v152zM359 511l45 -157h-89zM548 770l-142 150h-91l-145 -150h128l63 91l59 -91h128zM726 1070l-67 57h-141l-69 -57v-55h93v20l12 10h57l12 -10v-27
l-82 -68v-58h83v30l102 86v72z" />
    <glyph glyph-name="uni1EA9" unicode="&#x1ea9;" horiz-adv-x="726" 
d="M706 153l-76 20v413l-136 114h-306l-136 -114v-132h187l20 73h139l26 -20v-67l-263 -41l-117 -91v-190l143 -118h200l66 55l20 -55h233v153zM271 247l153 35v-89l-26 -21h-121l-25 21v37zM564 770l-142 150h-91l-145 -150h128l63 91l59 -91h128zM714 1070l-67 57h-141
l-69 -57v-55h93v20l12 10h57l12 -10v-27l-82 -68v-58h83v30l102 86v72z" />
    <glyph glyph-name="uni1EAA" unicode="&#x1eaa;" horiz-adv-x="775" 
d="M671 172l-135 528h-404v-153l65 -20l-102 -355l-77 -20v-152h300v152l-49 20l17 62h151l18 -62l-53 -20v-152h355v152zM359 511l45 -157h-89zM548 770l-142 150h-91l-145 -150h128l63 91l59 -91h128zM443 1065q-23 0 -42 7.5t-37.5 16.5t-38.5 16.5t-46 7.5
q-42 0 -75.5 -21t-55.5 -55l40 -57q23 26 42.5 39.5t45.5 13.5q20 0 38.5 -7.5t37.5 -16.5t40 -16.5t47 -7.5q40 0 73.5 20.5t56.5 55.5l-40 57q-22 -25 -42 -39t-44 -14z" />
    <glyph glyph-name="uni1EAB" unicode="&#x1eab;" horiz-adv-x="726" 
d="M706 153l-76 20v413l-136 114h-306l-136 -114v-132h187l20 73h139l26 -20v-67l-263 -41l-117 -91v-190l143 -118h200l66 55l20 -55h233v153zM271 247l153 35v-89l-26 -21h-121l-25 21v37zM528 770l-142 150h-91l-145 -150h128l63 91l59 -91h128zM426 1065q-23 0 -42 7.5
t-37.5 16.5t-38.5 16.5t-46 7.5q-42 0 -75.5 -21t-55.5 -55l40 -57q23 26 42.5 39.5t45.5 13.5q20 0 38.5 -7.5t37.5 -16.5t40 -16.5t47 -7.5q40 0 73.5 20.5t56.5 55.5l-40 57q-22 -25 -42 -39t-44 -14z" />
    <glyph glyph-name="uni1EAC" unicode="&#x1eac;" horiz-adv-x="775" 
d="M671 172l-135 528h-404v-153l65 -20l-102 -355l-77 -20v-152h300v152l-49 20l17 62h151l18 -62l-53 -20v-152h355v152zM359 511l45 -157h-89zM457 -193v118h-140v-118h140zM576 770l-142 150h-91l-145 -150h128l63 91l59 -91h128z" />
    <glyph glyph-name="uni1EAD" unicode="&#x1ead;" horiz-adv-x="726" 
d="M706 153l-76 20v413l-136 114h-306l-136 -114v-132h187l20 73h139l26 -20v-67l-263 -41l-117 -91v-190l143 -118h200l66 55l20 -55h233v153zM271 247l153 35v-89l-26 -21h-121l-25 21v37zM433 -193v118h-140v-118h140zM552 770l-142 150h-91l-145 -150h128l63 91l59 -91
h128z" />
    <glyph glyph-name="uni1EAE" unicode="&#x1eae;" horiz-adv-x="775" 
d="M671 172l-135 528h-404v-153l65 -20l-102 -355l-77 -20v-152h300v152l-49 20l17 62h151l18 -62l-53 -20v-152h355v152zM359 511l45 -157h-89zM535 920h-84q0 -33 -23.5 -60t-70.5 -27q-46 0 -71 27t-25 60h-80q0 -26 12 -52.5t34.5 -47.5t55 -34t74.5 -13t75 13t56 34
t35 47.5t12 52.5zM549 1047l-30 107l-294 -112l20 -67z" />
    <glyph glyph-name="uni1EAF" unicode="&#x1eaf;" horiz-adv-x="726" 
d="M706 153l-76 20v413l-136 114h-306l-136 -114v-132h187l20 73h139l26 -20v-67l-263 -41l-117 -91v-190l143 -118h200l66 55l20 -55h233v153zM271 247l153 35v-89l-26 -21h-121l-25 21v37zM516 920h-84q0 -33 -23.5 -60t-70.5 -27q-46 0 -71 27t-25 60h-80q0 -26 12 -52.5
t34.5 -47.5t55 -34t74.5 -13t75 13t56 34t35 47.5t12 52.5zM525 1047l-30 107l-294 -112l20 -67z" />
    <glyph glyph-name="uni1EB0" unicode="&#x1eb0;" horiz-adv-x="775" 
d="M671 172l-135 528h-404v-153l65 -20l-102 -355l-77 -20v-152h300v152l-49 20l17 62h151l18 -62l-53 -20v-152h355v152zM359 511l45 -157h-89zM535 920h-84q0 -33 -23.5 -60t-70.5 -27q-46 0 -71 27t-25 60h-80q0 -26 12 -52.5t34.5 -47.5t55 -34t74.5 -13t75 13t56 34
t35 47.5t12 52.5zM409 975l20 67l-294 112l-30 -107z" />
    <glyph glyph-name="uni1EB1" unicode="&#x1eb1;" horiz-adv-x="726" 
d="M706 153l-76 20v413l-136 114h-306l-136 -114v-132h187l20 73h139l26 -20v-67l-263 -41l-117 -91v-190l143 -118h200l66 55l20 -55h233v153zM271 247l153 35v-89l-26 -21h-121l-25 21v37zM519 920h-84q0 -33 -23.5 -60t-70.5 -27q-46 0 -71 27t-25 60h-80q0 -26 12 -52.5
t34.5 -47.5t55 -34t74.5 -13t75 13t56 34t35 47.5t12 52.5zM347 975l20 67l-294 112l-30 -107z" />
    <glyph glyph-name="uni1EB2" unicode="&#x1eb2;" horiz-adv-x="775" 
d="M671 172l-135 528h-404v-153l65 -20l-102 -355l-77 -20v-152h300v152l-49 20l17 62h151l18 -62l-53 -20v-152h355v152zM359 511l45 -157h-89zM535 920h-84q0 -33 -23.5 -60t-70.5 -27q-46 0 -71 27t-25 60h-80q0 -26 12 -52.5t34.5 -47.5t55 -34t74.5 -13t75 13t56 34
t35 47.5t12 52.5zM493 1111l-67 57h-141l-69 -57v-55h93v20l12 10h57l12 -10v-27l-82 -68v-58h83v30l102 86v72z" />
    <glyph glyph-name="uni1EB3" unicode="&#x1eb3;" horiz-adv-x="726" 
d="M706 153l-76 20v413l-136 114h-306l-136 -114v-132h187l20 73h139l26 -20v-67l-263 -41l-117 -91v-190l143 -118h200l66 55l20 -55h233v153zM271 247l153 35v-89l-26 -21h-121l-25 21v37zM523 920h-84q0 -33 -23.5 -60t-70.5 -27q-46 0 -71 27t-25 60h-80q0 -26 12 -52.5
t34.5 -47.5t55 -34t74.5 -13t75 13t56 34t35 47.5t12 52.5zM482 1108l-67 57h-141l-69 -57v-55h93v20l12 10h57l12 -10v-27l-82 -68v-58h83v30l102 86v72z" />
    <glyph glyph-name="uni1EB4" unicode="&#x1eb4;" horiz-adv-x="775" 
d="M671 172l-135 528h-404v-153l65 -20l-102 -355l-77 -20v-152h300v152l-49 20l17 62h151l18 -62l-53 -20v-152h355v152zM359 511l45 -157h-89zM536 1120h-84q0 -33 -23.5 -60t-70.5 -27q-46 0 -71 27t-25 60h-80q0 -26 12 -52.5t34.5 -47.5t55 -34t74.5 -13t75 13t56 34
t35 47.5t12 52.5zM442 865q-23 0 -42 7.5t-37.5 16.5t-38.5 16.5t-46 7.5q-42 0 -75.5 -21t-55.5 -55l40 -57q23 26 42.5 39.5t45.5 13.5q20 0 38.5 -7.5t37.5 -16.5t40 -16.5t47 -7.5q40 0 73.5 20.5t56.5 55.5l-40 57q-22 -25 -42 -39t-44 -14z" />
    <glyph glyph-name="uni1EB5" unicode="&#x1eb5;" horiz-adv-x="726" 
d="M706 153l-76 20v413l-136 114h-306l-136 -114v-132h187l20 73h139l26 -20v-67l-263 -41l-117 -91v-190l143 -118h200l66 55l20 -55h233v153zM271 247l153 35v-89l-26 -21h-121l-25 21v37zM552 1120h-84q0 -33 -23.5 -60t-70.5 -27q-46 0 -71 27t-25 60h-80
q0 -26 12 -52.5t34.5 -47.5t55 -34t74.5 -13t75 13t56 34t35 47.5t12 52.5zM447 865q-23 0 -42 7.5t-37.5 16.5t-38.5 16.5t-46 7.5q-42 0 -75.5 -21t-55.5 -55l40 -57q23 26 42.5 39.5t45.5 13.5q20 0 38.5 -7.5t37.5 -16.5t40 -16.5t47 -7.5q40 0 73.5 20.5t56.5 55.5
l-40 57q-22 -25 -42 -39t-44 -14z" />
    <glyph glyph-name="uni1EB6" unicode="&#x1eb6;" horiz-adv-x="775" 
d="M671 172l-135 528h-404v-153l65 -20l-102 -355l-77 -20v-152h300v152l-49 20l17 62h151l18 -62l-53 -20v-152h355v152zM359 511l45 -157h-89zM457 -193v118h-140v-118h140zM564 920h-84q0 -33 -23.5 -60t-70.5 -27q-46 0 -71 27t-25 60h-80q0 -26 12 -52.5t34.5 -47.5
t55 -34t74.5 -13t75 13t56 34t35 47.5t12 52.5z" />
    <glyph glyph-name="uni1EB7" unicode="&#x1eb7;" horiz-adv-x="726" 
d="M706 153l-76 20v413l-136 114h-306l-136 -114v-132h187l20 73h139l26 -20v-67l-263 -41l-117 -91v-190l143 -118h200l66 55l20 -55h233v153zM271 247l153 35v-89l-26 -21h-121l-25 21v37zM433 -193v118h-140v-118h140zM540 920h-84q0 -33 -23.5 -60t-70.5 -27
q-46 0 -71 27t-25 60h-80q0 -26 12 -52.5t34.5 -47.5t55 -34t74.5 -13t75 13t56 34t35 47.5t12 52.5z" />
    <glyph glyph-name="uni1EB8" unicode="&#x1eb8;" horiz-adv-x="705" 
d="M661 454v246h-617v-153l76 -20v-355l-76 -20v-152h618v245h-148l-20 -73h-168v122h168v120h-168v113h168l20 -73h147zM422 -193v118h-140v-118h140z" />
    <glyph glyph-name="uni1EB9" unicode="&#x1eb9;" horiz-adv-x="667" 
d="M624 245h-187l-20 -73h-145l-26 21v65l263 43l117 91v190l-143 118h-301l-142 -118v-468l136 -114h306l142 118v127zM399 453l-153 -25v79l26 21h121l25 -21v-37zM403 -193v118h-140v-118h140z" />
    <glyph glyph-name="uni1EBA" unicode="&#x1eba;" horiz-adv-x="705" 
d="M661 454v246h-617v-153l76 -20v-355l-76 -20v-152h618v245h-148l-20 -73h-168v122h168v120h-168v113h168l20 -73h147zM277 950l-67 57h-141l-69 -57v-55h93v20l12 10h57l12 -10v-27l-82 -68v-58h83v30l102 86v72z" />
    <glyph glyph-name="uni1EBB" unicode="&#x1ebb;" horiz-adv-x="667" 
d="M624 245h-187l-20 -73h-145l-26 21v65l263 43l117 91v190l-143 118h-301l-142 -118v-468l136 -114h306l142 118v127zM399 453l-153 -25v79l26 21h121l25 -21v-37zM363 950l-67 57h-141l-69 -57v-55h93v20l12 10h57l12 -10v-27l-82 -68v-58h83v30l102 86v72z" />
    <glyph glyph-name="uni1EBC" unicode="&#x1ebc;" horiz-adv-x="705" 
d="M661 454v246h-617v-153l76 -20v-355l-76 -20v-152h618v245h-148l-20 -73h-168v122h168v120h-168v113h168l20 -73h147zM437 865q-23 0 -42 7.5t-37.5 16.5t-38.5 16.5t-46 7.5q-42 0 -75.5 -21t-55.5 -55l40 -57q23 26 42.5 39.5t45.5 13.5q20 0 38.5 -7.5t37.5 -16.5
t40 -16.5t47 -7.5q40 0 73.5 20.5t56.5 55.5l-40 57q-22 -25 -42 -39t-44 -14z" />
    <glyph glyph-name="uni1EBD" unicode="&#x1ebd;" horiz-adv-x="667" 
d="M624 245h-187l-20 -73h-145l-26 21v65l263 43l117 91v190l-143 118h-301l-142 -118v-468l136 -114h306l142 118v127zM399 453l-153 -25v79l26 21h121l25 -21v-37zM418 865q-23 0 -42 7.5t-37.5 16.5t-38.5 16.5t-46 7.5q-42 0 -75.5 -21t-55.5 -55l40 -57
q23 26 42.5 39.5t45.5 13.5q20 0 38.5 -7.5t37.5 -16.5t40 -16.5t47 -7.5q40 0 73.5 20.5t56.5 55.5l-40 57q-22 -25 -42 -39t-44 -14z" />
    <glyph glyph-name="uni1EBE" unicode="&#x1ebe;" horiz-adv-x="705" 
d="M661 454v246h-617v-153l76 -20v-355l-76 -20v-152h618v245h-148l-20 -73h-168v122h168v120h-168v113h168l20 -73h147zM541 770l-142 150h-91l-145 -150h128l63 91l59 -91h128zM708 1047l-30 107l-294 -112l20 -67z" />
    <glyph glyph-name="uni1EBF" unicode="&#x1ebf;" horiz-adv-x="667" 
d="M624 245h-187l-20 -73h-145l-26 21v65l263 43l117 91v190l-143 118h-301l-142 -118v-468l136 -114h306l142 118v127zM399 453l-153 -25v79l26 21h121l25 -21v-37zM522 770l-142 150h-91l-145 -150h128l63 91l59 -91h128zM668 1047l-30 107l-294 -112l20 -67z" />
    <glyph glyph-name="uni1EC0" unicode="&#x1ec0;" horiz-adv-x="705" 
d="M661 454v246h-617v-153l76 -20v-355l-76 -20v-152h618v245h-148l-20 -73h-168v122h168v120h-168v113h168l20 -73h147zM541 770l-142 150h-91l-145 -150h128l63 91l59 -91h128zM303 975l20 67l-294 112l-30 -107z" />
    <glyph glyph-name="uni1EC1" unicode="&#x1ec1;" horiz-adv-x="667" 
d="M624 245h-187l-20 -73h-145l-26 21v65l263 43l117 91v190l-143 118h-301l-142 -118v-468l136 -114h306l142 118v127zM399 453l-153 -25v79l26 21h121l25 -21v-37zM522 770l-142 150h-91l-145 -150h128l63 91l59 -91h128zM305 975l20 67l-294 112l-30 -107z" />
    <glyph glyph-name="uni1EC2" unicode="&#x1ec2;" horiz-adv-x="705" 
d="M661 454v246h-617v-153l76 -20v-355l-76 -20v-152h618v245h-148l-20 -73h-168v122h168v120h-168v113h168l20 -73h147zM541 770l-142 150h-91l-145 -150h128l63 91l59 -91h128zM706 1070l-67 57h-141l-69 -57v-55h93v20l12 10h57l12 -10v-27l-82 -68v-58h83v30l102 86v72z
" />
    <glyph glyph-name="uni1EC3" unicode="&#x1ec3;" horiz-adv-x="667" 
d="M624 245h-187l-20 -73h-145l-26 21v65l263 43l117 91v190l-143 118h-301l-142 -118v-468l136 -114h306l142 118v127zM399 453l-153 -25v79l26 21h121l25 -21v-37zM522 770l-142 150h-91l-145 -150h128l63 91l59 -91h128zM667 1070l-67 57h-141l-69 -57v-55h93v20l12 10
h57l12 -10v-27l-82 -68v-58h83v30l102 86v72z" />
    </font>
</defs>
</svg>
