<svg xmlns="http://www.w3.org/2000/svg" viewBox="0 0 21 18"><g fill="#162859"><path d="M12.3 9.4c-.9.8-1.8 1.7-2.6 2.5l-.7-.7c-.4-.4-1-.4-1.3 0-.4.4-.3.9 0 1.3L9 13.9c.4.4 1 .4 1.3 0 1.1-1 2.2-2.1 3.3-3.2.4-.4.3-.9 0-1.3-.3-.3-.9-.3-1.3 0z"/><path d="M20.3 3.5c0-.6-.5-1.2-1.2-1.2-1 0-1.8-.1-2.8-.1V1.1c0-.7-.5-1.2-1.2-1.2s-1.2.5-1.2 1.2v1.1H7.4V1.1c0-.7-.5-1.2-1.2-1.2S4.9.4 4.9 1.1v1.1c-1 0-1.8 0-2.8.1-.6 0-1.1.5-1.1 1.2-.2 4.4-.2 8.7 0 13.1 0 .6.5 1.2 1.2 1.2 2.8.1 5.7.2 8.5.2s5.7-.1 8.5-.2c.6 0 1.2-.5 1.2-1.2.1-4.5.1-8.7-.1-13.1zm-2.4 11.1c0 .4-.4.8-.8.8-2.1.1-4.4.1-6.5.1-2.1 0-4.4 0-6.5-.1-.4 0-.8-.4-.8-.8-.1-1.9-.1-3.8-.1-5.7 0-.4.4-.8.8-.8h13.1c.5 0 .8.4.8.8.1 1.9.1 3.8 0 5.7z"/></g></svg>