<svg xmlns="http://www.w3.org/2000/svg" viewBox="0 0 20 18"><g fill="#162859"><path d="M15.3 1.4C15.3.6 14.7 0 14 0H5.9c-.8 0-1.4.6-1.4 1.3v2.2c0 .5.4.9.9.9h9c.5 0 .9-.4.9-.9V1.4zm.4 12.8c-.1-.4-.4-.7-.9-.7H4.9c-.4 0-.8.3-.9.7l-.4 2.2c-.2.8.5 1.6 1.3 1.6h9.9c.8 0 1.5-.8 1.3-1.6l-.4-2.2z"/><path d="M18 5.4H1.9c-1 0-1.8.8-1.8 1.8 0 2.1-.1 5.8 0 7.7 0 .7.6 1.3 1.3 1.3h.9l1-3.5c.2-.6.7-1 1.3-1l10.6.1c.6 0 1.1.4 1.3 1l1 3.5h.9c.7 0 1.3-.6 1.3-1.3.1-1.9.1-5.5.1-7.7-.1-1.1-.9-1.8-1.8-1.9zM2.7 9c-.5 0-.9-.4-.9-.9s.4-.9.9-.9.9.4.9.9-.4.9-.9.9z"/></g></svg>