<svg xmlns="http://www.w3.org/2000/svg" viewBox="0 0 21 19"><g fill="#FFC50F"><path d="M20.3 3.8c0-.6-.5-1.2-1.2-1.2-1 0-1.8-.1-2.8-.1V1.4c0-.7-.5-1.2-1.2-1.2s-1.2.5-1.2 1.2v1.1H7.4V1.4C7.4.7 6.9.2 6.2.2S4.9.7 4.9 1.4v1.1c-1 0-1.8 0-2.8.1-.6 0-1.1.5-1.1 1.2-.2 4.4-.2 8.7 0 13.1 0 .6.5 1.1 1.1 1.1 2.8.1 5.7.2 8.5.2s5.7-.1 8.5-.2c.6 0 1.2-.5 1.2-1.2.2-4.4.2-8.6 0-13zm-2.4 11.1c0 .4-.4.8-.8.8-2.1.1-4.4.1-6.5.1-2.1 0-4.4 0-6.5-.1-.4 0-.8-.4-.8-.8V9.2c0-.4.4-.8.8-.8h13.1c.5 0 .8.4.8.8 0 1.9 0 3.8-.1 5.7z"/><path d="M14.7 11.6h-.8c-.5 0-.8.4-.8.8v.8c0 .5.4.8.8.8h.8c.5 0 .8-.4.8-.8v-.8c0-.4-.3-.8-.8-.8z"/></g></svg>