<svg xmlns="http://www.w3.org/2000/svg" viewBox="0 0 21 19"><g fill="#162859"><path d="M19.9 4.5c0-.6-.5-1.2-1.2-1.2-1 0-1.8-.1-2.8-.1v-1c0-.7-.5-1.2-1.2-1.2s-1.2.5-1.2 1.2v1.1H7V2.2C7 1.5 6.5 1 5.8 1s-1.2.5-1.2 1.2v1.1c-1 0-1.8 0-2.8.1-.6 0-1.2.5-1.2 1.2C.4 9 .4 13.3.6 17.7c0 .6.5 1.2 1.2 1.2 2.8.1 5.7.2 8.5.2s5.7-.1 8.5-.2c.6 0 1.2-.5 1.2-1.2.1-4.5.1-8.7-.1-13.2zm-2.3 11.1c0 .4-.4.8-.8.8-2.1.1-4.4.1-6.5.1-2.1 0-4.4 0-6.5-.1-.4 0-.8-.4-.8-.8-.1-1.9-.1-3.8-.1-5.7 0-.4.4-.8.8-.8h13.1c.5 0 .8.4.8.8.1 1.9 0 3.8 0 5.7z"/><path d="M14.4 12.4h-.8c-.5 0-.8.4-.8.8v.8c0 .5.4.8.8.8h.8c.5 0 .8-.4.8-.8v-.8c0-.4-.4-.8-.8-.8z"/></g></svg>