<svg xmlns="http://www.w3.org/2000/svg" viewBox="0 0 27 25"><g fill="#D3D3D3"><path d="M15.5 13c-1.2 1.1-2.3 2.2-3.5 3.4l-1-1c-.5-.5-1.3-.5-1.8 0s-.5 1.2 0 1.7l1.9 1.8c.5.5 1.3.5 1.8 0 1.5-1.4 2.9-2.8 4.4-4.2.5-.5.5-1.2 0-1.7s-1.3-.5-1.8 0z"/><path d="M26.2 5.1c0-.9-.7-1.5-1.6-1.6-1.3-.1-2.4-.1-3.7-.1V1.9c0-.9-.7-1.6-1.6-1.6-.9 0-1.6.7-1.6 1.6v1.4H9V1.9C9 1 8.3.3 7.4.3S5.6 1 5.6 1.9v1.5c-1.3 0-2.3 0-3.6.1-.9 0-1.5.7-1.6 1.6C.1 11 .1 16.6.4 22.5c0 .9.7 1.5 1.6 1.6 3.7.1 7.6.2 11.3.2s7.6-.1 11.3-.2c.9 0 1.5-.7 1.6-1.6.2-5.9.2-11.5 0-17.4zM23 19.8c0 .6-.5 1-1.1 1-2.8.2-5.8.2-8.6.2s-5.9 0-8.7-.1c-.6 0-1-.5-1.1-1-.1-2.5-.1-5.1-.1-7.6 0-.6.5-1.1 1.1-1.1H22c.6 0 1.1.5 1.1 1.1 0 2.5 0 5-.1 7.5z"/></g></svg>