<svg xmlns="http://www.w3.org/2000/svg" viewBox="0 0 28 26"><g fill="#162859"><path d="M32.5 42.6c.1-2.4.1-4.8 0-7.2 0-.6-.5-1.1-1.1-1.1-.6 0-1.1.5-1.1 1.1-.1 2.4-.1 4.8 0 7.2 0 .6.5 1.1 1.1 1.1.6 0 1.1-.5 1.1-1.1z"/><path d="M30.9 43.6c1.9.7 3.7 1.3 5.6 1.8.5.1 1-.2 1.2-.7.2-.5-.1-1.1-.5-1.2-1.9-.7-3.7-1.3-5.6-1.8-.5-.1-1 .2-1.2.7-.2.4.1 1 .5 1.2z"/><path d="M31.9 27.4c-7.7 0-13.9 5.9-13.9 12.8 0 7 6.2 12.8 13.9 12.8s13.9-5.8 13.9-12.8c0-6.9-6.2-12.8-13.9-12.8zm0 21.7c-5.4 0-9.7-4.1-9.7-8.9 0-4.8 4.3-8.9 9.7-8.9 5.4 0 9.7 4.1 9.7 8.9 0 4.9-4.3 8.9-9.7 8.9z"/></g><g fill="#D3D3D3"><path d="M14.5 15.6c.1-2.4.1-4.8 0-7.2 0-.6-.5-1.1-1.1-1.1-.6 0-1.1.5-1.1 1.1-.1 2.4-.1 4.8 0 7.2 0 .6.5 1.1 1.1 1.1.6 0 1.1-.5 1.1-1.1z"/><path d="M12.9 16.6c1.9.7 3.7 1.3 5.6 1.8.5.1 1-.2 1.2-.7.2-.5-.1-1.1-.5-1.2-1.9-.7-3.7-1.3-5.6-1.8-.5-.1-1 .2-1.2.7-.2.4.1 1 .5 1.2z"/><path d="M13.9.4C6.2.4 0 6.3 0 13.2 0 20.2 6.2 26 13.9 26s13.9-5.8 13.9-12.8C27.8 6.3 21.6.4 13.9.4zm0 21.7c-5.4 0-9.7-4.1-9.7-8.9 0-4.8 4.3-8.9 9.7-8.9 5.4 0 9.7 4.1 9.7 8.9 0 4.9-4.3 8.9-9.7 8.9z"/></g></svg>