<svg xmlns="http://www.w3.org/2000/svg" viewBox="0 0 33 33"><radialGradient id="a" cx="-1636.114" cy="-390.523" r="26.611" gradientTransform="translate(2197.499 537.038) scale(1.3333)" gradientUnits="userSpaceOnUse"><stop offset="0" stop-color="#162859"/><stop offset="1" stop-color="#131746"/></radialGradient><circle fill="url(#a)" cx="16" cy="16.3" r="16"/><path fill="#FFC50F" d="M19.1 16c.8-.8 1.6-1.6 2.3-2.4.8-.8.8-2.2-.1-3-.8-.8-2.1-.8-3-.1-.8.8-1.6 1.5-2.4 2.3-.8-.8-1.6-1.6-2.4-2.3-.8-.8-2.2-.8-3 .1-.8.8-.8 2.1-.1 3 .8.8 1.5 1.6 2.3 2.4-.8.8-1.6 1.6-2.3 2.4-.8.8-.8 2.2.1 3 .8.8 2.1.8 3 .1.8-.8 1.6-1.5 2.4-2.3.8.8 1.6 1.6 2.4 2.3.8.8 2.2.8 3-.1.8-.8.8-2.1.1-3-.7-.8-1.5-1.6-2.3-2.4z"/></svg>