<svg xmlns="http://www.w3.org/2000/svg" viewBox="0 0 21 21"><text transform="translate(38.139 14.882)" fill="#181B4E" font-family="'SFUIDisplay-Medium'" font-size="14">Регистрация</text><g fill="#162859"><path d="M17.5 9.6l-1.6 1.6c-.2.2-.2.4-.2.6v4.6H5V5.8h4.6c.2 0 .4-.1.6-.2L11.8 4c.5-.5.2-1.4-.6-1.4H2.9c-.7 0-1.2.5-1.2 1.2v14.7c0 .7.5 1.2 1.2 1.2h14.7c.7 0 1.2-.5 1.2-1.2v-8.3c.1-.7-.8-1.1-1.3-.6z"/><path d="M19.2 2.2c-.6-.6-1.7-.6-2.3 0L9.3 9.8c-.2.1-.3.3-.3.5v1.2c0 .5.4.8.8.8H11c.2 0 .4-.1.6-.2l7.6-7.6c.6-.7.6-1.7 0-2.3z"/></g></svg>