<svg xmlns="http://www.w3.org/2000/svg" viewBox="0 0 14 14"><path d="M4.9 8.4s0 .1 0 0c0 .1 0 .1 0 0l3 3c-.6.6-1.2 1.2-1.9 1.8-.3.3-.7.3-1 0 0 0-.1 0-.1-.1l-1.3-1.4c.1-.2.2-.5.2-.8 0-.7-.6-1.3-1.3-1.4-.5.1-.7.2-1 .3L.2 8.4s0-.1-.1-.1c-.2-.3-.2-.7.1-1C.8 6.7 1.4 6 2 5.4c1 1.1 2 2.1 2.9 3zM3.7 3.8c-.5.5-.9.9-1.4 1.3 1 1.1 1.9 2.1 2.8 3L8 11c.5-.4.9-.9 1.3-1.3l3.5-3.5c.3-.3.3-.7.1-1 0 0 0-.1-.1-.1l-1.3-1.4c-.1.3-.4.4-.7.3-.7 0-1.3-.7-1.3-1.4 0-.3.1-.6.3-.9L8.4.4 8.3.3c-.3-.2-.7-.3-1 0C6 1.6 4.8 2.7 3.7 3.8zm3 1c.5-.5 1.4-.5 1.9 0s.5 1.4 0 1.9-1.4.5-1.9 0-.5-1.4 0-1.9z" fill="#fff"/></svg>