<svg xmlns="http://www.w3.org/2000/svg" viewBox="0 0 25 25"><radialGradient id="a" cx="13.272" cy="12.01" r="19.09" gradientUnits="userSpaceOnUse"><stop offset="0" stop-color="#162859"/><stop offset="1" stop-color="#131746"/></radialGradient><circle fill="url(#a)" cx="12.3" cy="12.4" r="12"/><g fill="#FFC50F"><circle cx="10.7" cy="16.6" r="1.1"/><circle cx="15.6" cy="16.6" r="1.1"/><path d="M10.9 8.8l-.3-1.3c-.1-.3-.3-.5-.6-.5H8.3c-.5 0-.9.4-.9.9s.4.9.9.9h.5c.1 1.8.4 3.5.8 5.2.1.3.4.5.7.5l6-.4c.3 0 .6-.3.6-.6.2-1.4.3-2.7.4-4.1 0-.4-.3-.7-.7-.7l-5.7.1z"/></g></svg>