<svg xmlns="http://www.w3.org/2000/svg" viewBox="0 0 14 9"><linearGradient id="a" gradientUnits="userSpaceOnUse" x1="13592.008" y1="2651.507" x2="13605.596" y2="2651.507" gradientTransform="translate(-13591.718 -2647.426)"><stop offset="0" stop-color="#162859"/><stop offset="1" stop-color="#131746"/></linearGradient><path fill="url(#a)" d="M13.5.4C13 0 12.3 0 11.8.4c-1.6 1.5-3.2 3.1-4.7 4.7C5.5 3.5 4 1.9 2.4.4 1.9 0 1.1 0 .7.4.2.9.2 1.6.7 2.1 2.5 4 4.4 5.9 6.3 7.7c.2.3.5.4.8.4.3 0 .6-.1.9-.3 1.9-1.8 3.8-3.7 5.6-5.6.4-.5.4-1.3-.1-1.8z"/></svg>