<svg xmlns="http://www.w3.org/2000/svg" viewBox="0 0 16 13"><radialGradient id="a" cx="7.677" cy="6.951" r="6.884" gradientUnits="userSpaceOnUse"><stop offset="0" stop-color="#162859"/><stop offset="1" stop-color="#131746"/></radialGradient><path fill="url(#a)" d="M15.2 4c0-.5-.4-.9-1-1-.8 0-1.8 0-2.6-.1l-.3-1.2c-.1-.4-.5-.7-.9-.7-2.2-.2-3-.2-5.2 0-.4 0-.8.3-.9.7L4 3H1.1c-.5 0-1 .5-1 1C0 6.7 0 9.2.1 11.9c0 .5.4.9 1 1 4.5.2 8.7.2 13.2 0 .5 0 .9-.4 1-1 .1-2.8.1-5.2-.1-7.9zm-7.5 7c-1.7 0-3-1.3-3-3s1.3-3 3-3 3 1.3 3 3-1.4 3-3 3z"/></svg>