<svg xmlns="http://www.w3.org/2000/svg" viewBox="0 0 26 25"><circle fill="#FFC50F" cx="12.9" cy="12.8" r="12"/><linearGradient id="a" gradientUnits="userSpaceOnUse" x1="10.699" y1="14.351" x2="15.063" y2="14.351"><stop offset="0" stop-color="#162859"/><stop offset="1" stop-color="#131746"/></linearGradient><path fill="url(#a)" d="M14 12.9c-.6.6-1.2 1.1-1.7 1.7l-.5-.5c-.2-.2-.6-.2-.9 0-.2.2-.2.6 0 .9l.9.9c.2.2.6.2.9 0 .7-.7 1.5-1.4 2.2-2.1.2-.2.2-.6 0-.9-.3-.3-.7-.3-.9 0z"/><linearGradient id="b" gradientUnits="userSpaceOnUse" x1="6.335" y1="12.504" x2="19.426" y2="12.504"><stop offset="0" stop-color="#162859"/><stop offset="1" stop-color="#131746"/></linearGradient><path fill="url(#b)" d="M19.3 8.9c0-.4-.4-.8-.8-.8-.7 0-1.2 0-1.8-.1v-.7c0-.5-.4-.8-.8-.8-.5 0-.8.4-.8.8V8h-4.4v-.7c0-.5-.4-.8-.8-.8-.5 0-.8.4-.8.8V8c-.7 0-1.2 0-1.8.1-.4 0-.8.4-.8.8-.1 2.9-.1 5.8 0 8.7 0 .4.4.8.8.8 1.8.1 3.8.1 5.7.1s3.8 0 5.7-.1c.4 0 .8-.4.8-.8 0-2.9 0-5.8-.2-8.7zm-1.6 7.4c0 .3-.2.5-.5.5-1.4 0-2.9.1-4.3.1s-2.9 0-4.3-.1c-.3 0-.5-.2-.5-.5C8 15 8 13.8 8 12.5c0-.3.2-.5.5-.5h8.7c.3 0 .5.2.5.5.1 1.3.1 2.5 0 3.8z"/></svg>