<?xml version="1.0" encoding="utf-8"?>
<!-- Generator: Adobe Illustrator 17.1.0, SVG Export Plug-In . SVG Version: 6.00 Build 0)  -->
<!DOCTYPE svg PUBLIC "-//W3C//DTD SVG 1.1//EN" "http://www.w3.org/Graphics/SVG/1.1/DTD/svg11.dtd">
<svg version="1.1" id="Layer_1" xmlns="http://www.w3.org/2000/svg" xmlns:xlink="http://www.w3.org/1999/xlink" x="0px" y="0px"
	 viewBox="0 0 25 25" enable-background="new 0 0 25 25" xml:space="preserve">
<circle fill="#FFC50F" cx="12.5" cy="12.8" r="12"/>
<linearGradient id="SVGID_1_" gradientUnits="userSpaceOnUse" x1="4.8316" y1="12.8194" x2="20.1647" y2="12.8194">
	<stop  offset="4.206731e-004" style="stop-color:#162859"/>
	<stop  offset="1" style="stop-color:#131746"/>
</linearGradient>
<path fill="url(#SVGID_1_)" d="M20.1,9.9c0-0.5-0.4-0.9-1-1c-0.8,0-1.8,0-2.6-0.1l-0.3-1.2c-0.1-0.4-0.5-0.7-0.9-0.7
	c-2.2-0.2-3-0.2-5.2,0C9.6,7,9.3,7.3,9.1,7.7L8.8,8.8c-0.9,0-2,0-2.9,0.1c-0.5,0-0.9,0.4-1,0.9c-0.1,2.7-0.1,5.2,0,7.9
	c0,0.5,0.4,0.9,1,1c4.5,0.2,8.7,0.2,13.2,0c0.5,0,0.9-0.4,1-1C20.2,15,20.2,12.6,20.1,9.9z M12.5,16.8c-1.7,0-3-1.3-3-3s1.3-3,3-3
	s3,1.3,3,3S14.2,16.8,12.5,16.8z"/>
</svg>
