<svg xmlns="http://www.w3.org/2000/svg" viewBox="0 0 27 25"><g fill="#FFF"><path d="M15.7 12.7c-1.2 1.1-2.3 2.2-3.5 3.4l-1-1c-.5-.5-1.3-.5-1.8 0s-.5 1.2 0 1.7l1.9 1.8c.5.5 1.3.5 1.8 0 1.5-1.4 2.9-2.8 4.4-4.2.5-.5.5-1.2 0-1.7-.5-.4-1.3-.4-1.8 0z"/><path d="M26.4 4.8c0-.9-.7-1.5-1.6-1.6-1.3-.1-2.4-.1-3.7-.1V1.7c0-.9-.7-1.6-1.6-1.6-.9 0-1.6.7-1.6 1.6v1.4H9.2V1.7C9.1.8 8.4 0 7.5 0S5.8.8 5.8 1.7v1.5c-1.3 0-2.4.1-3.7.1-.8 0-1.5.7-1.5 1.5-.3 5.9-.3 11.5 0 17.4 0 .9.7 1.5 1.6 1.6 3.6.2 7.6.2 11.3.2s7.6-.1 11.3-.2c.9 0 1.5-.7 1.6-1.6.2-5.8.2-11.5 0-17.4zm-3.2 14.8c0 .6-.5 1-1.1 1-2.8.1-5.9.1-8.7.1-2.8 0-5.9 0-8.7-.1-.6 0-1-.5-1.1-1-.1-2.5-.1-5.1-.1-7.6 0-.6.5-1.1 1.1-1.1H22c.6 0 1.1.5 1.1 1.1.2 2.5.2 5.1.1 7.6z"/></g></svg>