<svg xmlns="http://www.w3.org/2000/svg" viewBox="0 0 26 26"><radialGradient id="a" cx="12.736" cy="12.951" r="26.611" gradientUnits="userSpaceOnUse"><stop offset="0" stop-color="#162859"/><stop offset="1" stop-color="#131746"/></radialGradient><circle fill="url(#a)" cx="12.7" cy="13" r="12"/><g fill="#FFC50F"><circle cx="12.2" cy="18.5" r="1.3"/><path d="M15.8 7.6h-5.6c-.5.1-.8.4-.8.8v.5c0 .4.3.7.8.7H14c.3 0 .5.2.5.5v1.5c0 .3-.2.5-.5.5h-2.2c-.4 0-.7.3-.7.8V16c0 .4.3.7.8.7h.5c.4 0 .7-.3.7-.8v-1.4c0-.3.2-.5.5-.5h2.2c.4 0 .7-.3.7-.8v-5c0-.3-.3-.6-.7-.6z"/></g></svg>