<svg xmlns="http://www.w3.org/2000/svg" xmlns:xlink="http://www.w3.org/1999/xlink" viewBox="0 0 311.03 105.16"><defs><style>.cls-1{fill:url(#Безымянный_градиент_2);}.cls-2{fill:#f8f9f9;}.cls-3{fill:url(#Безымянный_градиент_5);}.cls-4{fill:url(#Безымянный_градиент_2-2);}.cls-5{fill:#fff;}.cls-6{fill:url(#Безымянный_градиент_4);}.cls-7{fill:none;}.cls-8{fill:#0067ab;}.cls-9{fill:#0067af;}</style><linearGradient id="Безымянный_градиент_2" x1="156.85" y1="-7861.33" x2="156.85" y2="-7837.69" gradientTransform="matrix(1, 0, 0, -1, 0, -7845.45)" gradientUnits="userSpaceOnUse"><stop offset="0" stop-color="#0067af"/><stop offset="1" stop-color="#047"/></linearGradient><linearGradient id="Безымянный_градиент_5" x1="156.64" y1="-7868.97" x2="156.64" y2="-7840.23" gradientTransform="matrix(1, 0, 0, -1, 0, -7845.45)" gradientUnits="userSpaceOnUse"><stop offset="0" stop-color="#0067af"/><stop offset="1" stop-color="#a4cbfd"/></linearGradient><linearGradient id="Безымянный_градиент_2-2" x1="156.84" y1="-7860.36" x2="156.84" y2="-7846.07" xlink:href="#Безымянный_градиент_2"/><linearGradient id="Безымянный_градиент_4" x1="156.49" y1="-7887.74" x2="156.49" y2="-7879.61" gradientTransform="matrix(1, 0, 0, -1, 0, -7845.45)" gradientUnits="userSpaceOnUse"><stop offset="0" stop-color="#fde403"/><stop offset="1" stop-color="#fdcd00"/></linearGradient></defs><title>Ресурс 2</title><g id="Слой_2" data-name="Слой 2"><g id="Main"><path class="cls-1" d="M227.08,9h-47.5a7.75,7.75,0,0,0-2.5-3.53A14,14,0,0,0,173,2.79C163.69-.88,150.6-.88,141,2.79,138.54,4,135.16,5.74,134.28,9H86.62a6.21,6.21,0,0,0-6.18,6.18V39.27a6.21,6.21,0,0,0,6.18,6.18H227.08a6.21,6.21,0,0,0,6.18-6.18V15.15A6.21,6.21,0,0,0,227.08,9Z"/><path class="cls-2" d="M225.9,10.29H87.21a5.59,5.59,0,0,0-5.59,5.59V38.53a5.59,5.59,0,0,0,5.59,5.59H225.9a5.59,5.59,0,0,0,5.59-5.59V15.88A5.59,5.59,0,0,0,225.9,10.29Zm-138.69.59H225.9a5,5,0,0,1,5,5V33.09H82.36V15.88A4.84,4.84,0,0,1,87.21,10.88ZM225.9,43.39H87.21a5,5,0,0,1-5-5V33.68H230.75v4.71A4.75,4.75,0,0,1,225.9,43.39Z"/><path class="cls-3" d="M226.78,21.33H86.48a4,4,0,0,1-4-4V15a4,4,0,0,1,4-4H226.78a4,4,0,0,1,4,4v2.35A3.78,3.78,0,0,1,226.78,21.33Z"/><path class="cls-4" d="M176.93,5.29c1.47,1.18,3.09,2.94,2.5,5.29-1.32,3.82-5.15,5.29-8.38,6.47-10.15,3.09-23.24,3.09-32.65-1.91-1.76-1.18-4.27-2.94-4.27-5.59.44-3.82,4.27-5.74,6.91-6.91,9.41-3.53,22.35-3.53,31.62,0a14.64,14.64,0,0,1,4.27,2.65Z"/><path class="cls-5" d="M30.3,94.71c0-2.21-.74-2.65-10-2.94C2.94,91,.29,90.6.29,80.45S5.74,70,20.15,70c16.18,0,20,.59,20,11.91H29.56c0-3.53,0-3.68-9.41-3.68s-9.27,0-9.27,2.21,1.32,2.5,9.56,2.79C37.65,84,41,84.86,41,94.71c0,9.56-4.41,10.44-20.59,10.44C2.79,105.16,0,104.42,0,93.1H10.59c0,3.68.15,3.82,10,3.82S30.3,96.77,30.3,94.71Z"/><polygon class="cls-5" points="52.88 82.51 58.47 82.51 70.39 70.45 84.8 70.45 67.74 86.77 87.53 105.16 72.11 105.16 58.47 91.33 52.88 91.33 52.88 105.16 42.44 105.16 42.44 70.45 52.88 70.45 52.88 82.51"/><path class="cls-5" d="M100.16,70.45,109,81.62c1.47,1.91,1,4.56,1.47,4.56s0-2.65,1.47-4.56l8.82-11.18h14.41L115.6,92.8v12.35H105V92.8L85.74,70.45Z"/><path class="cls-5" d="M161.78,70.45H136v34.71h10.59V96.33h15.15c10.44,0,14.56-1.32,14.56-12.94S172.22,70.45,161.78,70.45Zm0,16.91H146.63V79.27h15.15c2.21,0,4,.88,4,4.12S164,87.36,161.78,87.36Z"/><path class="cls-5" d="M204.65,70.45H186.71l-17.26,34.71h12.33L185.24,99h20.88l3.47,6.18h12.33ZM189.21,90.15l5.59-12.06h1.62L202,90.15Z"/><path class="cls-5" d="M259.32,90c3.38-1.32,4.71-3.82,4.71-9.71,0-7.65-3.24-10-10.59-10H222.85v34.86h10.59V95h16.62a3.14,3.14,0,0,1,3.38,3.38v6.77H264V96.92C264,92.65,263,91.63,259.32,90Zm-9-3.68H233.44V79.42h16.91c2.21,0,3.24.88,3.24,3.53S252.56,86.33,250.35,86.33Z"/><polygon class="cls-5" points="276.44 82.51 282.03 82.51 293.94 70.45 308.35 70.45 291.29 86.77 311.03 105.16 295.69 105.16 282.03 91.33 276.44 91.33 276.44 105.16 266 105.16 266 70.45 276.44 70.45 276.44 82.51"/><polygon class="cls-5" points="6.47 53.68 6.47 60.45 5.15 60.45 5.15 54.71 2.35 54.71 2.35 60.45 1.03 60.45 1.03 53.68 6.47 53.68"/><path class="cls-5" d="M17.5,53.68H15.88l-2.65,6.77h1.47L15.3,59h2.79l.59,1.47h1.47ZM15.74,57.8,16.62,55h0l1,2.79Z"/><path class="cls-5" d="M29,53.68H26.91v6.77h1.32v-2.5h.88a2.09,2.09,0,0,0,2.35-2.06C31.47,55.3,31.33,53.68,29,53.68Zm0,3.09h-.74V54.71h.59a1,1,0,0,1,1.18,1A1,1,0,0,1,29,56.77Z"/><polygon class="cls-5" points="39.86 53.68 39.86 56.48 39.86 56.48 42.36 53.68 43.97 53.68 41.18 56.77 44.12 60.45 42.36 60.45 39.86 57.06 39.86 57.06 39.86 60.45 38.53 60.45 38.53 53.68 39.86 53.68"/><polygon class="cls-5" points="64.42 53.68 64.42 60.45 63.09 60.45 63.09 54.71 60.45 54.71 60.45 60.45 58.98 60.45 58.98 53.68 64.42 53.68"/><path class="cls-5" d="M73.68,53.68H71.62v6.77h1.32v-2.5h.88a2.09,2.09,0,0,0,2.35-2.06C76.33,55.3,76.18,53.68,73.68,53.68Zm0,3.09h-.59V54.71h.59a1,1,0,1,1,0,2.06Z"/><polygon class="cls-5" points="84.71 53.68 84.71 57.06 84.71 58.68 84.71 58.68 85.15 57.8 87.51 53.68 89.13 53.68 89.13 60.45 87.8 60.45 87.8 56.92 87.8 55.3 87.8 55.3 87.36 56.33 85.01 60.45 83.24 60.45 83.24 53.68 84.71 53.68"/><polygon class="cls-5" points="97.8 53.68 97.8 56.48 97.8 56.48 100.3 53.68 101.92 53.68 99.13 56.77 102.07 60.45 100.3 60.45 97.8 57.06 97.8 57.06 97.8 60.45 96.48 60.45 96.48 53.68 97.8 53.68"/><path class="cls-5" d="M113.83,53.68v6.77h-1.32V54.86H110.6v1.32c0,2.21,0,4.27-1.91,4.27-.29,0-.44,0-.59-.15v-1h.29c1,0,.88-1.91.88-3.53V53.53h4.56Z"/><path class="cls-5" d="M126.78,53.53a3,3,0,0,0-3.24,2.79h-1V53.53h-1.32V60.3h1.32V57.36h1a3.12,3.12,0,0,0,3.24,2.94,3.38,3.38,0,1,0,0-6.77Zm0,6c-.44,0-1.91-.15-1.91-2.5s1.32-2.5,1.91-2.5,1.91.15,1.91,2.5S127.36,59.56,126.78,59.56Z"/><path class="cls-5" d="M138.25,53.68V56c0,.44,0,1,1.32,1a4.07,4.07,0,0,0,1.32-.15V53.68h1.32v6.77h-1.32V58.09a3.26,3.26,0,0,1-1.32.15c-2.35,0-2.65-1-2.65-2.06v-2.5Z"/><polygon class="cls-5" points="153.54 53.68 153.54 54.86 150.9 54.86 150.9 56.33 153.4 56.33 153.4 57.51 150.9 57.51 150.9 59.27 153.54 59.27 153.54 60.45 149.57 60.45 149.57 53.68 153.54 53.68"/><polygon class="cls-5" points="162.07 53.68 162.07 56.33 164.87 56.33 164.87 53.68 166.19 53.68 166.19 60.45 164.87 60.45 164.87 57.51 162.07 57.51 162.07 60.45 160.75 60.45 160.75 53.68 162.07 53.68"/><polygon class="cls-5" points="174.87 53.68 174.87 57.06 174.87 58.68 174.87 58.68 175.31 57.8 177.66 53.68 179.28 53.68 179.28 60.45 177.96 60.45 177.96 56.92 177.96 55.3 177.96 55.3 177.51 56.33 175.16 60.45 173.4 60.45 173.4 53.68 174.87 53.68"/><polygon class="cls-5" points="187.96 53.68 187.96 57.06 187.96 58.68 187.96 58.68 188.4 57.8 190.75 53.68 192.52 53.68 192.52 60.45 191.05 60.45 191.05 56.92 191.19 55.3 191.05 55.3 190.6 56.33 188.25 60.45 186.63 60.45 186.63 53.68 187.96 53.68"/><path class="cls-5" d="M191.19,52.06a1.91,1.91,0,0,1-3.53,0l.74-.44a1.09,1.09,0,0,0,1,.59c.15,0,.88,0,1-.59Z"/><polygon class="cls-5" points="209.28 53.68 209.28 56.33 212.08 56.33 212.08 53.68 213.4 53.68 213.4 60.45 212.08 60.45 212.08 57.51 209.28 57.51 209.28 60.45 207.96 60.45 207.96 53.68 209.28 53.68"/><path class="cls-5" d="M224.43,53.68h-1.62l-2.65,6.77h1.47l.59-1.47H225l.59,1.47h1.47Zm-1.76,4.12.88-2.79h0l1,2.79Z"/><path class="cls-5" d="M245.46,56.92h0a1.56,1.56,0,0,0,1-1.62c0-1.18-.88-1.62-2.21-1.62h-2.21v6.77h2.21c2.21,0,2.65-1,2.65-1.91A1.73,1.73,0,0,0,245.46,56.92Zm-2.06-2.21H244c1,0,1.18.59,1.18.88s-.15.88-1,.88h-.74Zm.74,4.56h-.74V57.36h.74c.88,0,1.18.44,1.18.88S245,59.27,244.14,59.27Z"/><path class="cls-5" d="M256.2,56.18h-.88v-2.5H254v6.77h2.21c1.91,0,2.5-1.18,2.5-2.21C258.7,57.8,258.55,56.18,256.2,56.18Zm0,3.09h-.88V57.21h.74c1,0,1.18.59,1.18,1C257.37,59,256.79,59.27,256.2,59.27Z"/><rect class="cls-5" x="259.73" y="53.68" width="1.32" height="6.77"/><path class="cls-5" d="M273.41,60.15a7.38,7.38,0,0,1-1.76.29,3.26,3.26,0,0,1-3.53-3.38c0-2.35,1.62-3.53,3.82-3.53a2.42,2.42,0,0,1,1.47.29V55a4.29,4.29,0,0,0-1.32-.29,2.35,2.35,0,1,0,0,4.71,4.35,4.35,0,0,0,1.47-.29Z"/><path class="cls-5" d="M283,53.53a3.23,3.23,0,0,0-3.38,3.38A3.08,3.08,0,0,0,283,60.3a3.23,3.23,0,0,0,3.38-3.38A3.16,3.16,0,0,0,283,53.53Zm0,6c-.44,0-1.91-.15-1.91-2.5s1.32-2.5,1.91-2.5,1.91.15,1.91,2.5S283.55,59.56,283,59.56Z"/><polygon class="cls-5" points="297.52 53.68 297.52 54.86 295.47 54.86 295.47 60.45 294.14 60.45 294.14 54.86 292.23 54.86 292.23 53.68 297.52 53.68"/><polygon class="cls-5" points="308.26 53.68 308.26 54.86 305.61 54.86 305.61 56.33 307.97 56.33 307.97 57.51 305.61 57.51 305.61 59.27 308.26 59.27 308.26 60.45 304.29 60.45 304.29 53.68 308.26 53.68"/><path class="cls-6" d="M226.64,43.39H86.18a4,4,0,0,1-4-4V33.68H230.75v5.44A4.06,4.06,0,0,1,226.64,43.39Z"/><path class="cls-7" d="M175.6,5.88c1.32,1,2.79,2.65,2.35,4.56-1.32,3.38-4.85,4.71-7.79,5.74C160.6,19,148.39,19,139.72,14.56c-1.76-1-4-2.5-4-4.85.44-3.24,4-5,6.47-6C151,.59,163.1.59,171.78,3.68a17,17,0,0,1,3.82,2.21Z"/><path class="cls-5" d="M230.9,33.68H82.36v4.85h0a4.79,4.79,0,0,0,1.47,3.38,5.14,5.14,0,0,0,3.53,1.47H225.9a5.14,5.14,0,0,0,3.53-1.47,4.79,4.79,0,0,0,1.47-3.38h0V33.68ZM82.36,33.09H230.9V15.74h0a4.79,4.79,0,0,0-1.47-3.38,5.14,5.14,0,0,0-3.53-1.47H87.36a5.14,5.14,0,0,0-3.53,1.47,4.79,4.79,0,0,0-1.47,3.38h0V33.09Zm149.13,5.44h0a5.1,5.1,0,0,1-1.62,3.82,5.68,5.68,0,0,1-4,1.62H87.36a5.43,5.43,0,0,1-4-1.62,5.34,5.34,0,0,1-1.62-3.82h0V15.74h0a5.1,5.1,0,0,1,1.62-3.82,5.68,5.68,0,0,1,4-1.62H225.9a5.43,5.43,0,0,1,4,1.62,5.34,5.34,0,0,1,1.62,3.82h0v22.8Z"/><path class="cls-5" d="M175.6,5.88c1.32,1,2.79,2.65,2.35,4.56-1.32,3.38-4.85,4.71-7.79,5.74C160.6,19,148.39,19,139.72,14.56c-1.76-1-4-2.5-4-4.85.44-3.24,4-5,6.47-6C151,.59,163.1.59,171.78,3.68a17,17,0,0,1,3.82,2.21Z"/><polygon class="cls-2" points="99.42 16.34 99.42 21.5 90.6 21.5 90.6 16.34 86.18 16.34 86.18 29.57 90.6 29.57 90.6 24.44 99.42 24.44 99.42 29.57 103.83 29.57 103.83 16.34 99.42 16.34"/><path class="cls-2" d="M164.71,29.56h6.71L163.85,23l6.55-5.72a49.77,49.77,0,0,1-8.6,1.65l-3,2.6h-2.48V19.18c-1.48,0-3-.08-4.41-.22V29.57h4.41V24.44h2.5Z"/><path class="cls-2" d="M149.28,21.42V19.28a2.93,2.93,0,0,0-.08-.67A36.62,36.62,0,0,1,141,16.34H133.1a2.94,2.94,0,0,0-2.94,2.94v7.35a2.94,2.94,0,0,0,2.94,2.94h13.24a2.94,2.94,0,0,0,2.94-2.94V24.49h-4.41v.67a1.47,1.47,0,0,1-1.47,1.47H136a1.47,1.47,0,0,1-1.47-1.47V20.75A1.47,1.47,0,0,1,136,19.28h7.35a1.47,1.47,0,0,1,1.47,1.47v.67Z"/><path class="cls-2" d="M120.47,16.34h-6.66l-7.93,13.24H111L112.55,27h9.2l1.52,2.53h5.14Zm-6.17,7.76,2.84-4.73L120,24.1Z"/><path class="cls-8" d="M169,7.16l4-.27-.89-1.29-17,.87.28.93h0l.19.67,6.54-.44c1.4,9.59-5.61,8.7-7.2,8-2.07-.86,2.3-1.35-1.14-2.76-3.27-1.35-6.74,2.18,0,3.78,7,1.68,13.2-1.86,12.53-9.27Z"/><path class="cls-8" d="M154.52,2.08h-3.07c.26,3-3.84,9.4-9.12,12.25l2.37.59A12.77,12.77,0,0,1,152,12.22c3.82,0,4.58,2.46,4.58,2.46l3.69,0C156.37,11.55,153.08,6.57,154.52,2.08Zm-4.28,9.14A11,11,0,0,1,151.66,8l1.83,3.16Z"/><polygon class="cls-2" points="191.82 19.27 198.2 19.27 198.2 29.57 202.61 29.57 202.61 19.27 208.99 19.27 208.99 16.32 191.82 16.32 191.82 19.27"/><polygon class="cls-2" points="227.31 16.32 210.14 16.32 210.14 19.27 216.52 19.27 216.52 29.57 220.93 29.57 220.93 19.27 227.31 19.27 227.31 16.32"/><polygon class="cls-2" points="189.57 19.27 189.57 16.32 173.16 16.32 173.16 16.34 173.16 19.27 173.16 29.57 177.57 29.57 177.57 29.56 189.57 29.56 189.57 26.62 177.57 26.62 177.57 24.55 188.86 24.55 188.86 21.61 177.57 21.61 177.57 19.27 189.57 19.27"/><path class="cls-5" d="M225.11,27.16h.72c.15,0,.48,0,.48.4a.34.34,0,0,1-.25.35h0a.31.31,0,0,1,.2.34c0,.18,0,.24.05.31H226c-.06-.08,0-.15-.06-.36s-.19-.16-.23-.16h-.26v.52h-.33Zm.33.63h.31c.19,0,.21-.11.21-.18s-.08-.18-.23-.18h-.29Z"/><path class="cls-5" d="M225.65,29.54a1.65,1.65,0,1,1,1.65-1.65A1.66,1.66,0,0,1,225.65,29.54Zm0-2.94a1.29,1.29,0,1,0,1.29,1.29A1.29,1.29,0,0,0,225.65,26.6Z"/><path class="cls-9" d="M122.07,37.47V40A2.06,2.06,0,0,0,124.13,42h6.62A2.06,2.06,0,0,0,132.81,40v-2.5a2.06,2.06,0,0,0-2.06-2.06h-6.62A2.06,2.06,0,0,0,122.07,37.47ZM129,40.56H125.9a1.47,1.47,0,0,1-1.47-1.47v-.74a1.47,1.47,0,0,1,1.47-1.47H129a1.47,1.47,0,0,1,1.47,1.47v.74A1.47,1.47,0,0,1,129,40.56Z"/><path class="cls-9" d="M163.18,39.51a1.45,1.45,0,0,1-1.38,1h-3.07a1.47,1.47,0,0,1-1.47-1.47v-.74a1.47,1.47,0,0,1,1.47-1.47h3.07A1.45,1.45,0,0,1,163.21,38h2.42v-.58a2.06,2.06,0,0,0-2.06-2.06H157a2.06,2.06,0,0,0-2.06,2.06V40A2.06,2.06,0,0,0,157,42h6.62A2.06,2.06,0,0,0,165.63,40v-.45Z"/><rect class="cls-9" x="218.84" y="35.24" width="2.36" height="6.81"/><path class="cls-9" d="M93.54,36.91h3.52a.59.59,0,0,1,.59.59h2.79v-.72A1.47,1.47,0,0,0,99,35.31h-7.5A1.47,1.47,0,0,0,90,36.78v1a1.47,1.47,0,0,0,1.47,1.47h5.64a.59.59,0,0,1-.06,1.17H93.54a.59.59,0,0,1-.59-.58H90v.72a1.47,1.47,0,0,0,1.47,1.47H99a1.47,1.47,0,0,0,1.47-1.47v-1A1.47,1.47,0,0,0,99,38.09H93.54a.59.59,0,0,1,0-1.18Z"/><polygon class="cls-9" points="194.27 35.24 194.27 38.05 189.03 38.05 189.03 35.24 186.67 35.24 186.67 42.05 189.03 42.05 189.03 39.23 194.27 39.23 194.27 42.05 196.63 42.05 196.63 35.24 194.27 35.24"/></g></g></svg>