<svg xmlns="http://www.w3.org/2000/svg" viewBox="0 0 19.7 19"><radialGradient id="a" cx="9.796" cy="9.199" r="19.959" gradientUnits="userSpaceOnUse"><stop offset="0" stop-color="#162859"/><stop offset="1" stop-color="#131746"/></radialGradient><circle fill="url(#a)" cx="9.8" cy="9.2" r="9"/><path fill="#FFC50F" d="M13 8.1h-2v-2c0-.7-.6-1.2-1.2-1.2h-.1c-.7 0-1.2.5-1.2 1.2v2h-2c-.7 0-1.2.6-1.2 1.2v.1c0 .7.5 1.2 1.2 1.2h2v2c0 .7.6 1.2 1.2 1.2h.1c.7 0 1.2-.5 1.2-1.2v-2h2c.7 0 1.2-.6 1.2-1.2 0-.7-.5-1.3-1.2-1.3z"/></svg>