<svg xmlns="http://www.w3.org/2000/svg" viewBox="0 0 27 25"><g fill="#FFC50F"><path d="M20.7 2.7c0-1-.8-1.8-1.8-1.8L8.1.8c-1 0-1.8.8-1.8 1.8v3c0 .7.5 1.2 1.2 1.2l12 .1c.7 0 1.2-.5 1.2-1.2v-3zm.5 17.1c-.1-.6-.6-1-1.2-1H6.8c-.6 0-1.1.4-1.2 1L5 22.6c-.2 1.1.6 2.2 1.8 2.2H20c1.1 0 2-1 1.8-2.1l-.6-2.9z"/><path d="M24.2 8.1L2.7 8C1.4 8 .3 9 .3 10.4c0 2.8-.1 7.7 0 10.2.1.9.8 1.7 1.7 1.7.5 0 .7 0 1.2.1l1.3-4.7c.2-.8.9-1.3 1.7-1.3l14.1.1c.8 0 1.5.5 1.7 1.3l1.3 4.7h1.2c.9 0 1.7-.8 1.7-1.7.2-2.5.2-7.4.1-10.2.3-1.5-.8-2.5-2.1-2.5zM3.8 12.8c-.7 0-1.2-.5-1.2-1.2s.5-1.2 1.2-1.2 1.2.5 1.2 1.2c0 .6-.5 1.2-1.2 1.2z"/></g></svg>