<svg xmlns="http://www.w3.org/2000/svg" viewBox="0 0 12 12"><g fill="#FFC50F"><path d="M8.6 6.3c.6-.6 1.2-1.2 1.8-1.9.6-.7.6-1.7 0-2.4S8.6 1.4 8 2c-.7.6-1.3 1.2-1.9 1.8-.6-.6-1.2-1.2-1.9-1.8-.7-.6-1.7-.6-2.4 0s-.7 1.7 0 2.4c.6.7 1.2 1.3 1.8 1.9-.6.6-1.2 1.3-1.8 1.9-.6.7-.6 1.7 0 2.4.6.6 1.7.7 2.4 0 .7-.6 1.3-1.2 1.9-1.8.6.6 1.2 1.2 1.9 1.8.7.6 1.7.6 2.4 0 .6-.6.7-1.7 0-2.4-.6-.6-1.2-1.3-1.8-1.9z"/><path d="M7.8 8.1h2.6c.9 0 1.6-.8 1.6-1.7s-.7-1.7-1.6-1.7H7.8V2.1C7.8 1 7 .3 6.1.3c-.9 0-1.7.7-1.7 1.6v2.6H1.8C.9 4.5.2 5.3.2 6.2.1 7.2.8 8 1.7 8h2.6v2.6c0 .9.8 1.6 1.7 1.6.9 0 1.7-.7 1.7-1.6.1-.8.1-1.7.1-2.5z"/></g></svg>