<?xml version="1.0" encoding="utf-8"?>
<!-- Generator: Adobe Illustrator 17.1.0, SVG Export Plug-In . SVG Version: 6.00 Build 0)  -->
<!DOCTYPE svg PUBLIC "-//W3C//DTD SVG 1.1//EN" "http://www.w3.org/Graphics/SVG/1.1/DTD/svg11.dtd">
<svg version="1.1" id="Layer_1" xmlns="http://www.w3.org/2000/svg" xmlns:xlink="http://www.w3.org/1999/xlink" x="0px" y="0px"
	 viewBox="0 0 19 20" enable-background="new 0 0 19 20" xml:space="preserve">
<path fill="#181b4e" d="M18.2,16.1c-1.3-1.8-2.7-3.4-4.2-5c0.4-0.9,0.7-1.9,0.7-3c0-3.9-3.2-7-7-7s-7,3.2-7,7c0,3.9,3.2,7,7,7
	c1.1,0,2.1-0.2,3-0.7c1.5,1.5,3.2,3,5,4.2c0.8,0.5,1.8,0.5,2.5-0.2C18.7,17.8,18.8,16.8,18.2,16.1z M3.7,8.1c0-2.2,1.8-3.9,3.9-3.9
	s3.9,1.8,3.9,3.9S9.8,12,7.6,12S3.7,10.3,3.7,8.1z"/>
</svg>
